NewsreaderCaption-Medium.ufo
<glyph name="exclam" format="2">
	<unicode hex="0021"/>
	<advance width="672.8"/>
	<outline>
		<contour>
			<point x="490.8" y="1370.2" type="line" smooth="yes"/>
			<point x="491.6" y="1410.8"/>
			<point x="465.6" y="1432.8"/>
			<point x="336.4" y="1432.8" type="curve" smooth="yes"/>
			<point x="207.6" y="1432.8"/>
			<point x="181.2" y="1410.8"/>
			<point x="182" y="1370.2" type="curve" smooth="yes"/>
			<point x="183" y="1294.6" type="line" smooth="yes"/>
			<point x="184.4" y="1237.8"/>
			<point x="242.6" y="607"/>
			<point x="258" y="459" type="curve"/>
			<point x="414.8" y="459" type="line"/>
			<point x="429.4" y="607"/>
			<point x="488.4" y="1237.8"/>
			<point x="489.8" y="1294.6" type="curve" smooth="yes"/>
		</contour>
		<contour>
			<point x="336.4" y="316.8" type="curve" smooth="yes"/>
			<point x="227.4" y="316.8"/>
			<point x="159.4" y="258.2"/>
			<point x="159.4" y="150.6" type="curve" smooth="yes"/>
			<point x="159.4" y="42"/>
			<point x="227.4" y="-17.2"/>
			<point x="336.4" y="-17.2" type="curve" smooth="yes"/>
			<point x="445.4" y="-17.2"/>
			<point x="513.4" y="42"/>
			<point x="513.4" y="150.6" type="curve" smooth="yes"/>
			<point x="513.4" y="258.2"/>
			<point x="445.4" y="316.8"/>
		</contour>
	</outline>
</glyph>
<glyph name="ampersand" format="2">
	<unicode hex="0026"/>
	<advance width="1683"/>
	<outline>
		<contour>
			<point x="723.8" y="791.4" type="line"/>
			<point x="1045.6" y="873.8"/>
			<point x="1139.4" y="986.8"/>
			<point x="1139.4" y="1166.4" type="curve" smooth="yes"/>
			<point x="1139.4" y="1327"/>
			<point x="1017.2" y="1436"/>
			<point x="737.4" y="1436" type="curve" smooth="yes"/>
			<point x="423.6" y="1436"/>
			<point x="295.4" y="1300.6"/>
			<point x="295.4" y="1116.6" type="curve" smooth="yes"/>
			<point x="295.4" y="992"/>
			<point x="329.6" y="903"/>
			<point x="471.4" y="754.4" type="curve" smooth="yes"/>
			<point x="1189.4" y="0" type="line"/>
			<point x="1600.8" y="0" type="line"/>
			<point x="1600.8" y="107.8" type="line"/>
			<point x="1398.2" y="153.2" type="line"/>
			<point x="707.8" y="874.6" type="line" smooth="yes"/>
			<point x="580.8" y="1007"/>
			<point x="551.4" y="1072.4"/>
			<point x="551.4" y="1153.8" type="curve" smooth="yes"/>
			<point x="551.4" y="1250"/>
			<point x="617.2" y="1298"/>
			<point x="737.4" y="1298" type="curve" smooth="yes"/>
			<point x="856.8" y="1298"/>
			<point x="912.8" y="1244.8"/>
			<point x="912.8" y="1150" type="curve" smooth="yes"/>
			<point x="912.8" y="1030.6"/>
			<point x="847" y="947.2"/>
			<point x="690.2" y="870.2" type="curve"/>
			<point x="523.8" y="798.2" type="line"/>
			<point x="234" y="715.6"/>
			<point x="114.8" y="571.8"/>
			<point x="114.8" y="355.2" type="curve" smooth="yes"/>
			<point x="114.8" y="118.6"/>
			<point x="244.6" y="-22"/>
			<point x="619.6" y="-22" type="curve" smooth="yes"/>
			<point x="836.4" y="-22"/>
			<point x="996.6" y="32.6"/>
			<point x="1142.6" y="180.4" type="curve"/>
			<point x="1194.4" y="233" type="line"/>
			<point x="1290.2" y="348"/>
			<point x="1380.2" y="507.6"/>
			<point x="1474.2" y="723.2" type="curve"/>
			<point x="1618.4" y="756.4" type="line"/>
			<point x="1618.4" y="864" type="line"/>
			<point x="1110.8" y="864" type="line"/>
			<point x="1110.8" y="756.4" type="line"/>
			<point x="1258.4" y="723.2" type="line"/>
			<point x="1226.8" y="539.4"/>
			<point x="1173.8" y="409.6"/>
			<point x="1103.8" y="321.2" type="curve"/>
			<point x="1052.2" y="268.8" type="line"/>
			<point x="960.4" y="182.8"/>
			<point x="851.8" y="141.8"/>
			<point x="712.6" y="141.8" type="curve" smooth="yes"/>
			<point x="468.8" y="141.8"/>
			<point x="378" y="242.8"/>
			<point x="378" y="435.6" type="curve" smooth="yes"/>
			<point x="378" y="551.4"/>
			<point x="418.4" y="644.6"/>
			<point x="550" y="716.8" type="curve"/>
		</contour>
	</outline>
</glyph>
<glyph name="quotesingle" format="2">
	<unicode hex="0027"/>
	<advance width="504.8"/>
	<outline>
		<contour>
			<point x="167" y="877.6" type="line"/>
			<point x="337.8" y="877.6" type="line"/>
			<point x="380.4" y="1366.4" type="line"/>
			<point x="380.4" y="1414" type="line"/>
			<point x="124.4" y="1414" type="line"/>
			<point x="124.4" y="1366.4" type="line"/>
		</contour>
	</outline>
</glyph>
<glyph name="parenleft" format="2">
  <advance width="726.2"/>
  <unicode hex="0028"/>
  <outline>
    <contour>
      <point x="342.2" y="621.4" type="curve" smooth="yes"/>
      <point x="342.2" y="932.6"/>
      <point x="428.0" y="1156.6"/>
      <point x="668.0" y="1383.4" type="curve"/>
      <point x="572.6" y="1486.0" type="line"/>
      <point x="211.4" y="1183.2"/>
      <point x="99.0" y="932.6"/>
      <point x="99.0" y="621.4" type="curve" smooth="yes"/>
      <point x="99.0" y="310.20000000000005"/>
      <point x="211.4" y="59.6"/>
      <point x="572.6" y="-243.2" type="curve"/>
      <point x="668.0" y="-140.6" type="line"/>
      <point x="428.0" y="86.2"/>
      <point x="342.2" y="310.2"/>
    </contour>
  </outline>
</glyph>
<glyph name="parenright" format="2">
	<unicode hex="0029"/>
	<advance width="726.4"/>
	<outline>
		<contour>
			<point x="384.2" y="622.2" type="curve" smooth="yes"/>
			<point x="384.2" y="311"/>
			<point x="298.4" y="87"/>
			<point x="58.4" y="-139.8" type="curve"/>
			<point x="153.8" y="-242.4" type="line"/>
			<point x="515" y="60.4"/>
			<point x="627.4" y="311"/>
			<point x="627.4" y="622.2" type="curve" smooth="yes"/>
			<point x="627.4" y="933.4"/>
			<point x="515" y="1184"/>
			<point x="153.8" y="1486.8" type="curve"/>
			<point x="58.4" y="1384.2" type="line"/>
			<point x="298.4" y="1157.4"/>
			<point x="384.2" y="933.4"/>
		</contour>
	</outline>
</glyph>
<glyph name="asterisk" format="2">
	<unicode hex="002A"/>
	<advance width="937.2"/>
	<outline>
		<contour>
			<point x="659.2" y="768.4" type="line"/>
			<point x="582.6" y="1004.4" type="line"/>
			<point x="827.8" y="1033.8" type="line"/>
			<point x="819.4" y="1158.8" type="line"/>
			<point x="570" y="1158.6" type="line"/>
			<point x="618.2" y="1401" type="line"/>
			<point x="496.6" y="1432" type="line"/>
			<point x="421.2" y="1194.8" type="line"/>
			<point x="203.6" y="1315" type="line"/>
			<point x="138" y="1210" type="line"/>
			<point x="339.6" y="1064" type="line"/>
			<point x="158" y="895" type="line"/>
			<point x="237.8" y="799.6" type="line"/>
			<point x="439" y="946" type="line"/>
			<point x="543.6" y="720.6" type="line"/>
		</contour>
	</outline>
</glyph>
<glyph name="plus" format="2">
  <advance width="1140.0"/>
  <unicode hex="002B"/>
  <outline>
    <contour>
      <point x="479.6" y="956.4" type="line"/>
      <point x="479.6" y="78.8" type="line"/>
      <point x="660.4" y="78.8" type="line"/>
      <point x="660.4" y="956.4" type="line"/>
    </contour>
    <contour>
      <point x="1008.8" y="608.0" type="line"/>
      <point x="131.2" y="608.0" type="line"/>
      <point x="131.2" y="427.2" type="line"/>
      <point x="1008.8" y="427.2" type="line"/>
    </contour>
  </outline>
</glyph>
<glyph name="comma" format="2">
	<unicode hex="002C"/>
	<advance width="581"/>
	<outline>
		<contour>
			<point x="57.2" y="-281.4" type="curve"/>
			<point x="119.8" y="-364.2" type="line"/>
			<point x="385" y="-177.2"/>
			<point x="460" y="-37.8"/>
			<point x="460" y="137" type="curve" smooth="yes"/>
			<point x="460" y="263.6"/>
			<point x="399.4" y="322.6"/>
			<point x="282.4" y="322.6" type="curve" smooth="yes"/>
			<point x="174" y="322.6"/>
			<point x="111.2" y="259.6"/>
			<point x="111.2" y="159" type="curve" smooth="yes"/>
			<point x="111.2" y="113.6"/>
			<point x="246.2" y="71.6"/>
			<point x="246.2" y="-29.2" type="curve" smooth="yes"/>
			<point x="246.2" y="-109.2"/>
			<point x="199.6" y="-175.2"/>
		</contour>
	</outline>
</glyph>
<glyph name="hyphen" format="2">
  <advance width="839.8000000000001"/>
  <unicode hex="002D"/>
  <outline>
    <contour>
      <point x="145.6" y="620.4" type="line"/>
      <point x="145.6" y="423.59999999999997" type="line"/>
      <point x="694.2" y="423.59999999999997" type="line"/>
      <point x="694.2" y="620.4" type="line"/>
    </contour>
  </outline>
</glyph>
<glyph name="period" format="2">
	<unicode hex="002E"/>
	<advance width="580.8"/>
	<outline>
		<contour>
			<point x="290.4" y="327.2" type="curve" smooth="yes"/>
			<point x="184" y="327.2"/>
			<point x="115.2" y="265"/>
			<point x="115.2" y="155" type="curve" smooth="yes"/>
			<point x="115.2" y="45"/>
			<point x="184" y="-17.2"/>
			<point x="290.4" y="-17.2" type="curve" smooth="yes"/>
			<point x="396.8" y="-17.2"/>
			<point x="465.6" y="45"/>
			<point x="465.6" y="155" type="curve" smooth="yes"/>
			<point x="465.6" y="265"/>
			<point x="396.8" y="327.2"/>
		</contour>
	</outline>
</glyph>
<glyph name="slash" format="2">
	<unicode hex="002F"/>
	<advance width="917.4"/>
	<outline>
		<contour>
			<point x="59" y="0" type="line"/>
			<point x="270.2" y="0" type="line"/>
			<point x="861.2" y="1414" type="line"/>
			<point x="649.2" y="1414" type="line"/>
		</contour>
	</outline>
</glyph>
<glyph name="zero" format="2">
	<unicode hex="0030"/>
	<advance width="1350"/>
	<outline>
		<contour>
			<point x="678.6" y="159.8" type="curve" smooth="yes"/>
			<point x="472.5252649513" y="159.8"/>
			<point x="376.2" y="325.6"/>
			<point x="376.2" y="744" type="curve" smooth="yes"/>
			<point x="376.2" y="1096.2"/>
			<point x="467.9856073338" y="1254.2"/>
			<point x="671.6" y="1254.2" type="curve" smooth="yes"/>
			<point x="878.0336565395" y="1254.2"/>
			<point x="974.2" y="1088.4"/>
			<point x="974.2" y="670" type="curve" smooth="yes"/>
			<point x="974.2" y="317.8"/>
			<point x="882.7423708207" y="159.8"/>
		</contour>
		<contour>
			<point x="685.6" y="1436" type="curve" smooth="yes"/>
			<point x="293.8574394464" y="1436"/>
			<point x="97.6" y="1159.6"/>
			<point x="97.6" y="680" type="curve" smooth="yes"/>
			<point x="97.6" y="231.8"/>
			<point x="304.0167112299" y="-22"/>
			<point x="665.2" y="-22" type="curve" smooth="yes"/>
			<point x="1056.5642114332" y="-22"/>
			<point x="1253.4" y="254.4"/>
			<point x="1253.4" y="734" type="curve" smooth="yes"/>
			<point x="1253.4" y="1182.2"/>
			<point x="1046.4058709751" y="1436"/>
		</contour>
	</outline>
</glyph>
<glyph name="one" format="2">
  <advance width="1350.0"/>
  <unicode hex="0031"/>
  <outline>
    <contour>
      <point x="625.0" y="172.79999999999998" type="line"/>
      <point x="281.2" y="113.4" type="line"/>
      <point x="281.2" y="0.0" type="line"/>
      <point x="1224.8" y="0.0" type="line"/>
      <point x="1224.8" y="113.4" type="line"/>
      <point x="896.4" y="172.79999999999998" type="line"/>
      <point x="896.4" y="1430.0" type="line"/>
      <point x="694.1999999999999" y="1430.0" type="line"/>
      <point x="160.8" y="1176.0" type="line"/>
      <point x="215.60000000000002" y="1020.0" type="line"/>
      <point x="699.4" y="1193.4" type="line"/>
      <point x="625.0" y="1313.0" type="line"/>
    </contour>
  </outline>
</glyph>
<glyph name="colon" format="2">
	<unicode hex="003A"/>
	<advance width="633.6"/>
	<outline>
		<contour>
			<point x="316.8" y="322.6" type="curve" smooth="yes"/>
			<point x="210.4" y="322.6"/>
			<point x="141.6" y="261.4"/>
			<point x="141.6" y="152.8" type="curve" smooth="yes"/>
			<point x="141.6" y="44"/>
			<point x="210.4" y="-17.2"/>
			<point x="316.8" y="-17.2" type="curve" smooth="yes"/>
			<point x="423.2" y="-17.2"/>
			<point x="492" y="44"/>
			<point x="492" y="152.8" type="curve" smooth="yes"/>
			<point x="492" y="261.4"/>
			<point x="423.2" y="322.6"/>
		</contour>
		<contour>
			<point x="316.8" y="1045.2" type="curve" smooth="yes"/>
			<point x="210.4" y="1045.2"/>
			<point x="141.6" y="984"/>
			<point x="141.6" y="875.4" type="curve" smooth="yes"/>
			<point x="141.6" y="766.6"/>
			<point x="210.4" y="705.4"/>
			<point x="316.8" y="705.4" type="curve" smooth="yes"/>
			<point x="423.2" y="705.4"/>
			<point x="492" y="766.6"/>
			<point x="492" y="875.4" type="curve" smooth="yes"/>
			<point x="492" y="984"/>
			<point x="423.2" y="1045.2"/>
		</contour>
	</outline>
</glyph>
<glyph name="semicolon" format="2">
	<unicode hex="003B"/>
	<advance width="644.6"/>
	<outline>
		<contour>
			<point x="93.8" y="-281.4" type="curve"/>
			<point x="156.4" y="-364.2" type="line"/>
			<point x="421.6" y="-177.2"/>
			<point x="496.6" y="-37.8"/>
			<point x="496.6" y="137" type="curve" smooth="yes"/>
			<point x="496.6" y="263.6"/>
			<point x="436" y="322.6"/>
			<point x="319" y="322.6" type="curve" smooth="yes"/>
			<point x="210.6" y="322.6"/>
			<point x="147.8" y="259.6"/>
			<point x="147.8" y="159" type="curve" smooth="yes"/>
			<point x="147.8" y="113.6"/>
			<point x="282.8" y="71.6"/>
			<point x="282.8" y="-29.2" type="curve" smooth="yes"/>
			<point x="282.8" y="-109.2"/>
			<point x="236.2" y="-175.2"/>
		</contour>
		<contour>
			<point x="321.4" y="1045.2" type="curve" smooth="yes"/>
			<point x="215" y="1045.2"/>
			<point x="146.2" y="984"/>
			<point x="146.2" y="875.4" type="curve" smooth="yes"/>
			<point x="146.2" y="766.6"/>
			<point x="215" y="705.4"/>
			<point x="321.4" y="705.4" type="curve" smooth="yes"/>
			<point x="427.8" y="705.4"/>
			<point x="496.6" y="766.6"/>
			<point x="496.6" y="875.4" type="curve" smooth="yes"/>
			<point x="496.6" y="984"/>
			<point x="427.8" y="1045.2"/>
		</contour>
	</outline>
</glyph>
<glyph name="less" format="2">
	<unicode hex="003C"/>
	<advance width="1140"/>
	<outline>
		<contour>
			<point x="223.6" y="469.6" type="line"/>
			<point x="1007.8" y="809" type="line"/>
			<point x="1007.8" y="1002.8" type="line"/>
			<point x="110" y="604.2" type="line"/>
			<point x="110" y="430.8" type="line"/>
			<point x="1007.8" y="32.4" type="line"/>
			<point x="1007.8" y="230" type="line"/>
			<point x="223.6" y="571.6" type="line"/>
		</contour>
	</outline>
</glyph>
<glyph name="greater" format="2">
	<unicode hex="003E"/>
	<advance width="1140"/>
	<outline>
		<contour>
			<point x="916.4" y="469.6" type="line"/>
			<point x="916.4" y="571.6" type="line"/>
			<point x="132.2" y="230" type="line"/>
			<point x="132.2" y="32.4" type="line"/>
			<point x="1030" y="430.8" type="line"/>
			<point x="1030" y="604.2" type="line"/>
			<point x="132.2" y="1002.8" type="line"/>
			<point x="132.2" y="809" type="line"/>
		</contour>
	</outline>
</glyph>
<glyph name="question" format="2">
  <advance width="1256.0"/>
  <unicode hex="003F"/>
  <outline>
    <contour>
      <point x="571.2" y="1436.0" type="curve" smooth="yes"/>
      <point x="171.8" y="1436.0"/>
      <point x="60.0" y="1332.2"/>
      <point x="60.0" y="1226.4" type="curve" smooth="yes"/>
      <point x="60.0" y="1148.2"/>
      <point x="117.39999999999999" y="1100.2"/>
      <point x="204.0" y="1100.2" type="curve" smooth="yes"/>
      <point x="271.8" y="1100.2"/>
      <point x="342.40000000000003" y="1266.6000000000001"/>
      <point x="569.6" y="1266.6000000000001" type="curve" smooth="yes"/>
      <point x="789.6" y="1266.6000000000001"/>
      <point x="880.1999999999999" y="1160.2"/>
      <point x="880.1999999999999" y="1031.6" type="curve" smooth="yes"/>
      <point x="880.1999999999999" y="875.2"/>
      <point x="788.1999999999999" y="811.6"/>
      <point x="462.2" y="813.2" type="curve"/>
      <point x="500.6" y="452.8" type="line"/>
      <point x="669.1999999999999" y="452.8" type="line"/>
      <point x="699.1999999999999" y="726.8" type="line"/>
      <point x="629.8" y="640.0" type="line"/>
      <point x="1029.3999999999999" y="650.0"/>
      <point x="1165.2" y="793.6"/>
      <point x="1165.2" y="1036.6000000000001" type="curve" smooth="yes"/>
      <point x="1165.2" y="1262.6"/>
      <point x="965.8" y="1436.0"/>
    </contour>
    <contour>
      <point x="582.0" y="316.8" type="curve" smooth="yes"/>
      <point x="473.0" y="316.8"/>
      <point x="405.0" y="258.2"/>
      <point x="405.0" y="150.6" type="curve" smooth="yes"/>
      <point x="405.0" y="42.0"/>
      <point x="473.0" y="-17.2"/>
      <point x="582.0" y="-17.2" type="curve" smooth="yes"/>
      <point x="691.0" y="-17.2"/>
      <point x="759.0" y="42.0"/>
      <point x="759.0" y="150.6" type="curve" smooth="yes"/>
      <point x="759.0" y="258.2"/>
      <point x="691.0" y="316.8"/>
    </contour>
  </outline>
</glyph>
<glyph name="at" format="2">
	<unicode hex="0040"/>
	<advance width="1917.6"/>
	<outline>
		<contour>
			<point x="1368.2" y="185.8" type="curve" smooth="yes"/>
			<point x="1648.2" y="185.8"/>
			<point x="1845.2" y="408"/>
			<point x="1845.2" y="788.8" type="curve" smooth="yes"/>
			<point x="1845.2" y="1217.8"/>
			<point x="1556.6" y="1436"/>
			<point x="1089.4" y="1436" type="curve" smooth="yes"/>
			<point x="476.6" y="1436"/>
			<point x="101.6" y="1061.8"/>
			<point x="101.6" y="500.6" type="curve" smooth="yes"/>
			<point x="101.6" y="-26"/>
			<point x="409.8" y="-248"/>
			<point x="954" y="-248" type="curve" smooth="yes"/>
			<point x="1218.6" y="-248"/>
			<point x="1429.6" y="-184.4"/>
			<point x="1628" y="-63.6" type="curve"/>
			<point x="1572.2" y="38.4" type="line"/>
			<point x="1383.2" y="-69.2"/>
			<point x="1184" y="-126.2"/>
			<point x="985" y="-126.2" type="curve" smooth="yes"/>
			<point x="494.8" y="-126.2"/>
			<point x="247.6" y="70.6"/>
			<point x="247.6" y="511.6" type="curve" smooth="yes"/>
			<point x="247.6" y="999.6"/>
			<point x="560.4" y="1320"/>
			<point x="1080.4" y="1320" type="curve" smooth="yes"/>
			<point x="1479.8" y="1320"/>
			<point x="1707.6" y="1149"/>
			<point x="1707.6" y="755" type="curve" smooth="yes"/>
			<point x="1707.6" y="488.2"/>
			<point x="1570.2" y="311"/>
			<point x="1413.6" y="311" type="curve" smooth="yes"/>
			<point x="1342.2" y="311"/>
			<point x="1308.4" y="336.6"/>
			<point x="1307.8" y="404" type="curve" smooth="yes"/>
			<point x="1307.4" y="434"/>
			<point x="1312.4" y="468.2"/>
			<point x="1326.4" y="512.6" type="curve" smooth="yes"/>
			<point x="1477.2" y="1008" type="line"/>
			<point x="1285" y="1008" type="line"/>
			<point x="1200.2" y="858.2" type="line"/>
			<point x="1157.4" y="737" type="line" smooth="yes"/>
			<point x="1082" y="525.6"/>
			<point x="950.2" y="358.6"/>
			<point x="846.6" y="358.6" type="curve" smooth="yes"/>
			<point x="783" y="358.6"/>
			<point x="754.4" y="388.6"/>
			<point x="754" y="452.6" type="curve" smooth="yes"/>
			<point x="752.2" y="622.6"/>
			<point x="920.2" y="891.6"/>
			<point x="1076.2" y="891.6" type="curve" smooth="yes"/>
			<point x="1143.8" y="891.6"/>
			<point x="1183.4" y="860.8"/>
			<point x="1219.2" y="788.4" type="curve"/>
			<point x="1236.4" y="822.6" type="line"/>
			<point x="1191" y="955.8"/>
			<point x="1118.4" y="1027.8"/>
			<point x="1003.8" y="1027.8" type="curve" smooth="yes"/>
			<point x="734" y="1028"/>
			<point x="494.6" y="692.4"/>
			<point x="498.2" y="423.6" type="curve" smooth="yes"/>
			<point x="500" y="286.2"/>
			<point x="581.8" y="194.6"/>
			<point x="733.2" y="194.6" type="curve" smooth="yes"/>
			<point x="876.4" y="194.6"/>
			<point x="974.4" y="275.6"/>
			<point x="1131" y="544.8" type="curve"/>
			<point x="1150.2" y="544.8" type="line"/>
			<point x="1131.6" y="493.4" type="line" smooth="yes"/>
			<point x="1117" y="451.2"/>
			<point x="1109" y="411"/>
			<point x="1109.4" y="376.2" type="curve" smooth="yes"/>
			<point x="1111.2" y="255.5123228469"/>
			<point x="1203.0406724089" y="185.8"/>
		</contour>
	</outline>
</glyph>
<glyph name="A" format="2">
  <advance width="1711"/>
  <unicode hex="0041"/>
  <anchor x="842.8000000000001" y="1414.0" name="UCtop"/>
  <anchor x="1524.0" y="0.0" name="right"/>
  <anchor x="807.1999999999999" y="0.0" name="bottom"/>
  <outline>
    <contour>
      <point x="443.6" y="448.8" type="line"/>
      <point x="1169.2" y="448.8" type="line"/>
      <point x="1169.2" y="626.8000000000001" type="line"/>
      <point x="443.6" y="626.8000000000001" type="line"/>
    </contour>
    <contour>
      <point x="1518.2" y="158.6" type="line"/>
      <point x="1009.8" y="1430.0" type="line"/>
      <point x="671.5999999999999" y="1430.0" type="line"/>
      <point x="189.6" y="154.6" type="line"/>
      <point x="21.6" y="112.0" type="line"/>
      <point x="21.6" y="0.0" type="line"/>
      <point x="579.8" y="0.0" type="line"/>
      <point x="579.8" y="112.0" type="line"/>
      <point x="399.6" y="155.79999999999998" type="line"/>
      <point x="807.6" y="1309.6000000000001" type="line"/>
      <point x="761.4" y="1309.6000000000001" type="line"/>
      <point x="1209.4" y="154.6" type="line"/>
      <point x="1028.6" y="112.0" type="line"/>
      <point x="1028.6" y="0.0" type="line"/>
      <point x="1704.0" y="0.0" type="line"/>
      <point x="1704.0" y="112.0" type="line"/>
    </contour>
  </outline>
</glyph>
<glyph name="B" format="2">
	<unicode hex="0042"/>
	<advance width="1531.6"/>
	<outline>
		<contour>
			<point x="454.2" y="1237.8" type="line"/>
			<point x="844.2" y="1237.8" type="line" smooth="yes"/>
			<point x="1017.6" y="1237.8"/>
			<point x="1078.2" y="1173.2"/>
			<point x="1078.2" y="1043" type="curve" smooth="yes"/>
			<point x="1078.2" y="891.6"/>
			<point x="1002.4" y="833.2"/>
			<point x="863.4" y="833.2" type="curve" smooth="yes"/>
			<point x="455.8" y="833.2" type="line"/>
			<point x="450.2" y="664.8" type="line"/>
			<point x="861.8" y="664.8" type="line" smooth="yes"/>
			<point x="1059.8" y="664.8"/>
			<point x="1132.2" y="576.4"/>
			<point x="1132.2" y="429" type="curve" smooth="yes"/>
			<point x="1132.2" y="234.2"/>
			<point x="1046.4" y="176.2"/>
			<point x="855" y="176.2" type="curve" smooth="yes"/>
			<point x="454.2" y="176.2" type="line"/>
			<point x="454.2" y="0" type="line"/>
			<point x="890.8" y="0" type="line" smooth="yes"/>
			<point x="1275.6" y="0"/>
			<point x="1420" y="157.2"/>
			<point x="1420" y="419" type="curve" smooth="yes"/>
			<point x="1420" y="625.2"/>
			<point x="1283.6" y="760.2"/>
			<point x="1034.4" y="774" type="curve"/>
			<point x="1034.4" y="755" type="line"/>
			<point x="1243.6" y="773"/>
			<point x="1354.2" y="891"/>
			<point x="1354.2" y="1081" type="curve" smooth="yes"/>
			<point x="1354.2" y="1282"/>
			<point x="1237.6" y="1414"/>
			<point x="906.6" y="1414" type="curve" smooth="yes"/>
			<point x="454.2" y="1414" type="line"/>
		</contour>
		<contour>
			<point x="113.2" y="0" type="line"/>
			<point x="577.6" y="0" type="line"/>
			<point x="577.6" y="1414" type="line"/>
			<point x="113.2" y="1414" type="line"/>
			<point x="113.2" y="1302" type="line"/>
			<point x="295.6" y="1256.2" type="line"/>
			<point x="295.6" y="157.8" type="line"/>
			<point x="113.2" y="112" type="line"/>
		</contour>
	</outline>
	<anchor name="UCtop" x="789" y="1414"/>
	<anchor name="bottom" x="813" y="0"/>
</glyph>
<glyph name="C" format="2">
	<unicode hex="0043"/>
	<advance width="1569.6"/>
	<outline>
		<contour>
			<point x="960.2" y="160.6" type="curve" smooth="yes"/>
			<point x="608.4" y="160.6"/>
			<point x="393.6" y="348.2"/>
			<point x="404.8" y="740.8" type="curve" smooth="yes"/>
			<point x="414.4" y="1083.4"/>
			<point x="564.2" y="1246.8"/>
			<point x="928.4" y="1246.8" type="curve" smooth="yes"/>
			<point x="1057" y="1246.8"/>
			<point x="1147.8" y="1227.2"/>
			<point x="1265.4" y="1165.2" type="curve"/>
			<point x="1180.6" y="1276.8" type="line"/>
			<point x="1272.2" y="945.2" type="line"/>
			<point x="1435.6" y="945.2" type="line"/>
			<point x="1435.6" y="1489.6" type="line"/>
			<point x="1310.2" y="1489.6" type="line"/>
			<point x="1217" y="1370.4" type="line"/>
			<point x="1296" y="1375.8" type="line"/>
			<point x="1180.7316352462" y="1411.958116058"/>
			<point x="1067" y="1436"/>
			<point x="925.8" y="1436" type="curve" smooth="yes"/>
			<point x="403.4" y="1436"/>
			<point x="119.9934704347" y="1163.2841643417"/>
			<point x="115.2" y="696.8" type="curve" smooth="yes"/>
			<point x="110.4" y="219.2"/>
			<point x="395.4" y="-22"/>
			<point x="931.8" y="-22" type="curve" smooth="yes"/>
			<point x="1121.6" y="-22"/>
			<point x="1297.4" y="11.6"/>
			<point x="1412.8" y="62.2" type="curve"/>
			<point x="1455.6" y="462.6" type="line"/>
			<point x="1313.8" y="462.6" type="line"/>
			<point x="1161" y="99.6" type="line"/>
			<point x="1320" y="228.4" type="line"/>
			<point x="1210.8" y="185"/>
			<point x="1078" y="160.6"/>
		</contour>
	</outline>
	<anchor name="UCtop" x="853.4" y="1414"/>
	<anchor name="bottom" x="869.4" y="0"/>
	<anchor name="right" x="1383.6" y="0"/>
</glyph>
<glyph name="D" format="2">
	<unicode hex="0044"/>
	<advance width="1713.4"/>
	<outline>
		<contour>
			<point x="1306.6" y="723.4" type="curve" smooth="yes"/>
			<point x="1306.6" y="341"/>
			<point x="1145.8" y="183.6"/>
			<point x="831.6" y="183.6" type="curve" smooth="yes"/>
			<point x="433.8" y="183.6" type="line"/>
			<point x="423" y="0" type="line"/>
			<point x="839" y="0" type="line" smooth="yes"/>
			<point x="1298" y="0"/>
			<point x="1597" y="257"/>
			<point x="1597" y="736" type="curve" smooth="yes"/>
			<point x="1597" y="1177"/>
			<point x="1343" y="1414"/>
			<point x="848" y="1414" type="curve" smooth="yes"/>
			<point x="423" y="1414" type="line"/>
			<point x="433.8" y="1230.4" type="line"/>
			<point x="780.6" y="1230.4" type="line" smooth="yes"/>
			<point x="1149.4" y="1230.4"/>
			<point x="1306.6" y="1069.6"/>
		</contour>
		<contour>
			<point x="106.8" y="0" type="line"/>
			<point x="579.2" y="0" type="line"/>
			<point x="579.2" y="1414" type="line"/>
			<point x="106.8" y="1414" type="line"/>
			<point x="106.8" y="1302" type="line"/>
			<point x="297.2" y="1256.2" type="line"/>
			<point x="297.2" y="157.8" type="line"/>
			<point x="106.8" y="112" type="line"/>
		</contour>
	</outline>
	<anchor name="UCtop" x="863.4" y="1414"/>
	<anchor name="bottom" x="863.4" y="0"/>
</glyph>
<glyph name="E" format="2">
	<unicode hex="0045"/>
	<advance width="1536.2"/>
	<outline>
		<contour>
			<point x="1074" y="990" type="line"/>
			<point x="932.4" y="990" type="line"/>
			<point x="915.4" y="821.2" type="line"/>
			<point x="428.6" y="821.2" type="line"/>
			<point x="428.6" y="652.8" type="line"/>
			<point x="915.4" y="652.8" type="line"/>
			<point x="932.4" y="480" type="line"/>
			<point x="1074" y="480" type="line"/>
			<point x="1074" y="735" type="line"/>
		</contour>
		<contour>
			<point x="1395.8" y="1023.2" type="line"/>
			<point x="1395.8" y="1489.6" type="line"/>
			<point x="1278.6" y="1489.6" type="line"/>
			<point x="1190.8" y="1414" type="line"/>
			<point x="428.6" y="1414" type="line"/>
			<point x="428.6" y="1237.8" type="line"/>
			<point x="1241.6" y="1237.8" type="line"/>
			<point x="1147.8" y="1339.2" type="line"/>
			<point x="1243" y="1023.2" type="line"/>
		</contour>
		<contour>
			<point x="1132.4" y="75.8" type="line"/>
			<point x="1214.4" y="176.2" type="line"/>
			<point x="428.6" y="176.2" type="line"/>
			<point x="428.6" y="0" type="line"/>
			<point x="1179.6" y="0" type="line"/>
			<point x="1234" y="-78.2" type="line"/>
			<point x="1368.4" y="-78.2" type="line"/>
			<point x="1449.8" y="452.6" type="line"/>
			<point x="1299.6" y="452.6" type="line"/>
		</contour>
		<contour>
			<point x="106.8" y="0" type="line"/>
			<point x="579.2" y="0" type="line"/>
			<point x="579.2" y="1414" type="line"/>
			<point x="106.8" y="1414" type="line"/>
			<point x="106.8" y="1302" type="line"/>
			<point x="297.2" y="1256.2" type="line"/>
			<point x="297.2" y="157.8" type="line"/>
			<point x="106.8" y="112" type="line"/>
		</contour>
	</outline>
	<anchor name="UCtop" x="777.8" y="1414"/>
	<anchor name="right" x="1267.8" y="0"/>
	<anchor name="bottom" x="761.8" y="0"/>
</glyph>
<glyph name="F" format="2">
  <advance width="1435"/>
  <unicode hex="0046"/>
  <anchor x="739.4" y="1414.0" name="UCtop"/>
  <anchor x="438.2" y="0.0" name="bottom"/>
  <outline>
    <contour>
      <point x="1066.0" y="923.2" type="line"/>
      <point x="924.4" y="923.2" type="line"/>
      <point x="907.4" y="742.4" type="line"/>
      <point x="428.59999999999997" y="742.4" type="line"/>
      <point x="428.59999999999997" y="574.0" type="line"/>
      <point x="907.4" y="574.0" type="line"/>
      <point x="924.4" y="389.2" type="line"/>
      <point x="1066.0" y="389.2" type="line"/>
      <point x="1066.0" y="656.2" type="line"/>
    </contour>
    <contour>
      <point x="1242.6" y="1489.6000000000001" type="line"/>
      <point x="1154.8" y="1414.0" type="line"/>
      <point x="428.59999999999997" y="1414.0" type="line"/>
      <point x="428.59999999999997" y="1237.8" type="line"/>
      <point x="1205.6000000000001" y="1237.8" type="line"/>
      <point x="1111.8" y="1339.2" type="line"/>
      <point x="1207.0" y="996.4000000000001" type="line"/>
      <point x="1359.8" y="996.4" type="line"/>
      <point x="1359.8" y="1489.6000000000001" type="line"/>
    </contour>
    <contour>
      <point x="579.1999999999999" y="1414.0" type="line"/>
      <point x="106.8" y="1414.0" type="line"/>
      <point x="106.8" y="1302.0" type="line"/>
      <point x="297.2" y="1256.1999999999998" type="line"/>
      <point x="297.2" y="157.8" type="line"/>
      <point x="106.8" y="112.0" type="line"/>
      <point x="106.8" y="0.0" type="line"/>
      <point x="769.5999999999999" y="0.0" type="line"/>
      <point x="769.5999999999999" y="112.0" type="line"/>
      <point x="579.1999999999999" y="157.8" type="line"/>
    </contour>
  </outline>
</glyph>
<glyph name="G" format="2">
	<unicode hex="0047"/>
	<advance width="1711"/>
	<outline>
		<contour>
			<point x="1466.4" y="225" type="line"/>
			<point x="1466.4" y="519.2" type="line"/>
			<point x="1615.2" y="569" type="line"/>
			<point x="1615.2" y="677" type="line"/>
			<point x="968.2" y="677" type="line"/>
			<point x="968.2" y="569" type="line"/>
			<point x="1184.4" y="521.2" type="line"/>
			<point x="1184.4" y="38.4" type="line"/>
			<point x="1308.6" y="247.6" type="line"/>
			<point x="1208.4" y="184.6"/>
			<point x="1077.2" y="163.4"/>
			<point x="960.2" y="163.4" type="curve" smooth="yes"/>
			<point x="608" y="163.4"/>
			<point x="393.6" y="349.6"/>
			<point x="404.8" y="740.8" type="curve" smooth="yes"/>
			<point x="414.4" y="1083.4"/>
			<point x="568.4" y="1246.8"/>
			<point x="942.4" y="1246.8" type="curve" smooth="yes"/>
			<point x="1071" y="1246.8"/>
			<point x="1161.8" y="1227.2"/>
			<point x="1279.4" y="1165.2" type="curve"/>
			<point x="1194.6" y="1276.8" type="line"/>
			<point x="1286.2" y="961.2" type="line"/>
			<point x="1449.6" y="961.2" type="line"/>
			<point x="1449.6" y="1489.6" type="line"/>
			<point x="1324.2" y="1489.6" type="line"/>
			<point x="1231" y="1370.4" type="line"/>
			<point x="1310" y="1375.8" type="line"/>
			<point x="1194.6" y="1412"/>
			<point x="1081" y="1436.8"/>
			<point x="939.8" y="1436.8" type="curve" smooth="yes"/>
			<point x="408.4" y="1436.8"/>
			<point x="120" y="1163.8"/>
			<point x="115.2" y="696.8" type="curve" smooth="yes"/>
			<point x="110.4" y="219.2"/>
			<point x="395.4" y="-22"/>
			<point x="931.8" y="-22" type="curve" smooth="yes"/>
			<point x="1155.8" y="-22"/>
			<point x="1423.4" y="31.8"/>
			<point x="1599.2" y="119.6" type="curve"/>
			<point x="1599.2" y="225" type="line"/>
		</contour>
	</outline>
	<anchor name="UCtop" x="865.2" y="1414"/>
	<anchor name="bottom" x="932.8" y="0"/>
</glyph>
<glyph name="H" format="2">
  <advance width="1852.3999999999999"/>
  <unicode hex="0048"/>
  <anchor x="926.6" y="1414.0" name="UCtop"/>
  <anchor x="926.6" y="0.0" name="bottom"/>
  <outline>
    <contour>
      <point x="579.1999999999999" y="157.8" type="line"/>
      <point x="579.1999999999999" y="1256.1999999999998" type="line"/>
      <point x="769.5999999999999" y="1302.0" type="line"/>
      <point x="769.5999999999999" y="1414.0" type="line"/>
      <point x="106.8" y="1414.0" type="line"/>
      <point x="106.8" y="1302.0" type="line"/>
      <point x="297.2" y="1256.1999999999998" type="line"/>
      <point x="297.2" y="157.8" type="line"/>
      <point x="106.8" y="112.0" type="line"/>
      <point x="106.8" y="0.0" type="line"/>
      <point x="769.5999999999999" y="0.0" type="line"/>
      <point x="769.5999999999999" y="112.0" type="line"/>
    </contour>
    <contour>
      <point x="1555.2" y="157.8" type="line"/>
      <point x="1555.2" y="1256.1999999999998" type="line"/>
      <point x="1745.6" y="1302.0" type="line"/>
      <point x="1745.6" y="1414.0" type="line"/>
      <point x="1082.8" y="1414.0" type="line"/>
      <point x="1082.8" y="1302.0" type="line"/>
      <point x="1273.2" y="1256.1999999999998" type="line"/>
      <point x="1273.2" y="157.8" type="line"/>
      <point x="1082.8" y="112.0" type="line"/>
      <point x="1082.8" y="0.0" type="line"/>
      <point x="1745.6" y="0.0" type="line"/>
      <point x="1745.6" y="112.0" type="line"/>
    </contour>
    <contour>
      <point x="423.8" y="628.8" type="line"/>
      <point x="1429.8" y="628.8" type="line"/>
      <point x="1429.8" y="812.4" type="line"/>
      <point x="423.8" y="812.4" type="line"/>
    </contour>
  </outline>
</glyph>
<glyph name="I" format="2">
	<unicode hex="0049"/>
	<advance width="876.4"/>
	<outline>
		<contour>
			<point x="769.6" y="112" type="line"/>
			<point x="579.2" y="157.8" type="line"/>
			<point x="579.2" y="1256.2" type="line"/>
			<point x="769.6" y="1302" type="line"/>
			<point x="769.6" y="1414" type="line"/>
			<point x="106.8" y="1414" type="line"/>
			<point x="106.8" y="1302" type="line"/>
			<point x="297.2" y="1256.2" type="line"/>
			<point x="297.2" y="157.8" type="line"/>
			<point x="106.8" y="112" type="line"/>
			<point x="106.8" y="0" type="line"/>
			<point x="769.6" y="0" type="line"/>
		</contour>
	</outline>
	<anchor name="UCtop" x="438.2" y="1414"/>
	<anchor name="right" x="590.2" y="0"/>
	<anchor name="bottom" x="438.2" y="0"/>
</glyph>
<glyph name="J" format="2">
	<unicode hex="004A"/>
	<advance width="1183.4"/>
	<outline>
		<contour>
			<point x="916.2" y="411.8" type="curve" smooth="yes"/>
			<point x="916.2" y="1256.2" type="line"/>
			<point x="1106.6" y="1302" type="line"/>
			<point x="1106.6" y="1414" type="line"/>
			<point x="443.8" y="1414" type="line"/>
			<point x="443.8" y="1302" type="line"/>
			<point x="634.2" y="1256.2" type="line"/>
			<point x="634.2" y="386.8" type="line" smooth="yes"/>
			<point x="634.2" y="225.4"/>
			<point x="561.4" y="167.8"/>
			<point x="407.6" y="167.8" type="curve" smooth="yes"/>
			<point x="252.8" y="167.8"/>
			<point x="194.6" y="300.4"/>
			<point x="149.4" y="300.4" type="curve" smooth="yes"/>
			<point x="77.4" y="300.4"/>
			<point x="30.8" y="249.8"/>
			<point x="30.8" y="171.2" type="curve" smooth="yes"/>
			<point x="30.8" y="63"/>
			<point x="114.4" y="-18"/>
			<point x="386.4" y="-18" type="curve" smooth="yes"/>
			<point x="763" y="-18"/>
			<point x="916.2" y="147.8"/>
		</contour>
	</outline>
	<anchor name="UCtop" x="775.2" y="1414"/>
	<anchor name="bottom" x="515" y="0"/>
</glyph>
<glyph name="K" format="2">
	<unicode hex="004B"/>
	<advance width="1726.2"/>
	<outline>
		<contour>
			<point x="1541.2" y="149.4" type="line"/>
			<point x="930.2" y="853.2" type="line"/>
			<point x="882" y="709" type="line"/>
			<point x="1441.4" y="1255.4" type="line"/>
			<point x="1609" y="1302" type="line"/>
			<point x="1609" y="1414" type="line"/>
			<point x="1048.8" y="1414" type="line"/>
			<point x="1048.8" y="1302" type="line"/>
			<point x="1211.2" y="1263.4" type="line"/>
			<point x="764.6" y="822" type="line"/>
			<point x="490.4" y="822" type="line"/>
			<point x="490.4" y="638.4" type="line"/>
			<point x="748.4" y="638.4" type="line"/>
			<point x="1207.6" y="108" type="line"/>
			<point x="1207.6" y="76" type="line"/>
			<point x="1207.6" y="0" type="line"/>
			<point x="1696.8" y="0" type="line"/>
			<point x="1696.8" y="112" type="line"/>
		</contour>
		<contour>
			<point x="579.2" y="1256.2" type="line"/>
			<point x="769.6" y="1302" type="line"/>
			<point x="769.6" y="1414" type="line"/>
			<point x="106.8" y="1414" type="line"/>
			<point x="106.8" y="1302" type="line"/>
			<point x="297.2" y="1256.2" type="line"/>
			<point x="297.2" y="157.8" type="line"/>
			<point x="106.8" y="112" type="line"/>
			<point x="106.8" y="0" type="line"/>
			<point x="769.6" y="0" type="line"/>
			<point x="769.6" y="112" type="line"/>
			<point x="579.2" y="157.8" type="line"/>
		</contour>
	</outline>
	<anchor name="bottom" x="939.8" y="0"/>
	<anchor name="UCtop" x="881.8" y="1414"/>
</glyph>
<glyph name="L" format="2">
	<unicode hex="004C"/>
	<advance width="1433.4"/>
	<outline>
		<contour>
			<point x="1289.4" y="-78.2" type="line"/>
			<point x="1378.6" y="514.2" type="line"/>
			<point x="1228.4" y="514.2" type="line"/>
			<point x="1045.4" y="87.2" type="line"/>
			<point x="1138" y="183.6" type="line"/>
			<point x="431.2" y="183.6" type="line"/>
			<point x="428.6" y="0" type="line"/>
			<point x="1100.6" y="0" type="line"/>
			<point x="1155" y="-78.2" type="line"/>
		</contour>
		<contour>
			<point x="579.2" y="1256.2" type="line"/>
			<point x="769.6" y="1302" type="line"/>
			<point x="769.6" y="1414" type="line"/>
			<point x="106.8" y="1414" type="line"/>
			<point x="106.8" y="1302" type="line"/>
			<point x="297.2" y="1256.2" type="line"/>
			<point x="297.2" y="157.8" type="line"/>
			<point x="106.8" y="112" type="line"/>
			<point x="106.8" y="0" type="line"/>
			<point x="579.2" y="0" type="line"/>
		</contour>
	</outline>
	<anchor name="UCtop" x="438.2" y="1414"/>
	<anchor name="bottom" x="714.6" y="0"/>
	<anchor name="mid" x="1151.8" y="788.4"/>
	<anchor name="right" x="834.6" y="1414"/>
</glyph>
<glyph name="M" format="2">
	<unicode hex="004D"/>
	<advance width="2267.4"/>
	<outline>
		<contour>
			<point x="1998" y="159.8" type="line"/>
			<point x="1928" y="1245" type="line"/>
			<point x="2117.6" y="1302" type="line"/>
			<point x="2117.6" y="1414" type="line"/>
			<point x="1521.2" y="1414" type="line"/>
			<point x="1123.6" y="210.4" type="line"/>
			<point x="1141.6" y="210.4" type="line"/>
			<point x="747.2" y="1414" type="line"/>
			<point x="136.8" y="1414" type="line"/>
			<point x="136.8" y="1302" type="line"/>
			<point x="338" y="1238" type="line"/>
			<point x="262.2" y="158.4" type="line"/>
			<point x="94.2" y="112" type="line"/>
			<point x="94.2" y="0" type="line"/>
			<point x="624" y="0" type="line"/>
			<point x="624" y="112" type="line"/>
			<point x="451.6" y="157.6" type="line"/>
			<point x="522.8" y="1234" type="line"/>
			<point x="511.4" y="1232.2" type="line"/>
			<point x="924.4" y="0" type="line"/>
			<point x="1231.8" y="0" type="line"/>
			<point x="1655" y="1243.8" type="line"/>
			<point x="1642" y="1245.6" type="line"/>
			<point x="1714.4" y="157.6" type="line"/>
			<point x="1540.6" y="112" type="line"/>
			<point x="1540.6" y="0" type="line"/>
			<point x="2181.8" y="0" type="line"/>
			<point x="2181.8" y="112" type="line"/>
		</contour>
	</outline>
	<anchor name="UCtop" x="1137.6" y="1414"/>
	<anchor name="bottom" x="1095.6" y="0"/>
</glyph>
<glyph name="N" format="2">
	<unicode hex="004E"/>
	<advance width="1781.8"/>
	<outline>
		<contour>
			<point x="296.8" y="157.4" type="line"/>
			<point x="112.8" y="112" type="line"/>
			<point x="112.8" y="0" type="line"/>
			<point x="688" y="0" type="line"/>
			<point x="688" y="112" type="line"/>
			<point x="489.6" y="157.4" type="line"/>
			<point x="489.6" y="1298" type="line"/>
			<point x="429.6" y="1290.4" type="line"/>
			<point x="1157.2" y="0" type="line"/>
			<point x="1508.8" y="0" type="line"/>
			<point x="1508.8" y="1256.6" type="line"/>
			<point x="1692.8" y="1302" type="line"/>
			<point x="1692.8" y="1414" type="line"/>
			<point x="1117.6" y="1414" type="line"/>
			<point x="1117.6" y="1302" type="line"/>
			<point x="1316" y="1256.6" type="line"/>
			<point x="1316" y="94.8" type="line"/>
			<point x="1382.2" y="154.2" type="line"/>
			<point x="669.8" y="1414" type="line"/>
			<point x="108.8" y="1414" type="line"/>
			<point x="108.8" y="1302" type="line"/>
			<point x="296.8" y="1252.6" type="line"/>
		</contour>
	</outline>
	<anchor name="UCtop" x="922.8" y="1414"/>
	<anchor name="bottom" x="926.8" y="0"/>
</glyph>
<glyph name="O" format="2">
  <advance width="1714.6000000000001"/>
  <unicode hex="004F"/>
  <anchor x="857.1999999999999" y="1414.0" name="UCtop"/>
  <anchor x="857.1999999999999" y="0.0" name="bottom"/>
  <anchor x="1185.0" y="1414.0" name="horn"/>
  <anchor x="1043.2" y="0.0" name="right"/>
  <outline>
    <contour>
      <point x="862.5999999999999" y="1436.0" type="curve" smooth="yes"/>
      <point x="400.40000000000003" y="1436.0"/>
      <point x="113.6" y="1143.3999999999999"/>
      <point x="113.6" y="705.2" type="curve" smooth="yes"/>
      <point x="113.6" y="270.0"/>
      <point x="392.59999999999997" y="-21.8"/>
      <point x="852.0" y="-21.8" type="curve" smooth="yes"/>
      <point x="1314.2" y="-21.8"/>
      <point x="1601.0" y="270.8"/>
      <point x="1601.0" y="709.0" type="curve" smooth="yes"/>
      <point x="1601.0" y="1144.2"/>
      <point x="1322.0" y="1436.0"/>
    </contour>
    <contour>
      <point x="864.2" y="172.6" type="curve" smooth="yes"/>
      <point x="554.6" y="172.6"/>
      <point x="402.6" y="377.8"/>
      <point x="402.6" y="745.8000000000001" type="curve" smooth="yes"/>
      <point x="402.6" y="1063.4"/>
      <point x="554.6" y="1241.6"/>
      <point x="850.4" y="1241.6" type="curve" smooth="yes"/>
      <point x="1160.0" y="1241.6"/>
      <point x="1312.0" y="1036.4"/>
      <point x="1312.0" y="668.4" type="curve" smooth="yes"/>
      <point x="1312.0" y="350.8"/>
      <point x="1160.0" y="172.6"/>
    </contour>
  </outline>
</glyph>
<glyph name="P" format="2">
	<unicode hex="0050"/>
	<advance width="1467.6"/>
	<outline>
		<contour>
			<point x="1107.4" y="980.8" type="curve" smooth="yes"/>
			<point x="1107.4" y="800.8"/>
			<point x="1012.2" y="727"/>
			<point x="841" y="727" type="curve" smooth="yes"/>
			<point x="422" y="727" type="line"/>
			<point x="383" y="546.2" type="line"/>
			<point x="873" y="546.2" type="line" smooth="yes"/>
			<point x="1246.2" y="546.2"/>
			<point x="1390" y="727.2"/>
			<point x="1390" y="984" type="curve" smooth="yes"/>
			<point x="1390" y="1247.4"/>
			<point x="1243.8" y="1414"/>
			<point x="838.6" y="1414" type="curve" smooth="yes"/>
			<point x="389.6" y="1414" type="line"/>
			<point x="422" y="1230.4" type="line"/>
			<point x="775.4" y="1230.4" type="line" smooth="yes"/>
			<point x="1035.4" y="1230.4"/>
			<point x="1107.4" y="1148.8"/>
		</contour>
		<contour>
			<point x="579.2" y="1414" type="line"/>
			<point x="106.8" y="1414" type="line"/>
			<point x="106.8" y="1302" type="line"/>
			<point x="297.2" y="1256.2" type="line"/>
			<point x="297.2" y="157.8" type="line"/>
			<point x="106.8" y="112" type="line"/>
			<point x="106.8" y="0" type="line"/>
			<point x="769.6" y="0" type="line"/>
			<point x="769.6" y="112" type="line"/>
			<point x="579.2" y="157.8" type="line"/>
		</contour>
	</outline>
	<anchor name="UCtop" x="780" y="1414"/>
	<anchor name="bottom" x="438.2" y="0"/>
</glyph>
<glyph name="Q" format="2">
	<unicode hex="0051"/>
	<advance width="1714.6"/>
	<outline>
		<contour>
			<point x="745.8" y="-251.8" type="line" smooth="yes"/>
			<point x="903.6" y="-408.6"/>
			<point x="1008" y="-465"/>
			<point x="1209.8" y="-465" type="curve" smooth="yes"/>
			<point x="1323.4" y="-465"/>
			<point x="1379.4" y="-456.6"/>
			<point x="1453.2" y="-442.8" type="curve"/>
			<point x="1453.2" y="-301" type="line"/>
			<point x="1261.2" y="-316.2"/>
			<point x="1204.8" y="-297.8"/>
			<point x="1025.6" y="-160" type="curve" smooth="yes"/>
			<point x="652.2" y="127.4" type="line"/>
			<point x="602.4" y="82" type="line"/>
			<point x="1143.6" y="-115.4"/>
			<point x="1601" y="200.2"/>
			<point x="1601" y="709" type="curve" smooth="yes"/>
			<point x="1601" y="1144.2"/>
			<point x="1322" y="1436"/>
			<point x="862.6" y="1436" type="curve" smooth="yes"/>
			<point x="400.4" y="1436"/>
			<point x="113.6" y="1143.4"/>
			<point x="113.6" y="705.2" type="curve" smooth="yes"/>
			<point x="113.6" y="463.8"/>
			<point x="199.6" y="281"/>
			<point x="350" y="133.4" type="curve" smooth="yes"/>
		</contour>
		<contour>
			<point x="864.2" y="175.8" type="curve" smooth="yes"/>
			<point x="554.6" y="175.8"/>
			<point x="402.6" y="380"/>
			<point x="402.6" y="745.8" type="curve" smooth="yes"/>
			<point x="402.6" y="1063.4"/>
			<point x="554.6" y="1241.6"/>
			<point x="850.4" y="1241.6" type="curve" smooth="yes"/>
			<point x="1160" y="1241.6"/>
			<point x="1312" y="1036.4"/>
			<point x="1312" y="668.4" type="curve" smooth="yes"/>
			<point x="1312" y="353.2"/>
			<point x="1160" y="175.8"/>
		</contour>
	</outline>
	<anchor name="UCtop" x="857.2" y="1414"/>
	<anchor name="bottom" x="863.2" y="-443"/>
</glyph>
<glyph name="R" format="2">
	<unicode hex="0052"/>
	<advance width="1604.8"/>
	<outline>
		<contour>
			<point x="872.6" y="784.8" type="curve" smooth="yes"/>
			<point x="440" y="784.8" type="line"/>
			<point x="440" y="616.6" type="line"/>
			<point x="826.8" y="616.6" type="line" smooth="yes"/>
			<point x="989.8" y="616.6"/>
			<point x="1025.8" y="575.2"/>
			<point x="1054.2" y="422.2" type="curve" smooth="yes"/>
			<point x="1094" y="207" type="line" smooth="yes"/>
			<point x="1129.8" y="15"/>
			<point x="1185.4" y="-15.6"/>
			<point x="1535.2" y="0" type="curve"/>
			<point x="1535.2" y="130.4" type="line"/>
			<point x="1422.4" y="130.4"/>
			<point x="1398" y="147.6"/>
			<point x="1374.4" y="270.6" type="curve" smooth="yes"/>
			<point x="1331.6" y="483.6" type="line" smooth="yes"/>
			<point x="1305.8" y="623.4"/>
			<point x="1246.8" y="692.2"/>
			<point x="1054.2" y="706.6" type="curve"/>
			<point x="1054.2" y="698" type="line"/>
			<point x="1295.2" y="733.4"/>
			<point x="1403.2" y="864.8"/>
			<point x="1403.2" y="1059.2" type="curve" smooth="yes"/>
			<point x="1403.2" y="1275.2"/>
			<point x="1278.6" y="1414"/>
			<point x="914.6" y="1414" type="curve" smooth="yes"/>
			<point x="440" y="1414" type="line"/>
			<point x="440" y="1230.4" type="line"/>
			<point x="812.2" y="1230.4" type="line" smooth="yes"/>
			<point x="1056.8" y="1230.4"/>
			<point x="1123.6" y="1159.2"/>
			<point x="1123.6" y="1008.6" type="curve" smooth="yes"/>
			<point x="1123.6" y="849.6"/>
			<point x="1034.2" y="784.8"/>
		</contour>
		<contour>
			<point x="579.2" y="1414" type="line"/>
			<point x="106.8" y="1414" type="line"/>
			<point x="106.8" y="1302" type="line"/>
			<point x="297.2" y="1256.2" type="line"/>
			<point x="297.2" y="157.8" type="line"/>
			<point x="106.8" y="112" type="line"/>
			<point x="106.8" y="0" type="line"/>
			<point x="763.6" y="0" type="line"/>
			<point x="763.6" y="112" type="line"/>
			<point x="579.2" y="157.8" type="line"/>
		</contour>
	</outline>
	<anchor name="UCtop" x="797" y="1414"/>
	<anchor name="bottom" x="873" y="0"/>
</glyph>
<glyph name="S" format="2">
  <advance width="1361"/>
  <unicode hex="0053"/>
  <anchor x="661.4000000000001" y="1414.0" name="UCtop"/>
  <anchor x="685.4000000000001" y="0.0" name="bottom"/>
  <outline>
    <contour>
      <point x="1110.4" y="1351.2" type="line"/>
      <point x="980.0" y="1412.2"/>
      <point x="863.4" y="1436.0"/>
      <point x="716.4000000000001" y="1436.0" type="curve" smooth="yes"/>
      <point x="349.0" y="1436.0"/>
      <point x="141.6" y="1302.0"/>
      <point x="141.6" y="1032.8" type="curve" smooth="yes"/>
      <point x="141.6" y="733.2"/>
      <point x="352.0" y="665.5999999999999"/>
      <point x="558.0" y="624.4" type="curve" smooth="yes"/>
      <point x="764.0" y="583.2"/>
      <point x="970.4" y="566.1999999999999"/>
      <point x="970.4" y="376.79999999999995" type="curve" smooth="yes"/>
      <point x="970.4" y="212.79999999999998"/>
      <point x="859.0" y="151.4"/>
      <point x="592.0" y="151.4" type="curve" smooth="yes"/>
      <point x="443.2" y="151.4"/>
      <point x="351.4" y="171.2"/>
      <point x="231.2" y="226.8" type="curve"/>
      <point x="469.2" y="40.2" type="line"/>
      <point x="281.6" y="443.20000000000005" type="line"/>
      <point x="123.4" y="443.20000000000005" type="line"/>
      <point x="178.0" y="29.2" type="line"/>
      <point x="312.8" y="-14.4"/>
      <point x="436.6" y="-22.0"/>
      <point x="603.1999999999999" y="-22.0" type="curve" smooth="yes"/>
      <point x="1006.4" y="-22.0"/>
      <point x="1236.4" y="107.80000000000001"/>
      <point x="1236.4" y="420.0" type="curve" smooth="yes"/>
      <point x="1236.4" y="756.8"/>
      <point x="985.0" y="811.4"/>
      <point x="779.2" y="848.6" type="curve" smooth="yes"/>
      <point x="573.4000000000001" y="885.8"/>
      <point x="404.0" y="909.4000000000001"/>
      <point x="404.0" y="1076.8" type="curve" smooth="yes"/>
      <point x="404.0" y="1218.3999999999999"/>
      <point x="519.6" y="1265.6"/>
      <point x="710.8000000000001" y="1265.6" type="curve" smooth="yes"/>
      <point x="826.8000000000001" y="1265.6"/>
      <point x="918.0" y="1245.6000000000001"/>
      <point x="1002.2" y="1190.8" type="curve"/>
      <point x="929.0" y="1271.0" type="line"/>
      <point x="1018.0" y="987.8" type="line"/>
      <point x="1182.8000000000002" y="987.8" type="line"/>
      <point x="1182.8" y="1489.6" type="line"/>
      <point x="1054.8000000000002" y="1489.6" type="line"/>
      <point x="961.0" y="1366.8" type="line"/>
    </contour>
  </outline>
</glyph>
<glyph name="T" format="2">
	<unicode hex="0054"/>
	<advance width="1588"/>
	<outline>
		<contour>
			<point x="653" y="1351.8" type="line"/>
			<point x="653" y="157.8" type="line"/>
			<point x="446.6" y="112" type="line"/>
			<point x="446.6" y="0" type="line"/>
			<point x="1141.4" y="0" type="line"/>
			<point x="1141.4" y="112" type="line"/>
			<point x="935" y="157.8" type="line"/>
			<point x="935" y="1351.8" type="line"/>
		</contour>
		<contour>
			<point x="1305.2" y="1230.4" type="line"/>
			<point x="1234.4" y="1290.2" type="line"/>
			<point x="1369.4" y="931.6" type="line"/>
			<point x="1529.6" y="931.6" type="line"/>
			<point x="1454.4" y="1506" type="line"/>
			<point x="1334.6" y="1506" type="line"/>
			<point x="1246.4" y="1385.8" type="line"/>
			<point x="1380" y="1414" type="line"/>
			<point x="207.8" y="1414" type="line"/>
			<point x="341.6" y="1385.8" type="line"/>
			<point x="253.4" y="1506" type="line"/>
			<point x="133.6" y="1506" type="line"/>
			<point x="58.4" y="931.6" type="line"/>
			<point x="218.6" y="931.6" type="line"/>
			<point x="353.6" y="1290.2" type="line"/>
			<point x="282.8" y="1230.4" type="line"/>
		</contour>
	</outline>
	<anchor name="UCtop" x="794" y="1414"/>
	<anchor name="bottom" x="794" y="0"/>
</glyph>
<glyph name="U" format="2">
  <advance width="1742"/>
  <unicode hex="0055"/>
  <anchor x="915.0" y="1414.0" name="UCtop"/>
  <anchor x="1077.8" y="0.0" name="right"/>
  <anchor x="885.0" y="0.0" name="bottom"/>
  <anchor x="1535.8" y="1414.0" name="horn"/>
  <outline>
    <contour>
      <point x="1292.6000000000001" y="524.0" type="line" smooth="yes"/>
      <point x="1292.6000000000001" y="287.6"/>
      <point x="1169.3999999999999" y="191.6"/>
      <point x="923.2" y="191.6" type="curve" smooth="yes"/>
      <point x="666.0" y="191.6"/>
      <point x="538.4" y="293.8"/>
      <point x="538.4" y="530.6" type="curve" smooth="yes"/>
      <point x="538.4" y="1256.6" type="line"/>
      <point x="728.8" y="1302.0" type="line"/>
      <point x="728.8" y="1414.0" type="line"/>
      <point x="66.0" y="1414.0" type="line"/>
      <point x="66.0" y="1302.0" type="line"/>
      <point x="256.40000000000003" y="1256.6" type="line"/>
      <point x="256.40000000000003" y="523.1999999999999" type="line" smooth="yes"/>
      <point x="256.40000000000003" y="146.8"/>
      <point x="468.20000000000005" y="-22.0"/>
      <point x="892.8" y="-22.0" type="curve" smooth="yes"/>
      <point x="1273.8" y="-22.0"/>
      <point x="1485.4" y="160.4"/>
      <point x="1485.4" y="525.6" type="curve" smooth="yes"/>
      <point x="1485.4" y="1256.6" type="line"/>
      <point x="1675.8" y="1302.0" type="line"/>
      <point x="1675.8" y="1414.0" type="line"/>
      <point x="1102.2" y="1414.0" type="line"/>
      <point x="1102.2" y="1302.0" type="line"/>
      <point x="1292.6000000000001" y="1256.6" type="line"/>
    </contour>
  </outline>
</glyph>
<glyph name="V" format="2">
	<unicode hex="0056"/>
	<advance width="1684.2"/>
	<outline>
		<contour>
			<point x="189" y="1255.4" type="line"/>
			<point x="695.8" y="-16" type="line"/>
			<point x="1034" y="-16" type="line"/>
			<point x="1493.6" y="1259.4" type="line"/>
			<point x="1661.6" y="1302" type="line"/>
			<point x="1661.6" y="1414" type="line"/>
			<point x="1107.2" y="1414" type="line"/>
			<point x="1107.2" y="1302" type="line"/>
			<point x="1287.4" y="1258.2" type="line"/>
			<point x="898" y="104.4" type="line"/>
			<point x="944.2" y="104.4" type="line"/>
			<point x="497.8" y="1259.4" type="line"/>
			<point x="678.6" y="1302" type="line"/>
			<point x="678.6" y="1414" type="line"/>
			<point x="3.2" y="1414" type="line"/>
			<point x="3.2" y="1302" type="line"/>
		</contour>
	</outline>
	<anchor name="UCtop" x="892.4" y="1414"/>
	<anchor name="bottom" x="862.4" y="0"/>
</glyph>
<glyph name="W" format="2">
	<unicode hex="0057"/>
	<advance width="2321"/>
	<outline>
		<contour>
			<point x="1193" y="1175.6" type="line"/>
			<point x="1157.4" y="1175.6" type="line"/>
			<point x="1511.2" y="0" type="line"/>
			<point x="1857.4" y="0" type="line"/>
			<point x="2126.6" y="1260" type="line"/>
			<point x="2294.6" y="1302" type="line"/>
			<point x="2294.6" y="1414" type="line"/>
			<point x="1753.4" y="1414" type="line"/>
			<point x="1753.4" y="1302" type="line"/>
			<point x="1927.6" y="1258.8" type="line"/>
			<point x="1705.2" y="74.6" type="line"/>
			<point x="1782.2" y="82.6" type="line"/>
			<point x="1376.4" y="1414" type="line"/>
			<point x="1064" y="1414" type="line"/>
			<point x="678.8" y="106.2" type="line"/>
			<point x="733.8" y="110" type="line"/>
			<point x="512" y="1260" type="line"/>
			<point x="686.8" y="1302" type="line"/>
			<point x="686.8" y="1414" type="line"/>
			<point x="20.6" y="1414" type="line"/>
			<point x="20.6" y="1302" type="line"/>
			<point x="205.6" y="1256" type="line"/>
			<point x="465.2" y="0" type="line"/>
			<point x="828.6" y="0" type="line"/>
		</contour>
	</outline>
	<anchor name="UCtop" x="1201.6" y="1414"/>
	<anchor name="bottom" x="1187.6" y="0"/>
</glyph>
<glyph name="X" format="2">
	<unicode hex="0058"/>
	<advance width="1744"/>
	<outline>
		<contour>
			<point x="864.6" y="655.6" type="line"/>
			<point x="988.8" y="681.4" type="line"/>
			<point x="1473.8" y="1256" type="line"/>
			<point x="1636.4" y="1302" type="line"/>
			<point x="1636.4" y="1414" type="line"/>
			<point x="1086.6" y="1414" type="line"/>
			<point x="1086.6" y="1302" type="line"/>
			<point x="1248" y="1258" type="line"/>
			<point x="887.6" y="815" type="line"/>
			<point x="751.4" y="782.2" type="line"/>
			<point x="216" y="158" type="line"/>
			<point x="53.4" y="112" type="line"/>
			<point x="53.4" y="0" type="line"/>
			<point x="613.8" y="0" type="line"/>
			<point x="613.8" y="112" type="line"/>
			<point x="448.4" y="156" type="line"/>
		</contour>
		<contour>
			<point x="1161.2" y="158" type="line"/>
			<point x="985.2" y="112" type="line"/>
			<point x="985.2" y="0" type="line"/>
			<point x="1713.2" y="0" type="line"/>
			<point x="1713.2" y="112" type="line"/>
			<point x="1547.2" y="159.6" type="line"/>
			<point x="1001.8" y="807.4" type="line"/>
			<point x="972.4" y="842.4" type="line"/>
			<point x="629.8" y="1256" type="line"/>
			<point x="805.8" y="1302" type="line"/>
			<point x="805.8" y="1414" type="line"/>
			<point x="77.8" y="1414" type="line"/>
			<point x="77.8" y="1302" type="line"/>
			<point x="243.8" y="1254.4" type="line"/>
			<point x="726.4" y="682.2" type="line"/>
			<point x="758.8" y="642.6" type="line"/>
		</contour>
	</outline>
	<anchor name="UCtop" x="880.6" y="1414"/>
	<anchor name="bottom" x="856.6" y="0"/>
</glyph>
<glyph name="Y" format="2">
  <advance width="1617.1999999999998"/>
  <unicode hex="0059"/>
  <anchor x="848.4" y="1414.0" name="UCtop"/>
  <anchor x="829.8000000000001" y="0.0" name="bottom"/>
  <outline>
    <contour>
      <point x="172.20000000000002" y="1258.2" type="line"/>
      <point x="688.8" y="584.8" type="line"/>
      <point x="688.8" y="157.8" type="line"/>
      <point x="498.4" y="112.0" type="line"/>
      <point x="498.4" y="0.0" type="line"/>
      <point x="1161.2" y="0.0" type="line"/>
      <point x="1161.2" y="112.0" type="line"/>
      <point x="970.8" y="157.8" type="line"/>
      <point x="970.8" y="593.2" type="line"/>
      <point x="1438.6" y="1258.2" type="line"/>
      <point x="1583.8" y="1302.0" type="line"/>
      <point x="1583.8" y="1414.0" type="line"/>
      <point x="1045.2" y="1414.0" type="line"/>
      <point x="1045.2" y="1302.0" type="line"/>
      <point x="1227.2" y="1258.2" type="line"/>
      <point x="858.0" y="720.0" type="line"/>
      <point x="923.4" y="722.4" type="line"/>
      <point x="524.6" y="1258.2" type="line"/>
      <point x="700.0" y="1302.0" type="line"/>
      <point x="700.0" y="1414.0" type="line"/>
      <point x="9.0" y="1414.0" type="line"/>
      <point x="9.0" y="1302.0" type="line"/>
    </contour>
  </outline>
</glyph>
<glyph name="Z" format="2">
	<unicode hex="005A"/>
	<advance width="1438.4"/>
	<outline>
		<contour>
			<point x="1281.6" y="1414" type="line"/>
			<point x="336" y="1414" type="line"/>
			<point x="248.8" y="1488.2" type="line"/>
			<point x="133.2" y="1488.2" type="line"/>
			<point x="133.2" y="974.4" type="line"/>
			<point x="277.6" y="974.4" type="line"/>
			<point x="347.4" y="1230.4" type="line"/>
			<point x="1093.6" y="1230.4" type="line"/>
			<point x="977.4" y="1280" type="line"/>
			<point x="127" y="163.6" type="line"/>
			<point x="127" y="0" type="line"/>
			<point x="1085.2" y="0" type="line"/>
			<point x="1138.2" y="-78.4" type="line"/>
			<point x="1270.8" y="-78.4" type="line"/>
			<point x="1353.2" y="465.4" type="line"/>
			<point x="1213" y="465.4" type="line"/>
			<point x="1077.6" y="183.6" type="line"/>
			<point x="326.2" y="183.6" type="line"/>
			<point x="430.4" y="133" type="line"/>
			<point x="1281.6" y="1250.6" type="line"/>
		</contour>
	</outline>
	<anchor name="UCtop" x="742.8" y="1414"/>
	<anchor name="bottom" x="688.8" y="0"/>
</glyph>
<glyph name="bracketleft" format="2">
	<unicode hex="005B"/>
	<advance width="802.2"/>
	<outline>
		<contour>
			<point x="213.6" y="-221" type="line"/>
			<point x="737.6" y="-221" type="line"/>
			<point x="737.6" y="-76" type="line"/>
			<point x="448" y="-76" type="line"/>
			<point x="448" y="1319" type="line"/>
			<point x="737.6" y="1319" type="line"/>
			<point x="737.6" y="1464" type="line"/>
			<point x="213.6" y="1464" type="line"/>
		</contour>
	</outline>
</glyph>
<glyph name="backslash" format="2">
	<unicode hex="005C"/>
	<advance width="917.4"/>
	<outline>
		<contour>
			<point x="858.4" y="0" type="line"/>
			<point x="268.2" y="1414" type="line"/>
			<point x="56.2" y="1414" type="line"/>
			<point x="647.2" y="0" type="line"/>
		</contour>
	</outline>
</glyph>
<glyph name="bracketright" format="2">
  <advance width="802.2"/>
  <unicode hex="005D"/>
  <outline>
    <contour>
      <point x="588.6" y="1464.8" type="line"/>
      <point x="64.60000000000001" y="1464.8" type="line"/>
      <point x="64.60000000000001" y="1319.8" type="line"/>
      <point x="354.2" y="1319.8" type="line"/>
      <point x="354.2" y="-75.19999999999999" type="line"/>
      <point x="64.60000000000001" y="-75.19999999999999" type="line"/>
      <point x="64.60000000000001" y="-220.2" type="line"/>
      <point x="588.6" y="-220.2" type="line"/>
    </contour>
  </outline>
</glyph>
<glyph name="a" format="2">
	<unicode hex="0061"/>
	<advance width="1230.4"/>
	<outline>
		<contour>
			<point x="876.6" y="657.2" type="line"/>
			<point x="225.2" y="574.4"/>
			<point x="108.4" y="463.2"/>
			<point x="108.4" y="258.2" type="curve" smooth="yes"/>
			<point x="108.4" y="77"/>
			<point x="224" y="-22"/>
			<point x="434" y="-22" type="curve" smooth="yes"/>
			<point x="627.6" y="-22"/>
			<point x="741.8" y="82.8"/>
			<point x="774.8" y="278.4" type="curve"/>
			<point x="765.4" y="275.2" type="line"/>
			<point x="774" y="70"/>
			<point x="849.4" y="-18"/>
			<point x="986" y="-18" type="curve" smooth="yes"/>
			<point x="1064.2" y="-18"/>
			<point x="1148.6" y="12.4"/>
			<point x="1217.4" y="69.4" type="curve"/>
			<point x="1217.4" y="169.6" type="line"/>
			<point x="1180.6" y="162.2"/>
			<point x="1148.4" y="157.8"/>
			<point x="1120.8" y="157.8" type="curve" smooth="yes"/>
			<point x="1051.6" y="157.8"/>
			<point x="1015" y="185.6"/>
			<point x="1015" y="261" type="curve" smooth="yes"/>
			<point x="1015" y="727" type="line" smooth="yes"/>
			<point x="1015" y="926.6"/>
			<point x="914.4" y="1050"/>
			<point x="630.2" y="1050" type="curve" smooth="yes"/>
			<point x="318.8" y="1050"/>
			<point x="108.2" y="891.4"/>
			<point x="108.2" y="794.4" type="curve" smooth="yes"/>
			<point x="108.2" y="747.6"/>
			<point x="151.8" y="711.4"/>
			<point x="238.4" y="711.4" type="curve" smooth="yes"/>
			<point x="304.4" y="711.4"/>
			<point x="343" y="720.2"/>
			<point x="366" y="775" type="curve" smooth="yes"/>
			<point x="389" y="829.4"/>
			<point x="404.8" y="879.2"/>
			<point x="424.4" y="962.2" type="curve"/>
			<point x="352.4" y="886.2" type="line"/>
			<point x="405" y="897.4"/>
			<point x="464.8" y="904.4"/>
			<point x="548.6" y="904.4" type="curve" smooth="yes"/>
			<point x="709.6" y="904.4"/>
			<point x="762.6" y="839.8"/>
			<point x="762.6" y="693.2" type="curve" smooth="yes"/>
			<point x="762.6" y="327.2" type="line" smooth="yes"/>
			<point x="762.6" y="233.8"/>
			<point x="667.6" y="165.8"/>
			<point x="542.4" y="165.8" type="curve" smooth="yes"/>
			<point x="425.6" y="165.8"/>
			<point x="374.8" y="210.6"/>
			<point x="374.8" y="304.8" type="curve" smooth="yes"/>
			<point x="374.8" y="417.6"/>
			<point x="430.4" y="470"/>
			<point x="839" y="521" type="curve"/>
		</contour>
	</outline>
	<anchor name="top" x="585.6" y="1028"/>
	<anchor name="right" x="1217.4" y="0"/>
	<anchor name="bottom" x="608" y="0"/>
</glyph>
<glyph name="b" format="2">
	<unicode hex="0062"/>
	<advance width="1353"/>
	<outline>
		<contour>
			<point x="392.8" y="243.2" type="line"/>
			<point x="449.4" y="50.2"/>
			<point x="573.2" y="-24.4"/>
			<point x="757.4" y="-24.4" type="curve" smooth="yes"/>
			<point x="1053.2" y="-24.4"/>
			<point x="1253.6" y="184"/>
			<point x="1253.6" y="554" type="curve" smooth="yes"/>
			<point x="1253.6" y="862.8"/>
			<point x="1086" y="1050"/>
			<point x="787.2" y="1050" type="curve" smooth="yes"/>
			<point x="709" y="1050"/>
			<point x="606.8" y="1019.4"/>
			<point x="355" y="881.8" type="curve"/>
			<point x="355" y="782.4" type="line"/>
			<point x="455.8" y="826.8"/>
			<point x="568.2" y="852.2"/>
			<point x="675.2" y="852.2" type="curve" smooth="yes"/>
			<point x="884.8" y="852.2"/>
			<point x="989.2" y="748.2"/>
			<point x="989.2" y="528" type="curve" smooth="yes"/>
			<point x="989.2" y="266.6"/>
			<point x="878" y="144"/>
			<point x="694" y="144" type="curve" smooth="yes"/>
			<point x="524.2" y="144"/>
			<point x="439.4" y="222.8"/>
			<point x="439.4" y="407" type="curve" smooth="yes"/>
			<point x="439.4" y="1261.2" type="line"/>
			<point x="460.6" y="1486" type="line"/>
			<point x="402.6" y="1486" type="line"/>
			<point x="-25.4" y="1410.4" type="line"/>
			<point x="-25.4" y="1320.8" type="line"/>
			<point x="52.6" y="1287.6326086957"/>
			<point x="159.8" y="1243.7891304348"/>
			<point x="185.8" y="1233" type="curve"/>
			<point x="185.8" y="296.8" type="line"/>
			<point x="119.4" y="0" type="line"/>
			<point x="304.2" y="0" type="line"/>
			<point x="448.4" y="243.2" type="line"/>
		</contour>
	</outline>
	<anchor name="UCtop" x="708.4" y="1414"/>
	<anchor name="bottom" x="665.6" y="0"/>
</glyph>
<glyph name="c" format="2">
	<unicode hex="0063"/>
	<advance width="1124.4"/>
	<outline>
		<contour>
			<point x="705.8" y="1050" type="curve" smooth="yes"/>
			<point x="322.1176470588" y="1050"/>
			<point x="96.6" y="846"/>
			<point x="96.6" y="499.2" type="curve" smooth="yes"/>
			<point x="96.6" y="160.4"/>
			<point x="298.4" y="-22"/>
			<point x="609.6" y="-22" type="curve" smooth="yes"/>
			<point x="727.4" y="-22"/>
			<point x="872" y="30"/>
			<point x="1027" y="132.8" type="curve"/>
			<point x="1027" y="250" type="line"/>
			<point x="909.8" y="205.4"/>
			<point x="801.8" y="182"/>
			<point x="692.8" y="182" type="curve" smooth="yes"/>
			<point x="454.8" y="182"/>
			<point x="339.4" y="301.2"/>
			<point x="339.4" y="566.8" type="curve" smooth="yes"/>
			<point x="339.4" y="797.2"/>
			<point x="447.2468227425" y="901.2"/>
			<point x="627.6" y="901.2" type="curve" smooth="yes"/>
			<point x="693.4" y="901.2"/>
			<point x="879.6" y="714.4"/>
			<point x="911.6" y="714.4" type="curve" smooth="yes"/>
			<point x="989.4" y="714.4"/>
			<point x="1054.2" y="781.2"/>
			<point x="1054.2" y="865" type="curve" smooth="yes"/>
			<point x="1054.2" y="952.6"/>
			<point x="973.2" y="1050"/>
		</contour>
	</outline>
	<anchor name="top" x="611" y="1028"/>
	<anchor name="right" x="1031.8" y="0"/>
	<anchor name="bottom" x="591.4" y="0"/>
</glyph>
<glyph name="d" format="2">
	<unicode hex="0064"/>
	<advance width="1387.6"/>
	<outline>
		<contour>
			<point x="912.2" y="665.2" type="curve" smooth="yes"/>
			<point x="912.2" y="198.6" type="line"/>
			<point x="993.2" y="-22" type="line"/>
			<point x="1036.2" y="-22" type="line"/>
			<point x="1346.6" y="104.6" type="line"/>
			<point x="1346.6" y="156.2" type="line"/>
			<point x="1304.6" y="179.2173913043"/>
			<point x="1189.8" y="241.4472049689"/>
			<point x="1165.8" y="254.6" type="curve"/>
			<point x="1165.8" y="1261.2" type="line"/>
			<point x="1187" y="1486" type="line"/>
			<point x="1129" y="1486" type="line"/>
			<point x="701" y="1410.4" type="line"/>
			<point x="701" y="1320.8" type="line"/>
			<point x="758" y="1299.7137514958"/>
			<point x="888.2" y="1251.8784204228"/>
			<point x="912.2" y="1243" type="curve"/>
			<point x="912.2" y="904.4" type="line"/>
			<point x="1064.4" y="942.8" type="line"/>
			<point x="930.8" y="1022.6"/>
			<point x="831.4" y="1050"/>
			<point x="683" y="1050" type="curve" smooth="yes"/>
			<point x="349" y="1050"/>
			<point x="98" y="828.2"/>
			<point x="98" y="474" type="curve" smooth="yes"/>
			<point x="98" y="166.6"/>
			<point x="252" y="-22"/>
			<point x="555.6" y="-22" type="curve" smooth="yes"/>
			<point x="635.4" y="-22"/>
			<point x="704.8" y="-1"/>
			<point x="996.6" y="211.8" type="curve"/>
			<point x="996.6" y="253.6" type="line"/>
			<point x="889.4" y="202.8"/>
			<point x="783.4" y="175.8"/>
			<point x="676.4" y="175.8" type="curve" smooth="yes"/>
			<point x="467.6" y="175.8"/>
			<point x="362.4" y="278.8"/>
			<point x="362.4" y="516.2" type="curve" smooth="yes"/>
			<point x="362.4" y="760.4"/>
			<point x="473.2" y="890"/>
			<point x="677.6" y="890" type="curve" smooth="yes"/>
			<point x="851.8" y="890"/>
			<point x="912.2" y="810.2"/>
		</contour>
	</outline>
	<anchor name="right" x="1166" y="1454"/>
	<anchor name="UCtop" x="652.8" y="1454"/>
	<anchor name="bottom" x="706.8" y="0"/>
	<anchor name="center" x="975.6" y="1177.4"/>
</glyph>
<glyph name="e" format="2">
	<unicode hex="0065"/>
	<advance width="1171.6"/>
	<outline>
		<contour>
			<point x="608.2" y="1050" type="curve" smooth="yes"/>
			<point x="294.2" y="1050"/>
			<point x="97.8" y="836"/>
			<point x="97.8" y="499.2" type="curve" smooth="yes"/>
			<point x="97.8" y="160.4"/>
			<point x="299.2" y="-22"/>
			<point x="625.8" y="-22" type="curve" smooth="yes"/>
			<point x="747.6" y="-22"/>
			<point x="906.8" y="33.4"/>
			<point x="1059.6" y="132.8" type="curve"/>
			<point x="1059.6" y="245.8" type="line"/>
			<point x="964" y="212.2"/>
			<point x="853.8" y="179.2"/>
			<point x="719.8" y="179.2" type="curve" smooth="yes"/>
			<point x="455.6" y="179.2"/>
			<point x="340.6" y="285.4"/>
			<point x="340.6" y="564.8" type="curve" smooth="yes"/>
			<point x="340.6" y="800.6"/>
			<point x="432.4" y="893"/>
			<point x="598.8" y="893" type="curve" smooth="yes"/>
			<point x="739.6" y="893"/>
			<point x="819.6" y="819.4"/>
			<point x="822" y="593" type="curve"/>
			<point x="885.2" y="625.4" type="line"/>
			<point x="288.6" y="625.4" type="line"/>
			<point x="293.4" y="484.6" type="line"/>
			<point x="1073.4" y="484.6" type="line"/>
			<point x="1067.2" y="859"/>
			<point x="940" y="1050"/>
		</contour>
	</outline>
	<anchor name="top" x="599.4" y="1028"/>
	<anchor name="right" x="1059.6" y="0"/>
	<anchor name="bottom" x="629" y="0"/>
</glyph>
<glyph name="f" format="2">
	<unicode hex="0066"/>
	<advance width="938.8"/>
	<outline>
		<contour>
			<point x="352.2" y="853.2" type="line"/>
			<point x="892.8" y="853.2" type="line"/>
			<point x="892.8" y="1028" type="line"/>
			<point x="353.4" y="1028" type="line"/>
			<point x="278.6" y="1053.8" type="line"/>
			<point x="61.8" y="972.4" type="line"/>
			<point x="61.8" y="903.4" type="line"/>
			<point x="262.2" y="828.8" type="line"/>
		</contour>
		<contour>
			<point x="515.8" y="139.2" type="line"/>
			<point x="515.8" y="1144.8" type="line" smooth="yes"/>
			<point x="515.8" y="1270.6"/>
			<point x="581" y="1334.6"/>
			<point x="740.4" y="1334.6" type="curve" smooth="yes"/>
			<point x="908.4" y="1334.6"/>
			<point x="953.4" y="1182.8"/>
			<point x="990.4" y="1182.8" type="curve" smooth="yes"/>
			<point x="1075.6" y="1182.8"/>
			<point x="1131.6" y="1236"/>
			<point x="1131.6" y="1314.6" type="curve" smooth="yes"/>
			<point x="1131.6" y="1415.2"/>
			<point x="1054.6" y="1486"/>
			<point x="767.6" y="1486" type="curve" smooth="yes"/>
			<point x="443.4" y="1486"/>
			<point x="262.2" y="1348.6"/>
			<point x="262.2" y="1073.4" type="curve" smooth="yes"/>
			<point x="262.2" y="139.2" type="line"/>
			<point x="104.2" y="100.6" type="line"/>
			<point x="104.2" y="0" type="line"/>
			<point x="694.6" y="0" type="line"/>
			<point x="694.6" y="100.6" type="line"/>
		</contour>
	</outline>
	<anchor name="UCtop" x="699.8" y="1464"/>
	<anchor name="bottom" x="389" y="0"/>
</glyph>
<glyph name="g" format="2">
	<unicode hex="0067"/>
	<advance width="1226.8"/>
	<outline>
		<contour>
			<point x="568.2" y="-465" type="curve" smooth="yes"/>
			<point x="971.8" y="-465"/>
			<point x="1180" y="-333.6"/>
			<point x="1180" y="-115" type="curve" smooth="yes"/>
			<point x="1179.8" y="92.8"/>
			<point x="1048.2" y="168.4"/>
			<point x="699" y="170.2" type="curve" smooth="yes"/>
			<point x="349.8" y="172"/>
			<point x="326.2" y="194"/>
			<point x="326.2" y="258.8" type="curve" smooth="yes"/>
			<point x="326.2" y="309.8"/>
			<point x="357" y="327.6"/>
			<point x="435" y="333.2" type="curve"/>
			<point x="430.4" y="360.8" type="line"/>
			<point x="204.2" y="343.4"/>
			<point x="119" y="270"/>
			<point x="119" y="170" type="curve" smooth="yes"/>
			<point x="119" y="40"/>
			<point x="213.8" y="-42.2"/>
			<point x="567.2" y="-42.2" type="curve" smooth="yes"/>
			<point x="920.6" y="-42.2"/>
			<point x="954.4" y="-84"/>
			<point x="954.4" y="-171" type="curve" smooth="yes"/>
			<point x="954.4" y="-273.6"/>
			<point x="850.2" y="-323"/>
			<point x="583.4" y="-323" type="curve" smooth="yes"/>
			<point x="366" y="-323"/>
			<point x="290" y="-281.8"/>
			<point x="290" y="-177.8" type="curve" smooth="yes"/>
			<point x="290" y="-93.6"/>
			<point x="348" y="-39"/>
			<point x="542.2" y="-35.8" type="curve"/>
			<point x="542.2" y="-18.6" type="line"/>
			<point x="451.8" y="-19.4" type="line"/>
			<point x="149.2" y="-19.6"/>
			<point x="41.6" y="-112.2"/>
			<point x="41.6" y="-226.2" type="curve" smooth="yes"/>
			<point x="41.6" y="-375"/>
			<point x="174.8" y="-465"/>
		</contour>
		<contour>
			<point x="559.8" y="321" type="curve" smooth="yes"/>
			<point x="838.2" y="321"/>
			<point x="1007.4" y="450.4"/>
			<point x="1007.4" y="685" type="curve" smooth="yes"/>
			<point x="1007.4" y="914.4"/>
			<point x="838.2" y="1050"/>
			<point x="559.8" y="1050" type="curve" smooth="yes"/>
			<point x="277.6" y="1050"/>
			<point x="107" y="920"/>
			<point x="107" y="685" type="curve" smooth="yes"/>
			<point x="107" y="451.2"/>
			<point x="271.2" y="321"/>
		</contour>
		<contour>
			<point x="567.4" y="468.2" type="curve" smooth="yes"/>
			<point x="412.4" y="468.2"/>
			<point x="345" y="534.2"/>
			<point x="345" y="688.8" type="curve" smooth="yes"/>
			<point x="345" y="847.4"/>
			<point x="437.4" y="907.4"/>
			<point x="558" y="907.4" type="curve" smooth="yes"/>
			<point x="709" y="907.4"/>
			<point x="774" y="841.4"/>
			<point x="774" y="686.8" type="curve" smooth="yes"/>
			<point x="774" y="528.2"/>
			<point x="684.8" y="468.2"/>
		</contour>
		<contour>
			<point x="740.8" y="925.6" type="line"/>
			<point x="1044.2" y="878"/>
			<point x="1122.4" y="862.8"/>
			<point x="1162.2" y="862.8" type="curve" smooth="yes"/>
			<point x="1179.4" y="862.8"/>
			<point x="1191.4" y="900.8"/>
			<point x="1191.4" y="975" type="curve" smooth="yes"/>
			<point x="1191.4" y="1026.6"/>
			<point x="1183.4" y="1044"/>
			<point x="1158.4" y="1044" type="curve" smooth="yes"/>
			<point x="1090.4" y="1044"/>
			<point x="865.4" y="1028"/>
			<point x="687.4" y="1028" type="curve"/>
		</contour>
	</outline>
	<anchor name="top" x="574.4" y="1028"/>
	<anchor name="bottom" x="596.4" y="-449"/>
</glyph>
<glyph name="h" format="2">
	<unicode hex="0068"/>
	<advance width="1405.2"/>
	<outline>
		<contour>
			<point x="804.4" y="100.6" type="line"/>
			<point x="804.4" y="0" type="line"/>
			<point x="1354.4" y="0" type="line"/>
			<point x="1354.4" y="100.6" type="line"/>
			<point x="1195.4" y="139.2" type="line"/>
			<point x="1195.4" y="725.4" type="line" smooth="yes"/>
			<point x="1195.4" y="938"/>
			<point x="1090.6" y="1050"/>
			<point x="859.4" y="1050" type="curve" smooth="yes"/>
			<point x="737.8" y="1050"/>
			<point x="708.4" y="1038.2"/>
			<point x="446" y="837" type="curve"/>
			<point x="462.8" y="784" type="line"/>
			<point x="542" y="809.6"/>
			<point x="640" y="826.8"/>
			<point x="726.6" y="826.8" type="curve" smooth="yes"/>
			<point x="883.8" y="826.8"/>
			<point x="941.8" y="775"/>
			<point x="941.8" y="650.2" type="curve" smooth="yes"/>
			<point x="941.8" y="136.4" type="line"/>
		</contour>
		<contour>
			<point x="612.4" y="0" type="line"/>
			<point x="612.4" y="100.6" type="line"/>
			<point x="475" y="136.4" type="line"/>
			<point x="475" y="1261.2" type="line"/>
			<point x="496.2" y="1486" type="line"/>
			<point x="438.2" y="1486" type="line"/>
			<point x="10.2" y="1410.4" type="line"/>
			<point x="10.2" y="1320.8" type="line"/>
			<point x="88.2" y="1287.7060031911"/>
			<point x="195.4" y="1244.0313322696"/>
			<point x="221.4" y="1233" type="curve"/>
			<point x="221.4" y="139.2" type="line"/>
			<point x="63.4" y="100.6" type="line"/>
			<point x="63.4" y="0" type="line"/>
		</contour>
	</outline>
	<anchor name="UCtop" x="738.8" y="1464"/>
	<anchor name="bottom" x="702.6" y="0"/>
	<anchor name="center" x="411.6" y="1177.4"/>
</glyph>
<glyph name="i" format="2">
	<unicode hex="0069"/>
	<advance width="727"/>
	<outline>
		<contour>
			<point x="363.8" y="1202.4" type="curve" smooth="yes"/>
			<point x="478.8" y="1202.4"/>
			<point x="547" y="1249"/>
			<point x="547" y="1344.8" type="curve" smooth="yes"/>
			<point x="547" y="1440.4"/>
			<point x="478.8" y="1486"/>
			<point x="363.8" y="1486" type="curve" smooth="yes"/>
			<point x="248.8" y="1486"/>
			<point x="180.6" y="1440.4"/>
			<point x="180.6" y="1344.8" type="curve" smooth="yes"/>
			<point x="180.6" y="1249"/>
			<point x="248.8" y="1202.4"/>
		</contour>
		<contour>
			<point x="524" y="1050" type="line"/>
			<point x="449.2" y="1050" type="line"/>
			<point x="78.4" y="944" type="line"/>
			<point x="78.4" y="874.4" type="line"/>
			<point x="139.4" y="837.7916840066"/>
			<point x="232" y="784.2029992107"/>
			<point x="254" y="771" type="curve"/>
			<point x="254" y="139.2" type="line"/>
			<point x="96" y="100.6" type="line"/>
			<point x="96" y="0" type="line"/>
			<point x="658.4" y="0" type="line"/>
			<point x="658.4" y="100.6" type="line"/>
			<point x="507.6" y="139.2" type="line"/>
			<point x="507.6" y="796.8" type="line"/>
		</contour>
	</outline>
	<anchor name="top" x="366.8" y="1464"/>
	<anchor name="bottom" x="380.8" y="0"/>
	<anchor name="right" x="534.4" y="0"/>
</glyph>
<glyph name="j" format="2">
	<unicode hex="006A"/>
	<advance width="659"/>
	<outline>
		<contour>
			<point x="339.2" y="1202.4" type="curve" smooth="yes"/>
			<point x="454.2" y="1202.4"/>
			<point x="522.4" y="1249"/>
			<point x="522.4" y="1344.8" type="curve" smooth="yes"/>
			<point x="522.4" y="1440.4"/>
			<point x="454.2" y="1486"/>
			<point x="339.2" y="1486" type="curve" smooth="yes"/>
			<point x="224.2" y="1486"/>
			<point x="156" y="1440.4"/>
			<point x="156" y="1344.8" type="curve" smooth="yes"/>
			<point x="156" y="1249"/>
			<point x="224.2" y="1202.4"/>
		</contour>
		<contour>
			<point x="229.4" y="771" type="curve"/>
			<point x="229.4" y="8.4" type="line" smooth="yes"/>
			<point x="229.4" y="-104.4"/>
			<point x="220.8" y="-120"/>
			<point x="-11.6" y="-356.4" type="curve"/>
			<point x="75.6" y="-465" type="line"/>
			<point x="436.2" y="-223.2"/>
			<point x="483" y="-156.8"/>
			<point x="483" y="50.8" type="curve" smooth="yes"/>
			<point x="483" y="796.8" type="line"/>
			<point x="499.4" y="1050" type="line"/>
			<point x="424.6" y="1050" type="line"/>
			<point x="53.8" y="944" type="line"/>
			<point x="53.8" y="874.4" type="line"/>
			<point x="114.8" y="837.7916840066"/>
			<point x="207.4" y="784.2029992107"/>
		</contour>
	</outline>
	<anchor name="top" x="341" y="1480"/>
	<anchor name="bottom" x="303" y="-449"/>
</glyph>
<glyph name="k" format="2">
	<unicode hex="006B"/>
	<advance width="1383"/>
	<outline>
		<contour>
			<point x="724.4" y="550" type="line"/>
			<point x="1148" y="898.6" type="line"/>
			<point x="1294.6" y="933.4" type="line"/>
			<point x="1294.6" y="1028" type="line"/>
			<point x="767.4" y="1028" type="line"/>
			<point x="767.4" y="933.4" type="line"/>
			<point x="918.6" y="896.6" type="line"/>
			<point x="657.4" y="657.8" type="line"/>
			<point x="402.8" y="657.8" type="line"/>
			<point x="402.8" y="493.8" type="line"/>
			<point x="633.2" y="493.8" type="line"/>
			<point x="943.2" y="122.8" type="line"/>
			<point x="944" y="97.2" type="line"/>
			<point x="944" y="0" type="line"/>
			<point x="1362.8" y="0" type="line"/>
			<point x="1362.8" y="97.2" type="line"/>
			<point x="1233.8" y="145.4" type="line"/>
			<point x="786.6" y="676.2" type="line"/>
		</contour>
		<contour>
			<point x="475" y="139.2" type="line"/>
			<point x="475" y="1261.2" type="line"/>
			<point x="496.2" y="1486" type="line"/>
			<point x="438.2" y="1486" type="line"/>
			<point x="10.2" y="1410.4" type="line"/>
			<point x="10.2" y="1320.8" type="line"/>
			<point x="88.2" y="1287.7060031911"/>
			<point x="195.4" y="1244.0313322696"/>
			<point x="221.4" y="1233" type="curve"/>
			<point x="221.4" y="139.2" type="line"/>
			<point x="63.4" y="100.6" type="line"/>
			<point x="63.4" y="0" type="line"/>
			<point x="625.8" y="0" type="line"/>
			<point x="625.8" y="100.6" type="line"/>
		</contour>
	</outline>
	<anchor name="bottom" x="748.6" y="0"/>
	<anchor name="UCtop" x="692.6" y="1464"/>
</glyph>
<glyph name="l" format="2">
	<unicode hex="006C"/>
	<advance width="696.4"/>
	<outline>
		<contour>
			<point x="477.4" y="139.2" type="line"/>
			<point x="477.4" y="1261.2" type="line"/>
			<point x="498.6" y="1486" type="line"/>
			<point x="440.6" y="1486" type="line"/>
			<point x="12.6" y="1410.4" type="line"/>
			<point x="12.6" y="1320.8" type="line"/>
			<point x="90.6" y="1287.7060031911"/>
			<point x="197.8" y="1244.0313322696"/>
			<point x="223.8" y="1233" type="curve"/>
			<point x="223.8" y="139.2" type="line"/>
			<point x="65.8" y="100.6" type="line"/>
			<point x="65.8" y="0" type="line"/>
			<point x="628.2" y="0" type="line"/>
			<point x="628.2" y="100.6" type="line"/>
		</contour>
	</outline>
	<anchor name="UCtop" x="330" y="1464"/>
	<anchor name="right" x="477.4" y="1464"/>
	<anchor name="bottom" x="350.6" y="0"/>
	<anchor name="mid" x="750.2" y="512"/>
</glyph>
<glyph name="m" format="2">
	<unicode hex="006D"/>
	<advance width="2072.8"/>
	<outline>
		<contour>
			<point x="505.4" y="828.8" type="line"/>
			<point x="435.8" y="1054" type="line"/>
			<point x="387" y="1054" type="line"/>
			<point x="76.2" y="928" type="line"/>
			<point x="76.2" y="874.4" type="line"/>
			<point x="167.2" y="811.7433952788"/>
			<point x="229.8" y="770.1477505919"/>
			<point x="251.8" y="755" type="curve"/>
			<point x="251.8" y="139.2" type="line"/>
			<point x="93.8" y="100.6" type="line"/>
			<point x="93.8" y="0" type="line"/>
			<point x="642.6" y="0" type="line"/>
			<point x="642.6" y="100.6" type="line"/>
			<point x="505.4" y="136.4" type="line"/>
		</contour>
		<contour>
			<point x="1183.8" y="753.4" type="line" smooth="yes"/>
			<point x="1183.8" y="966.8"/>
			<point x="1084.304516129" y="1050"/>
			<point x="865.8" y="1050" type="curve" smooth="yes"/>
			<point x="751.4" y="1050"/>
			<point x="723.6" y="1039"/>
			<point x="476.4" y="849.4" type="curve"/>
			<point x="492.2" y="788.4" type="line"/>
			<point x="565.4" y="811.2"/>
			<point x="654.8" y="826.8"/>
			<point x="734.2" y="826.8" type="curve" smooth="yes"/>
			<point x="878.4" y="826.8"/>
			<point x="930.2" y="779.6"/>
			<point x="930.2" y="665" type="curve" smooth="yes"/>
			<point x="930.2" y="136.4" type="line"/>
			<point x="793" y="100.6" type="line"/>
			<point x="793" y="0" type="line"/>
			<point x="1321" y="0" type="line"/>
			<point x="1321" y="100.6" type="line"/>
			<point x="1183.8" y="136.4" type="line"/>
		</contour>
		<contour>
			<point x="1862.2" y="742.8" type="line" smooth="yes"/>
			<point x="1862.2" y="945.2"/>
			<point x="1762.2" y="1050"/>
			<point x="1542.4" y="1050" type="curve" smooth="yes"/>
			<point x="1427" y="1050"/>
			<point x="1399.4" y="1039"/>
			<point x="1149.6" y="847.6" type="curve"/>
			<point x="1165.4" y="787.6" type="line"/>
			<point x="1238.6" y="810.4"/>
			<point x="1329.2" y="826.8"/>
			<point x="1410" y="826.8" type="curve" smooth="yes"/>
			<point x="1555" y="826.8"/>
			<point x="1608.6" y="779"/>
			<point x="1608.6" y="664.2" type="curve" smooth="yes"/>
			<point x="1608.6" y="136.4" type="line"/>
			<point x="1471.4" y="100.6" type="line"/>
			<point x="1471.4" y="0" type="line"/>
			<point x="2021" y="0" type="line"/>
			<point x="2021" y="100.6" type="line"/>
			<point x="1862.2" y="139.2" type="line"/>
		</contour>
	</outline>
	<anchor name="top" x="1057" y="1028"/>
	<anchor name="bottom" x="1057" y="0"/>
</glyph>
<glyph name="n" format="2">
  <advance width="1436"/>
  <unicode hex="006E"/>
  <anchor x="742.4" y="1028.0" name="top"/>
  <anchor x="724.8000000000001" y="0.0" name="bottom"/>
  <outline>
    <contour>
      <point x="505.4" y="828.8" type="line"/>
      <point x="435.79999999999995" y="1054.0" type="line"/>
      <point x="387.0" y="1054.0" type="line"/>
      <point x="76.2" y="928.0" type="line"/>
      <point x="76.2" y="874.4" type="line"/>
      <point x="167.20000000000002" y="811.7433952787544"/>
      <point x="229.8" y="770.1477505919495"/>
      <point x="251.8" y="755.0" type="curve"/>
      <point x="251.8" y="139.20000000000002" type="line"/>
      <point x="93.8" y="100.6" type="line"/>
      <point x="93.8" y="0.0" type="line"/>
      <point x="642.6" y="0.0" type="line"/>
      <point x="642.6" y="100.6" type="line"/>
      <point x="505.4" y="136.4" type="line"/>
    </contour>
    <contour>
      <point x="834.8" y="100.6" type="line"/>
      <point x="834.8" y="0.0" type="line"/>
      <point x="1384.8" y="0.0" type="line"/>
      <point x="1384.8" y="100.6" type="line"/>
      <point x="1225.8" y="139.20000000000002" type="line"/>
      <point x="1225.8" y="725.4" type="line" smooth="yes"/>
      <point x="1225.8" y="938.0"/>
      <point x="1121.0" y="1050.0"/>
      <point x="889.8" y="1050.0" type="curve" smooth="yes"/>
      <point x="768.1999999999999" y="1050.0"/>
      <point x="738.8" y="1038.2"/>
      <point x="476.40000000000003" y="837.0" type="curve"/>
      <point x="493.2" y="784.0" type="line"/>
      <point x="572.4" y="809.6"/>
      <point x="670.4" y="826.8"/>
      <point x="757.0" y="826.8" type="curve" smooth="yes"/>
      <point x="914.1999999999999" y="826.8"/>
      <point x="972.2" y="775.0"/>
      <point x="972.2" y="650.2" type="curve" smooth="yes"/>
      <point x="972.2" y="136.4" type="line"/>
    </contour>
  </outline>
</glyph>
<glyph name="o" format="2">
	<unicode hex="006F"/>
	<advance width="1288.4"/>
	<outline>
		<contour>
			<point x="634" y="152" type="curve" smooth="yes"/>
			<point x="439.2" y="152"/>
			<point x="353.2" y="277"/>
			<point x="353.2" y="536.8" type="curve" smooth="yes"/>
			<point x="353.2" y="772.8"/>
			<point x="454" y="876"/>
			<point x="654.4" y="876" type="curve" smooth="yes"/>
			<point x="849.2" y="876"/>
			<point x="935.2" y="751"/>
			<point x="935.2" y="491.2" type="curve" smooth="yes"/>
			<point x="935.2" y="255.2"/>
			<point x="834.4" y="152"/>
		</contour>
		<contour>
			<point x="632.6" y="-22" type="curve" smooth="yes"/>
			<point x="980.2" y="-22"/>
			<point x="1191.6" y="185"/>
			<point x="1191.6" y="515.4" type="curve" smooth="yes"/>
			<point x="1191.6" y="843.2"/>
			<point x="991.8" y="1050"/>
			<point x="655.8" y="1050" type="curve" smooth="yes"/>
			<point x="308.2" y="1050"/>
			<point x="96.8" y="843"/>
			<point x="96.8" y="512.6" type="curve" smooth="yes"/>
			<point x="96.8" y="184.8"/>
			<point x="296.6" y="-22"/>
		</contour>
	</outline>
	<anchor name="top" x="644.6" y="1028"/>
	<anchor name="bottom" x="644.6" y="0"/>
	<anchor name="horn" x="851.6" y="1028"/>
	<anchor name="right" x="841.6" y="0"/>
</glyph>
<glyph name="p" format="2">
  <advance width="1394"/>
  <unicode hex="0070"/>
  <anchor x="719.6" y="1028.0" name="top"/>
  <anchor x="354.20000000000005" y="-443.0" name="bottom"/>
  <outline>
    <contour>
      <point x="1030.8" y="505.6" type="curve" smooth="yes"/>
      <point x="1030.8" y="271.2"/>
      <point x="921.2" y="144.0"/>
      <point x="735.6" y="144.0" type="curve" smooth="yes"/>
      <point x="589.0" y="144.0"/>
      <point x="481.0" y="217.0"/>
      <point x="481.0" y="377.2" type="curve" smooth="yes"/>
      <point x="481.0" y="871.2" type="line"/>
      <point x="411.40000000000003" y="1054.0" type="line"/>
      <point x="362.59999999999997" y="1054.0" type="line"/>
      <point x="51.8" y="928.0" type="line"/>
      <point x="51.8" y="874.4" type="line"/>
      <point x="125.8" y="823.4484752816245"/>
      <point x="201.39999999999998" y="772.901887063213"/>
      <point x="227.39999999999998" y="755.0" type="curve"/>
      <point x="227.39999999999998" y="-303.8" type="line"/>
      <point x="65.4" y="-342.4" type="line"/>
      <point x="65.4" y="-443.0" type="line"/>
      <point x="661.4" y="-443.0" type="line"/>
      <point x="661.4" y="-342.4" type="line"/>
      <point x="480.20000000000005" y="-305.4" type="line"/>
      <point x="480.20000000000005" y="273.2" type="line"/>
      <point x="463.6" y="273.2" type="line"/>
      <point x="471.6" y="115.2"/>
      <point x="606.2" y="-22.0"/>
      <point x="800.8" y="-22.0" type="curve" smooth="yes"/>
      <point x="1077.4" y="-22.0"/>
      <point x="1295.2" y="191.6"/>
      <point x="1295.2" y="554.0" type="curve" smooth="yes"/>
      <point x="1295.2" y="861.2"/>
      <point x="1130.0" y="1050.0"/>
      <point x="822.4" y="1050.0" type="curve" smooth="yes"/>
      <point x="734.6" y="1050.0"/>
      <point x="634.8000000000001" y="1018.6"/>
      <point x="411.0" y="888.1999999999999" type="curve"/>
      <point x="411.0" y="789.0" type="line"/>
      <point x="507.8" y="829.2"/>
      <point x="614.6" y="852.2"/>
      <point x="716.8000000000001" y="852.2" type="curve" smooth="yes"/>
      <point x="917.6" y="852.2"/>
      <point x="1030.8" y="745.2"/>
    </contour>
  </outline>
</glyph>
<glyph name="q" format="2">
	<unicode hex="0071"/>
	<advance width="1344.6"/>
	<outline>
		<contour>
			<point x="362.4" y="516.8" type="curve" smooth="yes"/>
			<point x="362.4" y="760.4"/>
			<point x="473.4" y="890"/>
			<point x="677.6" y="890" type="curve" smooth="yes"/>
			<point x="853" y="890"/>
			<point x="912.2" y="809.2"/>
			<point x="912.2" y="662.4" type="curve" smooth="yes"/>
			<point x="912.2" y="-305.4" type="line"/>
			<point x="731" y="-342.4" type="line"/>
			<point x="731" y="-443" type="line"/>
			<point x="1327.8" y="-443" type="line"/>
			<point x="1327.8" y="-342.4" type="line"/>
			<point x="1165.8" y="-303.8" type="line"/>
			<point x="1165.8" y="803" type="line"/>
			<point x="1214" y="1026" type="line"/>
			<point x="1165.2" y="1051.8" type="line"/>
			<point x="941.2" y="904.6" type="line"/>
			<point x="1041.4" y="896.4" type="line"/>
			<point x="947.2" y="1013.2"/>
			<point x="831.4" y="1050"/>
			<point x="683" y="1050" type="curve" smooth="yes"/>
			<point x="351.6" y="1050"/>
			<point x="98" y="829.2"/>
			<point x="98" y="474" type="curve" smooth="yes"/>
			<point x="98" y="166.6"/>
			<point x="252" y="-22"/>
			<point x="555.6" y="-22" type="curve" smooth="yes"/>
			<point x="635.4" y="-22"/>
			<point x="704.8" y="-1"/>
			<point x="996.6" y="211.8" type="curve"/>
			<point x="996.6" y="253.4" type="line"/>
			<point x="883" y="200.4"/>
			<point x="777" y="175.8"/>
			<point x="676.4" y="175.8" type="curve" smooth="yes"/>
			<point x="467.6" y="175.8"/>
			<point x="362.4" y="279.2"/>
		</contour>
	</outline>
	<anchor name="top" x="675.2" y="1028"/>
	<anchor name="bottom" x="1039" y="-443"/>
</glyph>
<glyph name="r" format="2">
  <advance width="1009.6"/>
  <unicode hex="0072"/>
  <anchor x="514.8" y="1028.0" name="top"/>
  <anchor x="378.6" y="0.0" name="bottom"/>
  <outline>
    <contour>
      <point x="839.0" y="1047.4" type="curve" smooth="yes"/>
      <point x="733.4" y="1047.4"/>
      <point x="655.8" y="1011.6"/>
      <point x="419.6" y="788.4" type="curve"/>
      <point x="451.0" y="746.4" type="line"/>
      <point x="508.79999999999995" y="780.4"/>
      <point x="544.0" y="786.6"/>
      <point x="597.2" y="786.6" type="curve" smooth="yes"/>
      <point x="697.6" y="786.6"/>
      <point x="797.6" y="778.6"/>
      <point x="903.6" y="778.6" type="curve" smooth="yes"/>
      <point x="930.0" y="778.6"/>
      <point x="962.0" y="834.0"/>
      <point x="962.0" y="923.6" type="curve" smooth="yes"/>
      <point x="962.0" y="1000.8"/>
      <point x="914.8" y="1047.4"/>
    </contour>
    <contour>
      <point x="505.4" y="828.8" type="line"/>
      <point x="435.8" y="1054.0" type="line"/>
      <point x="387.0" y="1054.0" type="line"/>
      <point x="76.2" y="928.0" type="line"/>
      <point x="76.2" y="874.4" type="line"/>
      <point x="150.20000000000002" y="823.4484752816245"/>
      <point x="225.8" y="772.901887063213"/>
      <point x="251.8" y="755.0" type="curve"/>
      <point x="251.8" y="139.20000000000002" type="line"/>
      <point x="93.8" y="100.6" type="line"/>
      <point x="93.8" y="0.0" type="line"/>
      <point x="683.0" y="0.0" type="line"/>
      <point x="683.0" y="100.6" type="line"/>
      <point x="505.4" y="140.2" type="line"/>
    </contour>
  </outline>
</glyph>
<glyph name="s" format="2">
	<unicode hex="0073"/>
	<advance width="1103.4"/>
	<outline>
		<contour>
			<point x="602.2" y="1050" type="curve" smooth="yes"/>
			<point x="296.4" y="1050"/>
			<point x="119.4" y="943.6"/>
			<point x="119.4" y="741.2" type="curve" smooth="yes"/>
			<point x="119.4" y="544.6"/>
			<point x="233" y="482.2"/>
			<point x="415.2" y="450.6" type="curve" smooth="yes"/>
			<point x="597.4" y="419"/>
			<point x="769.6" y="426.8"/>
			<point x="769.6" y="277.4" type="curve" smooth="yes"/>
			<point x="769.6" y="175.4"/>
			<point x="683.2" y="126.2"/>
			<point x="485.2" y="126.2" type="curve" smooth="yes"/>
			<point x="405.2" y="126.2"/>
			<point x="309.6" y="133.8"/>
			<point x="240.4" y="155.2" type="curve"/>
			<point x="374.2" y="44.6" type="line"/>
			<point x="240.8" y="324.8" type="line"/>
			<point x="99.6" y="324.8" type="line"/>
			<point x="144" y="28.8" type="line"/>
			<point x="229.2" y="-1.6"/>
			<point x="376.4" y="-18.8"/>
			<point x="495.2" y="-18.8" type="curve" smooth="yes"/>
			<point x="841.4" y="-18.8"/>
			<point x="1006" y="101.6"/>
			<point x="1006" y="319.8" type="curve" smooth="yes"/>
			<point x="1006" y="557"/>
			<point x="833.8" y="600.2"/>
			<point x="650.6" y="624.8" type="curve" smooth="yes"/>
			<point x="467.4" y="649.4"/>
			<point x="350.8" y="664.2"/>
			<point x="350.8" y="786.8" type="curve" smooth="yes"/>
			<point x="350.8" y="868.8"/>
			<point x="426.2" y="911.8"/>
			<point x="585.6" y="911.8" type="curve" smooth="yes"/>
			<point x="654.2" y="911.8"/>
			<point x="751.6" y="896"/>
			<point x="845.2" y="864.8" type="curve"/>
			<point x="688.4" y="981" type="line"/>
			<point x="811.4" y="735" type="line"/>
			<point x="951.6" y="735" type="line"/>
			<point x="922" y="1004.8" type="line"/>
			<point x="805.4" y="1036.4"/>
			<point x="712.2" y="1050"/>
		</contour>
	</outline>
	<anchor name="top" x="546.8" y="1028"/>
	<anchor name="bottom" x="561.2" y="0"/>
</glyph>
<glyph name="t" format="2">
	<unicode hex="0074"/>
	<advance width="934.4"/>
	<outline>
		<contour>
			<point x="479.4" y="329" type="curve" smooth="yes"/>
			<point x="479.4" y="995.8" type="line"/>
			<point x="479.4" y="1247.6" type="line"/>
			<point x="391.4" y="1247.6" type="line"/>
			<point x="300.618729097" y="1117.6"/>
			<point x="203.7672240803" y="1053.8"/>
			<point x="32.4" y="999" type="curve"/>
			<point x="32.4" y="925" type="line"/>
			<point x="226.2" y="847.4" type="line"/>
			<point x="226.2" y="229.8" type="line" smooth="yes"/>
			<point x="226.2" y="61"/>
			<point x="349.8" y="-22"/>
			<point x="520.2" y="-22" type="curve" smooth="yes"/>
			<point x="610.6" y="-22"/>
			<point x="703" y="6.8"/>
			<point x="888.2" y="103" type="curve"/>
			<point x="888.2" y="204.2" type="line"/>
			<point x="807" y="183.2"/>
			<point x="736.2" y="172.4"/>
			<point x="676.8" y="172.4" type="curve" smooth="yes"/>
			<point x="537" y="172.4"/>
			<point x="479.4" y="212"/>
		</contour>
		<contour>
			<point x="379.4" y="853.2" type="line"/>
			<point x="866.4" y="853.2" type="line"/>
			<point x="866.4" y="1028" type="line"/>
			<point x="385.4" y="1028" type="line"/>
		</contour>
	</outline>
	<anchor name="bottom" x="578.8" y="0"/>
	<anchor name="right" x="468.2" y="1535"/>
</glyph>
<glyph name="u" format="2">
	<unicode hex="0075"/>
	<advance width="1370"/>
	<outline>
		<contour>
			<point x="466.2" y="363.8" type="curve" smooth="yes"/>
			<point x="466.2" y="879.6" type="line"/>
			<point x="488" y="1038" type="line"/>
			<point x="34.8" y="1024" type="line"/>
			<point x="34.8" y="926" type="line"/>
			<point x="212.6" y="849.6" type="line"/>
			<point x="212.6" y="285.6" type="line" smooth="yes"/>
			<point x="212.6" y="84.2"/>
			<point x="311.8" y="-22"/>
			<point x="530.6" y="-22" type="curve" smooth="yes"/>
			<point x="645.6" y="-22"/>
			<point x="674.6" y="-11.2"/>
			<point x="923" y="180.2" type="curve"/>
			<point x="907.2" y="240.6" type="line"/>
			<point x="832.6" y="217.4"/>
			<point x="742.2" y="201.2"/>
			<point x="664.6" y="201.2" type="curve" smooth="yes"/>
			<point x="519.8" y="201.2"/>
			<point x="466.2" y="247.8"/>
		</contour>
		<contour>
			<point x="971.6" y="-22" type="line"/>
			<point x="1014.6" y="-22" type="line"/>
			<point x="1325" y="104.6" type="line"/>
			<point x="1325" y="156.2" type="line"/>
			<point x="1283" y="179.2173913043"/>
			<point x="1168.2" y="241.4472049689"/>
			<point x="1144.2" y="254.6" type="curve"/>
			<point x="1144.2" y="876.8" type="line"/>
			<point x="1160.2" y="1036" type="line"/>
			<point x="749.8" y="1028" type="line"/>
			<point x="749.8" y="930" type="line"/>
			<point x="890.6" y="859.8" type="line"/>
			<point x="890.6" y="166.6" type="line"/>
		</contour>
	</outline>
	<anchor name="top" x="643.4" y="1028"/>
	<anchor name="right" x="1155" y="0"/>
	<anchor name="bottom" x="679.8" y="0"/>
	<anchor name="horn" x="1071" y="1028"/>
</glyph>
<glyph name="v" format="2">
	<unicode hex="0076"/>
	<advance width="1371.8"/>
	<outline>
		<contour>
			<point x="1203.4" y="896.2" type="line"/>
			<point x="1321" y="930.6" type="line"/>
			<point x="1321" y="1028" type="line"/>
			<point x="880" y="1028" type="line"/>
			<point x="880" y="930.6" type="line"/>
			<point x="1020.2" y="891.8" type="line"/>
			<point x="728.8" y="127.8" type="line"/>
			<point x="777.2" y="127.8" type="line"/>
			<point x="446.2" y="890.2" type="line"/>
			<point x="594.2" y="930.6" type="line"/>
			<point x="594.2" y="1028" type="line"/>
			<point x="18" y="1028" type="line"/>
			<point x="18" y="931.2" type="line"/>
			<point x="164.6" y="880" type="line"/>
			<point x="568.6" y="-16" type="line"/>
			<point x="825.4" y="-16" type="line"/>
		</contour>
	</outline>
	<anchor name="top" x="715.6" y="1028"/>
	<anchor name="bottom" x="696" y="0"/>
</glyph>
<glyph name="w" format="2">
	<unicode hex="0077"/>
	<advance width="1827.8"/>
	<outline>
		<contour>
			<point x="1492.6" y="891.8" type="line"/>
			<point x="1319" y="137.4" type="line"/>
			<point x="1386.2" y="136.4" type="line"/>
			<point x="1092.6" y="1044" type="line"/>
			<point x="856" y="1044" type="line"/>
			<point x="547.4" y="121.2" type="line"/>
			<point x="622.8" y="117.4" type="line"/>
			<point x="431.6" y="890.2" type="line"/>
			<point x="572.4" y="930.6" type="line"/>
			<point x="572.4" y="1028" type="line"/>
			<point x="26.6" y="1028" type="line"/>
			<point x="26.6" y="931.2" type="line"/>
			<point x="173.2" y="880" type="line"/>
			<point x="402.6" y="-16" type="line"/>
			<point x="656.4" y="-16" type="line"/>
			<point x="969.8" y="885.6" type="line"/>
			<point x="889.8" y="878.2" type="line"/>
			<point x="1180.6" y="-16" type="line"/>
			<point x="1434" y="-16" type="line"/>
			<point x="1665.4" y="896.2" type="line"/>
			<point x="1777.8" y="930.6" type="line"/>
			<point x="1777.8" y="1028" type="line"/>
			<point x="1354" y="1028" type="line"/>
			<point x="1354" y="930.6" type="line"/>
		</contour>
	</outline>
	<anchor name="top" x="950.6" y="1028"/>
	<anchor name="bottom" x="934.2" y="0"/>
</glyph>
<glyph name="x" format="2">
	<unicode hex="0078"/>
	<advance width="1303.6"/>
	<outline>
		<contour>
			<point x="1147.2" y="141.4" type="line"/>
			<point x="760" y="587.2" type="line"/>
			<point x="735.8" y="615.2" type="line"/>
			<point x="498.2" y="898.8" type="line"/>
			<point x="601.4" y="932.8" type="line"/>
			<point x="601.4" y="1028" type="line"/>
			<point x="59.4" y="1028" type="line"/>
			<point x="59.4" y="932.8" type="line"/>
			<point x="185.2" y="886.6" type="line"/>
			<point x="538.6" y="480.4" type="line"/>
			<point x="567.8" y="446.2" type="line"/>
			<point x="834.2" y="129.2" type="line"/>
			<point x="730.2" y="95" type="line"/>
			<point x="730.2" y="0" type="line"/>
			<point x="1273" y="0" type="line"/>
			<point x="1273" y="95" type="line"/>
		</contour>
		<contour>
			<point x="633.2" y="448.4" type="line"/>
			<point x="763.6" y="500.6" type="line"/>
			<point x="1117" y="898.4" type="line"/>
			<point x="1227.4" y="932.8" type="line"/>
			<point x="1227.4" y="1028" type="line"/>
			<point x="800.2" y="1028" type="line"/>
			<point x="800.2" y="932.8" type="line"/>
			<point x="926.6" y="902.2" type="line"/>
			<point x="652.8" y="583.2" type="line"/>
			<point x="519" y="531" type="line"/>
			<point x="158.8" y="131.2" type="line"/>
			<point x="47.6" y="95.2" type="line"/>
			<point x="47.6" y="0" type="line"/>
			<point x="478.2" y="0" type="line"/>
			<point x="478.2" y="95.2" type="line"/>
			<point x="353.4" y="127.4" type="line"/>
		</contour>
	</outline>
	<anchor name="top" x="665" y="1028"/>
	<anchor name="bottom" x="659" y="0"/>
</glyph>
<glyph name="y" format="2">
	<unicode hex="0079"/>
	<advance width="1327.2"/>
	<outline>
		<contour>
			<point x="818.4" y="148.2" type="line"/>
			<point x="454" y="890.2" type="line"/>
			<point x="602" y="930.6" type="line"/>
			<point x="602" y="1028" type="line"/>
			<point x="24.6" y="1028" type="line"/>
			<point x="24.6" y="931.2" type="line"/>
			<point x="173.2" y="880" type="line"/>
			<point x="641.2" y="-36.6" type="line"/>
		</contour>
		<contour>
			<point x="322.6" y="-465" type="curve" smooth="yes"/>
			<point x="510.4" y="-465"/>
			<point x="618.8" y="-374.6"/>
			<point x="710.2" y="-164" type="curve" smooth="yes"/>
			<point x="1168.8" y="896.2" type="line"/>
			<point x="1288.4" y="930.6" type="line"/>
			<point x="1288.4" y="1028" type="line"/>
			<point x="844" y="1028" type="line"/>
			<point x="844" y="930.6" type="line"/>
			<point x="984.2" y="891.8" type="line"/>
			<point x="683" y="122.2" type="line"/>
			<point x="653.8" y="74.4" type="line"/>
			<point x="615.2" y="-4.6" type="line" smooth="yes"/>
			<point x="545.2" y="-151.6"/>
			<point x="488.6" y="-214.2"/>
			<point x="386.4" y="-214.2" type="curve" smooth="yes"/>
			<point x="320.2" y="-214.2"/>
			<point x="213.8" y="-190.2"/>
			<point x="183.8" y="-190.2" type="curve" smooth="yes"/>
			<point x="160.4" y="-190.2"/>
			<point x="120.4" y="-241"/>
			<point x="120.4" y="-305.6" type="curve" smooth="yes"/>
			<point x="120.4" y="-408"/>
			<point x="188" y="-465"/>
		</contour>
	</outline>
	<anchor name="top" x="694.6" y="1028"/>
	<anchor name="bottom" x="950.4" y="-118.6"/>
</glyph>
<glyph name="z" format="2">
	<unicode hex="007A"/>
	<advance width="1124.2"/>
	<outline>
		<contour>
			<point x="101.2" y="0" type="line"/>
			<point x="972.4" y="0" type="line"/>
			<point x="1059.8" y="383.8" type="line"/>
			<point x="948.2" y="383.8" type="line"/>
			<point x="741" y="47.4" type="line"/>
			<point x="868.6" y="157" type="line"/>
			<point x="284.2" y="157" type="line"/>
			<point x="351.4" y="57.4" type="line"/>
			<point x="1014.4" y="932.2" type="line"/>
			<point x="1014.4" y="1028" type="line"/>
			<point x="272.8" y="1028" type="line"/>
			<point x="226.8" y="1050" type="line"/>
			<point x="128.8" y="1050" type="line"/>
			<point x="93.4" y="684.8" type="line"/>
			<point x="207" y="684.8" type="line"/>
			<point x="363.4" y="997.2" type="line"/>
			<point x="174.8" y="871.4" type="line"/>
			<point x="838.4" y="871.4" type="line"/>
			<point x="755.2" y="967.4" type="line"/>
			<point x="101.2" y="96.6" type="line"/>
		</contour>
	</outline>
	<anchor name="top" x="577.8" y="1028"/>
	<anchor name="bottom" x="561.8" y="0"/>
</glyph>
<glyph name="braceleft" format="2">
	<unicode hex="007B"/>
	<advance width="794.6"/>
	<outline>
		<contour>
			<point x="72.2" y="555.6" type="line"/>
			<point x="146.4" y="554.2" type="line" smooth="yes"/>
			<point x="249.2" y="551.8"/>
			<point x="292" y="509.8"/>
			<point x="292" y="424" type="curve" smooth="yes"/>
			<point x="292" y="292"/>
			<point x="236.6" y="182.6"/>
			<point x="236.6" y="49.4" type="curve" smooth="yes"/>
			<point x="236.6" y="-84"/>
			<point x="328.8" y="-215.4"/>
			<point x="553.8" y="-232.2" type="curve" smooth="yes"/>
			<point x="704.6" y="-243.2" type="line"/>
			<point x="718.2" y="-112.6" type="line"/>
			<point x="634.4" y="-102" type="line" smooth="yes"/>
			<point x="521.2" y="-87.8"/>
			<point x="489.4" y="-22.8"/>
			<point x="489.4" y="73.6" type="curve" smooth="yes"/>
			<point x="489.4" y="174.4"/>
			<point x="512.4" y="283.2"/>
			<point x="512.4" y="386.6" type="curve" smooth="yes"/>
			<point x="512.4" y="529.6"/>
			<point x="434.2" y="613.8"/>
			<point x="240.2" y="647" type="curve"/>
			<point x="240.2" y="595" type="line"/>
			<point x="434.2" y="627.4"/>
			<point x="512.4" y="711.6"/>
			<point x="512.4" y="856.2" type="curve" smooth="yes"/>
			<point x="512.4" y="958.8"/>
			<point x="489.4" y="1068.4"/>
			<point x="489.4" y="1168.4" type="curve" smooth="yes"/>
			<point x="489.4" y="1265.6"/>
			<point x="521.2" y="1329.8"/>
			<point x="634.4" y="1344" type="curve" smooth="yes"/>
			<point x="718.2" y="1354.6" type="line"/>
			<point x="704.6" y="1486" type="line"/>
			<point x="553.8" y="1475" type="line" smooth="yes"/>
			<point x="328.8" y="1458.2"/>
			<point x="236.6" y="1325.2"/>
			<point x="236.6" y="1191.8" type="curve" smooth="yes"/>
			<point x="236.6" y="1060.2"/>
			<point x="292" y="950.8"/>
			<point x="292" y="818.8" type="curve" smooth="yes"/>
			<point x="292" y="732.2"/>
			<point x="249.2" y="690.2"/>
			<point x="146.4" y="687.8" type="curve" smooth="yes"/>
			<point x="72.2" y="685.6" type="line"/>
		</contour>
	</outline>
</glyph>
<glyph name="braceright" format="2">
	<unicode hex="007D"/>
	<advance width="794.6"/>
	<outline>
		<contour>
			<point x="722.4" y="687.2" type="line"/>
			<point x="648.2" y="688.6" type="line" smooth="yes"/>
			<point x="545.4" y="691"/>
			<point x="502.6" y="733"/>
			<point x="502.6" y="818.8" type="curve" smooth="yes"/>
			<point x="502.6" y="950.8"/>
			<point x="558" y="1060.2"/>
			<point x="558" y="1193.4" type="curve" smooth="yes"/>
			<point x="558" y="1326.8"/>
			<point x="465.8" y="1458.2"/>
			<point x="240.8" y="1475" type="curve" smooth="yes"/>
			<point x="90" y="1486" type="line"/>
			<point x="76.4" y="1355.4" type="line"/>
			<point x="160.2" y="1344.8" type="line" smooth="yes"/>
			<point x="273.4" y="1330.6"/>
			<point x="305.2" y="1265.6"/>
			<point x="305.2" y="1169.2" type="curve" smooth="yes"/>
			<point x="305.2" y="1068.4"/>
			<point x="282.2" y="959.6"/>
			<point x="282.2" y="856.2" type="curve" smooth="yes"/>
			<point x="282.2" y="713.2"/>
			<point x="360.4" y="629"/>
			<point x="554.4" y="595.8" type="curve"/>
			<point x="554.4" y="647.8" type="line"/>
			<point x="360.4" y="615.4"/>
			<point x="282.2" y="531.2"/>
			<point x="282.2" y="386.6" type="curve" smooth="yes"/>
			<point x="282.2" y="284"/>
			<point x="305.2" y="174.4"/>
			<point x="305.2" y="74.4" type="curve" smooth="yes"/>
			<point x="305.2" y="-22.8"/>
			<point x="273.4" y="-87"/>
			<point x="160.2" y="-101.2" type="curve" smooth="yes"/>
			<point x="76.4" y="-111.8" type="line"/>
			<point x="90" y="-243.2" type="line"/>
			<point x="240.8" y="-232.2" type="line" smooth="yes"/>
			<point x="465.8" y="-215.4"/>
			<point x="558" y="-82.4"/>
			<point x="558" y="51" type="curve" smooth="yes"/>
			<point x="558" y="182.6"/>
			<point x="502.6" y="292"/>
			<point x="502.6" y="424" type="curve" smooth="yes"/>
			<point x="502.6" y="510.6"/>
			<point x="545.4" y="552.6"/>
			<point x="648.2" y="555" type="curve" smooth="yes"/>
			<point x="722.4" y="557.2" type="line"/>
		</contour>
	</outline>
</glyph>
<glyph name="asciitilde" format="2">
	<unicode hex="007E"/>
	<advance width="1140"/>
	<outline>
		<contour>
			<point x="131.4" y="358.8" type="curve"/>
			<point x="311.6" y="358.8" type="line"/>
			<point x="317.6" y="459"/>
			<point x="347.4" y="503.8"/>
			<point x="421.8" y="503.8" type="curve" smooth="yes"/>
			<point x="526" y="503.8"/>
			<point x="582" y="347.4"/>
			<point x="765.2" y="347.4" type="curve" smooth="yes"/>
			<point x="916.2" y="347.4"/>
			<point x="1008.8" y="442.4"/>
			<point x="1010.6" y="676.2" type="curve"/>
			<point x="830.4" y="676.2" type="line"/>
			<point x="824.4" y="575"/>
			<point x="794.6" y="531.2"/>
			<point x="720.2" y="531.2" type="curve" smooth="yes"/>
			<point x="616" y="531.2"/>
			<point x="560" y="686.8"/>
			<point x="376.8" y="686.8" type="curve" smooth="yes"/>
			<point x="225.8" y="686.8"/>
			<point x="133.2" y="592.6"/>
		</contour>
	</outline>
</glyph>
<glyph name="exclamdown" format="2">
	<unicode hex="00A1"/>
	<advance width="645.6"/>
	<outline>
		<contour>
			<point x="168.4" y="-344.2" type="line" smooth="yes"/>
			<point x="167.6" y="-384.8"/>
			<point x="193.6" y="-406.8"/>
			<point x="322.8" y="-406.8" type="curve" smooth="yes"/>
			<point x="451.6" y="-406.8"/>
			<point x="478" y="-384.8"/>
			<point x="477.2" y="-344.2" type="curve" smooth="yes"/>
			<point x="476.2" y="-268.6" type="line" smooth="yes"/>
			<point x="474.8" y="-211.8"/>
			<point x="416.6" y="419"/>
			<point x="401.2" y="567" type="curve"/>
			<point x="244.4" y="567" type="line"/>
			<point x="229.8" y="419"/>
			<point x="170.8" y="-211.8"/>
			<point x="169.4" y="-268.6" type="curve" smooth="yes"/>
		</contour>
		<contour>
			<point x="322.8" y="709.2" type="curve" smooth="yes"/>
			<point x="431.8" y="709.2"/>
			<point x="499.8" y="767.8"/>
			<point x="499.8" y="875.4" type="curve" smooth="yes"/>
			<point x="499.8" y="984"/>
			<point x="431.8" y="1043.2"/>
			<point x="322.8" y="1043.2" type="curve" smooth="yes"/>
			<point x="213.8" y="1043.2"/>
			<point x="145.8" y="984"/>
			<point x="145.8" y="875.4" type="curve" smooth="yes"/>
			<point x="145.8" y="767.8"/>
			<point x="213.8" y="709.2"/>
		</contour>
	</outline>
</glyph>
<glyph name="currency" format="2">
	<unicode hex="00A4"/>
	<advance width="1148.8"/>
	<outline>
		<contour>
			<point x="269.2" y="942.6" type="line"/>
			<point x="148.4" y="822.6" type="line"/>
			<point x="308" y="663" type="line"/>
			<point x="428.8" y="783" type="line"/>
		</contour>
		<contour>
			<point x="148.4" y="211.4" type="line"/>
			<point x="269.2" y="91.4" type="line"/>
			<point x="437.6" y="259.8" type="line"/>
			<point x="317.6" y="380.6" type="line"/>
		</contour>
		<contour>
			<point x="574.8" y="872.4" type="curve" smooth="yes"/>
			<point x="358.8" y="872.4"/>
			<point x="214" y="730.8"/>
			<point x="214" y="518" type="curve" smooth="yes"/>
			<point x="214" y="304.4"/>
			<point x="358.8" y="162.8"/>
			<point x="574.8" y="162.8" type="curve" smooth="yes"/>
			<point x="790" y="162.8"/>
			<point x="934.8" y="304.4"/>
			<point x="934.8" y="518" type="curve" smooth="yes"/>
			<point x="934.8" y="730.8"/>
			<point x="790" y="872.4"/>
		</contour>
		<contour>
			<point x="574.8" y="309.8" type="curve" smooth="yes"/>
			<point x="451.8" y="309.8"/>
			<point x="368.2" y="392.8"/>
			<point x="368.2" y="518" type="curve" smooth="yes"/>
			<point x="368.2" y="642.4"/>
			<point x="451.8" y="725.4"/>
			<point x="574.8" y="725.4" type="curve" smooth="yes"/>
			<point x="697" y="725.4"/>
			<point x="780.6" y="642.4"/>
			<point x="780.6" y="518" type="curve" smooth="yes"/>
			<point x="780.6" y="392.8"/>
			<point x="697" y="309.8"/>
		</contour>
		<contour>
			<point x="1000.4" y="822.6" type="line"/>
			<point x="879.6" y="942.6" type="line"/>
			<point x="716.2" y="779.2" type="line"/>
			<point x="836.2" y="659.2" type="line"/>
		</contour>
		<contour>
			<point x="1000.4" y="211.4" type="line"/>
			<point x="840.8" y="371" type="line"/>
			<point x="720" y="251" type="line"/>
			<point x="879.6" y="91.4" type="line"/>
		</contour>
	</outline>
</glyph>
<glyph name="brokenbar" format="2">
  <advance width="617.1999999999999"/>
  <unicode hex="00A6"/>
  <outline>
    <contour>
      <point x="402.59999999999997" y="765.0" type="line"/>
      <point x="402.59999999999997" y="1535.0" type="line"/>
      <point x="214.6" y="1535.0" type="line"/>
      <point x="214.6" y="765.0" type="line"/>
    </contour>
    <contour>
      <point x="214.6" y="-465.0" type="line"/>
      <point x="402.59999999999997" y="-465.0" type="line"/>
      <point x="402.59999999999997" y="305.0" type="line"/>
      <point x="214.6" y="305.0" type="line"/>
    </contour>
  </outline>
</glyph>
<glyph name="section" format="2">
  <advance width="1340.3999999999999"/>
  <unicode hex="00A7"/>
  <outline>
    <contour>
      <point x="601.0" y="-243.8" type="curve" smooth="yes"/>
      <point x="994.4" y="-243.8"/>
      <point x="1134.2" y="-106.2"/>
      <point x="1134.2" y="81.4" type="curve" smooth="yes"/>
      <point x="1134.2" y="558.0"/>
      <point x="345.40000000000003" y="295.0"/>
      <point x="345.40000000000003" y="601.0" type="curve" smooth="yes"/>
      <point x="345.40000000000003" y="719.6"/>
      <point x="445.8" y="797.8000000000001"/>
      <point x="670.2" y="802.0" type="curve"/>
      <point x="559.0" y="846.6" type="line"/>
      <point x="246.2" y="845.6"/>
      <point x="101.2" y="731.6"/>
      <point x="101.2" y="517.8000000000001" type="curve" smooth="yes"/>
      <point x="101.2" y="88.80000000000001"/>
      <point x="889.0" y="298.8"/>
      <point x="889.0" y="34.400000000000006" type="curve" smooth="yes"/>
      <point x="889.0" y="-48.6"/>
      <point x="817.0" y="-95.2"/>
      <point x="640.0" y="-95.2" type="curve" smooth="yes"/>
      <point x="450.0" y="-95.2"/>
      <point x="353.4" y="54.8"/>
      <point x="326.8" y="54.8" type="curve" smooth="yes"/>
      <point x="253.4" y="54.8"/>
      <point x="187.6" y="3.8"/>
      <point x="187.6" y="-65.6" type="curve" smooth="yes"/>
      <point x="187.6" y="-176.2"/>
      <point x="273.0" y="-243.8"/>
    </contour>
    <contour>
      <point x="994.8000000000001" y="591.1999999999999" type="curve" smooth="yes"/>
      <point x="994.8000000000001" y="472.59999999999997"/>
      <point x="895.1999999999999" y="394.4"/>
      <point x="670.8" y="390.20000000000005" type="curve"/>
      <point x="781.1999999999999" y="345.6" type="line"/>
      <point x="1094.0" y="346.59999999999997"/>
      <point x="1239.0" y="460.6"/>
      <point x="1239.0" y="674.4" type="curve" smooth="yes"/>
      <point x="1239.0" y="1103.3999999999999"/>
      <point x="452.0" y="893.4"/>
      <point x="452.0" y="1157.8000000000002" type="curve" smooth="yes"/>
      <point x="452.0" y="1240.8"/>
      <point x="523.2" y="1287.4"/>
      <point x="700.2" y="1287.4" type="curve" smooth="yes"/>
      <point x="891.0" y="1287.4"/>
      <point x="986.8000000000001" y="1137.4"/>
      <point x="1013.4" y="1137.4" type="curve" smooth="yes"/>
      <point x="1087.6" y="1137.4"/>
      <point x="1152.6" y="1188.4"/>
      <point x="1152.6" y="1257.8" type="curve" smooth="yes"/>
      <point x="1152.6" y="1368.3999999999999"/>
      <point x="1067.2" y="1436.0"/>
      <point x="739.1999999999999" y="1436.0" type="curve" smooth="yes"/>
      <point x="345.8" y="1436.0"/>
      <point x="206.0" y="1298.4"/>
      <point x="206.0" y="1110.8" type="curve" smooth="yes"/>
      <point x="206.0" y="634.2"/>
      <point x="994.8000000000001" y="897.1999999999999"/>
    </contour>
  </outline>
</glyph>
<glyph name="copyright" format="2">
	<unicode hex="00A9"/>
	<advance width="1725.6"/>
	<outline>
		<contour>
			<point x="862.8" y="1436" type="curve" smooth="yes"/>
			<point x="401.4" y="1436"/>
			<point x="126.6" y="1171.4"/>
			<point x="126.6" y="707" type="curve" smooth="yes"/>
			<point x="126.6" y="242.6"/>
			<point x="401.4" y="-22"/>
			<point x="862.8" y="-22" type="curve" smooth="yes"/>
			<point x="1324.2" y="-22"/>
			<point x="1599.8" y="242.6"/>
			<point x="1599.8" y="707" type="curve" smooth="yes"/>
			<point x="1599.8" y="1171.4"/>
			<point x="1324.2" y="1436"/>
		</contour>
		<contour>
			<point x="862.8" y="1320.6" type="curve" smooth="yes"/>
			<point x="1249" y="1320.6"/>
			<point x="1472.6" y="1105.2"/>
			<point x="1472.6" y="707" type="curve" smooth="yes"/>
			<point x="1472.6" y="308.8"/>
			<point x="1249" y="93.4"/>
			<point x="862.8" y="93.4" type="curve" smooth="yes"/>
			<point x="477.4" y="93.4"/>
			<point x="253.8" y="308.8"/>
			<point x="253.8" y="707" type="curve" smooth="yes"/>
			<point x="253.8" y="1105.2"/>
			<point x="477.4" y="1320.6"/>
		</contour>
		<contour>
			<point x="949.2" y="417.2" type="curve"/>
			<point x="757.6" y="417.2"/>
			<point x="650.8" y="501.8"/>
			<point x="650.8" y="705.8" type="curve" smooth="yes"/>
			<point x="650.8" y="919"/>
			<point x="748" y="1000.6"/>
			<point x="920.4" y="1000.6" type="curve" smooth="yes"/>
			<point x="1010.6" y="1000.6"/>
			<point x="1072.2" y="984.8"/>
			<point x="1141" y="945.2" type="curve"/>
			<point x="1071.6" y="1044.4" type="line"/>
			<point x="1125" y="834.6" type="line"/>
			<point x="1207.4" y="834.6" type="line"/>
			<point x="1207.4" y="1140" type="line"/>
			<point x="1141.4" y="1140" type="line"/>
			<point x="1091.8" y="1065.2" type="line"/>
			<point x="1153" y="1082.8" type="line"/>
			<point x="1080.4" y="1108.8"/>
			<point x="998.6" y="1123"/>
			<point x="909" y="1123" type="curve" smooth="yes"/>
			<point x="610.4" y="1123"/>
			<point x="449.2" y="958.6"/>
			<point x="449.2" y="700.8" type="curve" smooth="yes"/>
			<point x="449.2" y="426.8"/>
			<point x="605.2" y="301"/>
			<point x="912.4" y="301" type="curve" smooth="yes"/>
			<point x="1011.4" y="301"/>
			<point x="1099.8" y="316.4"/>
			<point x="1180.4" y="344.2" type="curve"/>
			<point x="1213" y="572" type="line"/>
			<point x="1136.4" y="572" type="line"/>
			<point x="1051.8" y="360.8" type="line"/>
			<point x="1132.2" y="453.2" type="line"/>
			<point x="1076.6" y="428.2"/>
			<point x="1003.2" y="417.2"/>
		</contour>
	</outline>
</glyph>
<glyph name="ordfeminine" format="2">
	<unicode hex="00AA"/>
	<advance width="1024.8"/>
	<outline>
		<contour>
			<point x="153.6" y="490.4" type="line"/>
			<point x="881.4" y="490.4" type="line"/>
			<point x="881.4" y="640" type="line"/>
			<point x="153.6" y="640" type="line"/>
		</contour>
		<contour>
			<point x="616.2" y="1087" type="curve"/>
			<point x="616.2" y="1191" type="line"/>
			<point x="230.6" y="1128.8"/>
			<point x="154" y="1071.2"/>
			<point x="154" y="938.8" type="curve" smooth="yes"/>
			<point x="154" y="819.6"/>
			<point x="228.2" y="760.2"/>
			<point x="378.8" y="760.2" type="curve" smooth="yes"/>
			<point x="510.8" y="760.2"/>
			<point x="582.8" y="813.6"/>
			<point x="615.2" y="959.6" type="curve"/>
			<point x="601.2" y="957.6" type="line"/>
			<point x="602.4" y="814.4"/>
			<point x="641.6" y="764.2"/>
			<point x="739" y="764.2" type="curve" smooth="yes"/>
			<point x="793.4" y="764.2"/>
			<point x="844.2" y="776.6"/>
			<point x="899.6" y="801.4" type="curve"/>
			<point x="899.6" y="886.8" type="line"/>
			<point x="872.6" y="878.8"/>
			<point x="859.4" y="877"/>
			<point x="844" y="877" type="curve" smooth="yes"/>
			<point x="802.2" y="877"/>
			<point x="789" y="890.8"/>
			<point x="789" y="950.4" type="curve" smooth="yes"/>
			<point x="789" y="1206.4" type="line" smooth="yes"/>
			<point x="789" y="1367"/>
			<point x="723.6" y="1436.8"/>
			<point x="530.4" y="1436.8" type="curve" smooth="yes"/>
			<point x="343.8" y="1436.8"/>
			<point x="164.2" y="1341.6"/>
			<point x="164.2" y="1261.6" type="curve" smooth="yes"/>
			<point x="164.2" y="1231.2"/>
			<point x="190.4" y="1213.4"/>
			<point x="243.8" y="1213.4" type="curve" smooth="yes"/>
			<point x="301.4" y="1213.4"/>
			<point x="321" y="1227.2"/>
			<point x="339.2" y="1255" type="curve" smooth="yes"/>
			<point x="356.6" y="1281.6"/>
			<point x="367.4" y="1319.6"/>
			<point x="380.4" y="1376.2" type="curve"/>
			<point x="316.6" y="1310.6" type="line"/>
			<point x="367.6" y="1324.8"/>
			<point x="405" y="1330.6"/>
			<point x="453" y="1330.6" type="curve" smooth="yes"/>
			<point x="559" y="1330.6"/>
			<point x="594.8" y="1289.4"/>
			<point x="594.8" y="1201.6" type="curve" smooth="yes"/>
			<point x="594.8" y="991.2" type="line" smooth="yes"/>
			<point x="594.8" y="927.6"/>
			<point x="546.2" y="883.6"/>
			<point x="459" y="883.6" type="curve" smooth="yes"/>
			<point x="374.8" y="883.6"/>
			<point x="346" y="907.4"/>
			<point x="346" y="962" type="curve" smooth="yes"/>
			<point x="346" y="1028"/>
			<point x="389.8" y="1055.6"/>
		</contour>
	</outline>
</glyph>
<glyph name="guillemotleft" format="2">
	<unicode hex="00AB"/>
	<advance width="1292.2"/>
	<outline>
		<contour>
			<point x="344" y="560.4" type="line"/>
			<point x="344" y="483.6" type="line"/>
			<point x="646" y="898.2" type="line"/>
			<point x="535.6" y="1001.2" type="line"/>
			<point x="97.6" y="602.8" type="line"/>
			<point x="97.6" y="441.2" type="line"/>
			<point x="535.6" y="42.8" type="line"/>
			<point x="646" y="145.8" type="line"/>
		</contour>
		<contour>
			<point x="888" y="560.4" type="line"/>
			<point x="888" y="483.6" type="line"/>
			<point x="1190" y="898.2" type="line"/>
			<point x="1079.6" y="1001.2" type="line"/>
			<point x="641.6" y="602.8" type="line"/>
			<point x="641.6" y="441.2" type="line"/>
			<point x="1079.6" y="42.8" type="line"/>
			<point x="1190" y="145.8" type="line"/>
		</contour>
	</outline>
</glyph>
<glyph name="logicalnot" format="2">
  <advance width="1140.0"/>
  <unicode hex="00AC"/>
  <outline>
    <contour>
      <point x="114.2" y="801.4" type="line"/>
      <point x="114.2" y="620.6" type="line"/>
      <point x="1009.0" y="620.6" type="line"/>
      <point x="1009.0" y="801.4" type="line"/>
    </contour>
    <contour>
      <point x="1009.0" y="732.4" type="line"/>
      <point x="828.2" y="732.4" type="line"/>
      <point x="828.2" y="227.4" type="line"/>
      <point x="1009.0" y="227.4" type="line"/>
    </contour>
  </outline>
</glyph>
<glyph name="registered" format="2">
	<unicode hex="00AE"/>
	<advance width="1194"/>
	<outline>
		<contour>
			<point x="594.6" y="1436" type="curve" smooth="yes"/>
			<point x="294.713740458" y="1436"/>
			<point x="126.2" y="1277.8"/>
			<point x="126.2" y="996.4" type="curve" smooth="yes"/>
			<point x="126.2" y="715"/>
			<point x="294.713740458" y="556.8"/>
			<point x="594.6" y="556.8" type="curve" smooth="yes"/>
			<point x="898.2878787879" y="556.8"/>
			<point x="1067.8" y="715"/>
			<point x="1067.8" y="996.4" type="curve" smooth="yes"/>
			<point x="1067.8" y="1277.8"/>
			<point x="898.2878787879" y="1436"/>
		</contour>
		<contour>
			<point x="594.6" y="1347.2" type="curve" smooth="yes"/>
			<point x="852.2" y="1347.2"/>
			<point x="966" y="1223.0137931034"/>
			<point x="966" y="996.4" type="curve" smooth="yes"/>
			<point x="966" y="769.7936599424"/>
			<point x="852.2" y="646.4"/>
			<point x="594.6" y="646.4" type="curve" smooth="yes"/>
			<point x="338.6" y="646.4"/>
			<point x="228.8" y="769.7936599424"/>
			<point x="228.8" y="996.4" type="curve" smooth="yes"/>
			<point x="228.8" y="1223.0137931034"/>
			<point x="338.6" y="1347.2"/>
		</contour>
		<contour>
			<point x="483.2" y="1033.4" type="line"/>
			<point x="488" y="974.8" type="line"/>
			<point x="602" y="974.8" type="line" smooth="yes"/>
			<point x="646" y="974.8"/>
			<point x="656.4" y="968.6"/>
			<point x="663.6" y="927.8" type="curve" smooth="yes"/>
			<point x="674.4" y="857.2" type="line" smooth="yes"/>
			<point x="683.4" y="796.8"/>
			<point x="717.8" y="783"/>
			<point x="852.6" y="794.8" type="curve"/>
			<point x="852.6" y="845.6" type="line"/>
			<point x="815" y="845.6"/>
			<point x="807" y="850.6"/>
			<point x="803" y="885.4" type="curve" smooth="yes"/>
			<point x="796.6" y="931.4" type="line" smooth="yes"/>
			<point x="790.6" y="980"/>
			<point x="768.8" y="1001"/>
			<point x="703.2" y="1005" type="curve"/>
			<point x="700.8" y="1003.2" type="line"/>
			<point x="783" y="1009.6"/>
			<point x="819.2" y="1048.6"/>
			<point x="819.2" y="1115.2" type="curve" smooth="yes"/>
			<point x="819.2" y="1190.4"/>
			<point x="772.8" y="1225.8"/>
			<point x="663" y="1225.8" type="curve" smooth="yes"/>
			<point x="479.2" y="1225.8" type="line"/>
			<point x="483.2" y="1150" type="line"/>
			<point x="624.8" y="1150" type="line" smooth="yes"/>
			<point x="678.2" y="1150"/>
			<point x="693.4" y="1133.2"/>
			<point x="693.4" y="1092.6" type="curve" smooth="yes"/>
			<point x="693.4" y="1051.8"/>
			<point x="672.6" y="1033.4"/>
			<point x="627.4" y="1033.4" type="curve" smooth="yes"/>
		</contour>
		<contour>
			<point x="425" y="1175.4" type="line"/>
			<point x="425" y="845.4" type="line"/>
			<point x="369" y="833.2" type="line"/>
			<point x="369" y="794.8" type="line"/>
			<point x="602" y="794.8" type="line"/>
			<point x="602" y="833.2" type="line"/>
			<point x="554.6" y="845.4" type="line"/>
			<point x="554.6" y="1225.8" type="line"/>
			<point x="369" y="1225.8" type="line"/>
			<point x="369" y="1186.4" type="line"/>
		</contour>
	</outline>
</glyph>
<glyph name="degree" format="2">
	<unicode hex="00B0"/>
	<advance width="789.8"/>
	<outline>
		<contour>
			<point x="394.4" y="1434" type="curve" smooth="yes"/>
			<point x="222.4" y="1434"/>
			<point x="98.4" y="1313"/>
			<point x="98.4" y="1140" type="curve" smooth="yes"/>
			<point x="98.4" y="967"/>
			<point x="222.4" y="846"/>
			<point x="394.4" y="846" type="curve" smooth="yes"/>
			<point x="567.4" y="846"/>
			<point x="691.4" y="967"/>
			<point x="691.4" y="1140" type="curve" smooth="yes"/>
			<point x="691.4" y="1313"/>
			<point x="567.4" y="1434"/>
		</contour>
		<contour>
			<point x="394.4" y="974.2" type="curve" smooth="yes"/>
			<point x="300.6" y="974.2"/>
			<point x="232.8" y="1040.2"/>
			<point x="232.8" y="1140" type="curve" smooth="yes"/>
			<point x="232.8" y="1239.8"/>
			<point x="300.6" y="1305.8"/>
			<point x="394.4" y="1305.8" type="curve" smooth="yes"/>
			<point x="489.2" y="1305.8"/>
			<point x="556" y="1239.8"/>
			<point x="556" y="1140" type="curve" smooth="yes"/>
			<point x="556" y="1040.2"/>
			<point x="489.2" y="974.2"/>
		</contour>
	</outline>
</glyph>
<glyph name="plusminus" format="2">
  <advance width="1140.0"/>
  <unicode hex="00B1"/>
  <outline>
    <contour>
      <point x="480.0" y="1035.2" type="line"/>
      <point x="480.0" y="157.6" type="line"/>
      <point x="660.8" y="157.6" type="line"/>
      <point x="660.8" y="1035.2" type="line"/>
    </contour>
    <contour>
      <point x="131.6" y="686.8" type="line"/>
      <point x="131.6" y="506.0" type="line"/>
      <point x="1009.2" y="506.0" type="line"/>
      <point x="1009.2" y="686.8" type="line"/>
    </contour>
    <contour>
      <point x="131.6" y="180.8" type="line"/>
      <point x="131.6" y="0.0" type="line"/>
      <point x="1009.2" y="0.0" type="line"/>
      <point x="1009.2" y="180.8" type="line"/>
    </contour>
  </outline>
</glyph>
<glyph name="uni00B2" format="2">
	<unicode hex="00B2"/>
	<advance width="828"/>
	<outline>
		<contour>
			<point x="551.6" y="731.6" type="line"/>
			<point x="704.2" y="829.8" type="line"/>
			<point x="239" y="829.8" type="line"/>
			<point x="244" y="771.6" type="line"/>
			<point x="420" y="898.6" type="line" smooth="yes"/>
			<point x="639.8" y="1048.2"/>
			<point x="691.2" y="1106"/>
			<point x="691.2" y="1218" type="curve" smooth="yes"/>
			<point x="691.2" y="1356.4"/>
			<point x="585" y="1430"/>
			<point x="408.2" y="1430" type="curve" smooth="yes"/>
			<point x="219.4" y="1430"/>
			<point x="119.8084781468" y="1348.7237080417"/>
			<point x="64.6" y="1165.4" type="curve"/>
			<point x="161.2" y="1130" type="line"/>
			<point x="200.4" y="1231.2"/>
			<point x="247.8" y="1278.2"/>
			<point x="344" y="1278.2" type="curve" smooth="yes"/>
			<point x="435" y="1278.2"/>
			<point x="478" y="1236.4"/>
			<point x="478" y="1172" type="curve" smooth="yes"/>
			<point x="478" y="1101.4"/>
			<point x="439.6" y="1055.8"/>
			<point x="300.6" y="938.8" type="curve" smooth="yes"/>
			<point x="111.8" y="777.6" type="line"/>
			<point x="111.8" y="662" type="line"/>
			<point x="598.4" y="662" type="line"/>
			<point x="629" y="625" type="line"/>
			<point x="698.4" y="625" type="line"/>
			<point x="756.2" y="925.8" type="line"/>
			<point x="663.8" y="925.8" type="line"/>
		</contour>
	</outline>
</glyph>
<glyph name="uni00B3" format="2">
	<unicode hex="00B3"/>
	<advance width="787.6"/>
	<outline>
		<contour>
			<point x="311.2" y="650" type="curve" smooth="yes"/>
			<point x="588.4" y="650"/>
			<point x="706" y="750"/>
			<point x="706" y="914" type="curve" smooth="yes"/>
			<point x="706" y="1046.4"/>
			<point x="600.8" y="1109.8"/>
			<point x="426.2" y="1097" type="curve"/>
			<point x="435.4" y="1090" type="line"/>
			<point x="587.6" y="1107.4"/>
			<point x="655.8" y="1175.2"/>
			<point x="655.8" y="1266.4" type="curve" smooth="yes"/>
			<point x="655.8" y="1370"/>
			<point x="576.8" y="1430"/>
			<point x="406.8" y="1430" type="curve" smooth="yes"/>
			<point x="225.8" y="1430"/>
			<point x="136" y="1358.2"/>
			<point x="81.4" y="1211" type="curve"/>
			<point x="169" y="1168.8" type="line"/>
			<point x="205.6" y="1249.8"/>
			<point x="257" y="1291.8"/>
			<point x="341.8" y="1291.8" type="curve" smooth="yes"/>
			<point x="417.4" y="1291.8"/>
			<point x="453" y="1256"/>
			<point x="453" y="1202.2" type="curve" smooth="yes"/>
			<point x="453" y="1131.8"/>
			<point x="420.4" y="1097.4"/>
			<point x="267" y="1077.4" type="curve"/>
			<point x="277.4" y="982.6" type="line"/>
			<point x="319.8" y="986.4" type="line" smooth="yes"/>
			<point x="466.6" y="999.6"/>
			<point x="503.2" y="962.6"/>
			<point x="503.2" y="888.4" type="curve" smooth="yes"/>
			<point x="503.2" y="792.8"/>
			<point x="439" y="759"/>
			<point x="331.2" y="759" type="curve" smooth="yes"/>
			<point x="222.8" y="759"/>
			<point x="176.8" y="841.4"/>
			<point x="163" y="841.4" type="curve" smooth="yes"/>
			<point x="113.2" y="841.4"/>
			<point x="80.4" y="808.4"/>
			<point x="80.4" y="760.4" type="curve" smooth="yes"/>
			<point x="80.4" y="698.2"/>
			<point x="136.2" y="650"/>
		</contour>
	</outline>
</glyph>
<glyph name="uni00B5" format="2">
  <advance width="1403.8"/>
  <unicode hex="00B5"/>
  <outline>
    <contour>
      <point x="212.8" y="1028.0" type="line"/>
      <point x="212.8" y="-458.0" type="line"/>
      <point x="256.4" y="-458.0" type="line"/>
      <point x="483.6" y="-437.6" type="line"/>
      <point x="370.4" y="173.4" type="line"/>
      <point x="346.8" y="143.0" type="line"/>
      <point x="389.0" y="46.6"/>
      <point x="445.79999999999995" y="-18.0"/>
      <point x="561.5999999999999" y="-18.0" type="curve" smooth="yes"/>
      <point x="657.6" y="-18.0"/>
      <point x="694.0" y="-3.5999999999999996"/>
      <point x="923.2" y="180.2" type="curve"/>
      <point x="907.4" y="240.6" type="line"/>
      <point x="832.8" y="217.39999999999998"/>
      <point x="742.4000000000001" y="201.20000000000002"/>
      <point x="664.8000000000001" y="201.20000000000002" type="curve" smooth="yes"/>
      <point x="520.0" y="201.20000000000002"/>
      <point x="466.4" y="247.79999999999998"/>
      <point x="466.4" y="363.8" type="curve" smooth="yes"/>
      <point x="466.4" y="1028.0" type="line"/>
    </contour>
    <contour>
      <point x="1144.4" y="261.0" type="curve" smooth="yes"/>
      <point x="1144.4" y="1028.0" type="line"/>
      <point x="890.8" y="1028.0" type="line"/>
      <point x="890.8" y="262.40000000000003" type="line" smooth="yes"/>
      <point x="890.8" y="80.4"/>
      <point x="975.4" y="-18.0"/>
      <point x="1113.2" y="-18.0" type="curve" smooth="yes"/>
      <point x="1192.2" y="-18.0"/>
      <point x="1277.4" y="12.6"/>
      <point x="1346.8" y="70.0" type="curve"/>
      <point x="1346.8" y="169.6" type="line"/>
      <point x="1310.0" y="162.20000000000002"/>
      <point x="1277.8000000000002" y="157.79999999999998"/>
      <point x="1250.2" y="157.79999999999998" type="curve" smooth="yes"/>
      <point x="1181.0" y="157.79999999999998"/>
      <point x="1144.4" y="185.60000000000002"/>
    </contour>
  </outline>
</glyph>
<glyph name="paragraph" format="2">
	<unicode hex="00B6"/>
	<advance width="1393"/>
	<outline>
		<contour>
			<point x="730" y="1414" type="line"/>
			<point x="482.2" y="1414" type="line" smooth="yes"/>
			<point x="183.8" y="1414"/>
			<point x="62.6" y="1291.4"/>
			<point x="62.6" y="1059.4" type="curve" smooth="yes"/>
			<point x="62.6" y="824.8"/>
			<point x="190" y="706"/>
			<point x="447" y="706" type="curve" smooth="yes"/>
			<point x="730" y="706" type="line"/>
		</contour>
		<contour>
			<point x="786.2" y="-221" type="line"/>
			<point x="786.2" y="1287.8" type="line"/>
			<point x="1030.4" y="1287.8" type="line"/>
			<point x="1030.4" y="1414" type="line"/>
			<point x="640.8" y="1414" type="line"/>
			<point x="640.8" y="-221" type="line"/>
		</contour>
		<contour>
			<point x="1110" y="-221" type="line"/>
			<point x="1110" y="1287.6" type="line"/>
			<point x="1307.6" y="1317.8" type="line"/>
			<point x="1307.6" y="1414" type="line"/>
			<point x="964.6" y="1414" type="line"/>
			<point x="964.6" y="-221" type="line"/>
		</contour>
	</outline>
</glyph>
<glyph name="uni00B9" format="2">
  <advance width="698.0"/>
  <unicode hex="00B9"/>
  <outline>
    <contour>
      <point x="284.2" y="775.1999999999999" type="line"/>
      <point x="132.39999999999998" y="745.8" type="line"/>
      <point x="132.39999999999998" y="662.0" type="line"/>
      <point x="630.8000000000001" y="662.0" type="line"/>
      <point x="630.8000000000001" y="745.8" type="line"/>
      <point x="493.0" y="775.1999999999999" type="line"/>
      <point x="493.0" y="1414.0" type="line"/>
      <point x="337.0" y="1414.0" type="line"/>
      <point x="49.4" y="1261.6" type="line"/>
      <point x="88.60000000000001" y="1169.2" type="line"/>
      <point x="335.6" y="1263.6" type="line"/>
      <point x="284.2" y="1348.8" type="line"/>
    </contour>
  </outline>
</glyph>
<glyph name="ordmasculine" format="2">
	<unicode hex="00BA"/>
	<advance width="1043.4"/>
	<outline>
		<contour>
			<point x="157.8" y="490.4" type="line"/>
			<point x="885.6" y="490.4" type="line"/>
			<point x="885.6" y="640" type="line"/>
			<point x="157.8" y="640" type="line"/>
		</contour>
		<contour>
			<point x="516.6" y="899.4" type="curve" smooth="yes"/>
			<point x="399" y="899.4"/>
			<point x="340.8" y="966"/>
			<point x="340.8" y="1100.8" type="curve" smooth="yes"/>
			<point x="340.8" y="1232"/>
			<point x="402.6" y="1296.6"/>
			<point x="526.8" y="1296.6" type="curve" smooth="yes"/>
			<point x="644.4" y="1296.6"/>
			<point x="702.6" y="1230.2"/>
			<point x="702.6" y="1095.2" type="curve" smooth="yes"/>
			<point x="702.6" y="964"/>
			<point x="641" y="899.4"/>
		</contour>
		<contour>
			<point x="513.6" y="760.2" type="curve" smooth="yes"/>
			<point x="763.2" y="760.2"/>
			<point x="896.8" y="873.6"/>
			<point x="896.8" y="1100" type="curve" smooth="yes"/>
			<point x="896.8" y="1319.2"/>
			<point x="762.6" y="1436"/>
			<point x="529.6" y="1436" type="curve" smooth="yes"/>
			<point x="280.2" y="1436"/>
			<point x="146.6" y="1322.6"/>
			<point x="146.6" y="1096.6" type="curve" smooth="yes"/>
			<point x="146.6" y="877"/>
			<point x="280.8" y="760.2"/>
		</contour>
	</outline>
</glyph>
<glyph name="questiondown" format="2">
	<unicode hex="00BF"/>
	<advance width="1241.2"/>
	<outline>
		<contour>
			<point x="674.8" y="-410" type="curve" smooth="yes"/>
			<point x="1074.2" y="-410"/>
			<point x="1186" y="-306.2"/>
			<point x="1186" y="-200.4" type="curve" smooth="yes"/>
			<point x="1186" y="-122.2"/>
			<point x="1128.6" y="-74.2"/>
			<point x="1042" y="-74.2" type="curve" smooth="yes"/>
			<point x="974.2" y="-74.2"/>
			<point x="903.6" y="-240.6"/>
			<point x="676.4" y="-240.6" type="curve" smooth="yes"/>
			<point x="456.4" y="-240.6"/>
			<point x="365.8" y="-134.2"/>
			<point x="365.8" y="-5.6" type="curve" smooth="yes"/>
			<point x="365.8" y="150.8"/>
			<point x="457.8" y="214.4"/>
			<point x="783.8" y="212.8" type="curve"/>
			<point x="745.4" y="573.2" type="line"/>
			<point x="576.8" y="573.2" type="line"/>
			<point x="546.8" y="299.2" type="line"/>
			<point x="616.2" y="386" type="line"/>
			<point x="216.6" y="376"/>
			<point x="80.8" y="232.4"/>
			<point x="80.8" y="-10.6" type="curve" smooth="yes"/>
			<point x="80.8" y="-236.6"/>
			<point x="280.2" y="-410"/>
		</contour>
		<contour>
			<point x="664" y="709.2" type="curve" smooth="yes"/>
			<point x="773" y="709.2"/>
			<point x="841" y="767.8"/>
			<point x="841" y="875.4" type="curve" smooth="yes"/>
			<point x="841" y="984"/>
			<point x="773" y="1043.2"/>
			<point x="664" y="1043.2" type="curve" smooth="yes"/>
			<point x="555" y="1043.2"/>
			<point x="487" y="984"/>
			<point x="487" y="875.4" type="curve" smooth="yes"/>
			<point x="487" y="767.8"/>
			<point x="555" y="709.2"/>
		</contour>
	</outline>
</glyph>
<glyph name="AE" format="2">
	<unicode hex="00C6"/>
	<advance width="2398"/>
	<outline>
		<contour>
			<point x="555.6" y="468.8" type="line"/>
			<point x="1229.2" y="468.8" type="line"/>
			<point x="1229.2" y="646.8" type="line"/>
			<point x="555.6" y="646.8" type="line"/>
		</contour>
		<contour>
			<point x="1070" y="1414" type="line"/>
			<point x="172" y="154.6" type="line"/>
			<point x="4" y="112" type="line"/>
			<point x="4" y="0" type="line"/>
			<point x="575.8" y="0" type="line"/>
			<point x="575.8" y="112" type="line"/>
			<point x="395.6" y="155.8" type="line"/>
			<point x="1215.6" y="1309.6" type="line"/>
			<point x="1215.6" y="1414" type="line"/>
		</contour>
		<contour>
			<point x="744.6" y="1302" type="line"/>
			<point x="1041.6" y="1230.2" type="line"/>
			<point x="1099.8" y="1414" type="line"/>
			<point x="744.6" y="1414" type="line"/>
		</contour>
		<contour>
			<point x="1935.8" y="990" type="line"/>
			<point x="1794.2" y="990" type="line"/>
			<point x="1777.2" y="821.2" type="line"/>
			<point x="1290.4" y="821.2" type="line"/>
			<point x="1290.4" y="652.8" type="line"/>
			<point x="1777.2" y="652.8" type="line"/>
			<point x="1794.2" y="480" type="line"/>
			<point x="1935.8" y="480" type="line"/>
			<point x="1935.8" y="735" type="line"/>
		</contour>
		<contour>
			<point x="2257.6" y="1023.2" type="line"/>
			<point x="2257.6" y="1489.6" type="line"/>
			<point x="2140.4" y="1489.6" type="line"/>
			<point x="2052.6" y="1414" type="line"/>
			<point x="1290.4" y="1414" type="line"/>
			<point x="1290.4" y="1237.8" type="line"/>
			<point x="2103.4" y="1237.8" type="line"/>
			<point x="2009.6" y="1339.2" type="line"/>
			<point x="2104.8" y="1023.2" type="line"/>
		</contour>
		<contour>
			<point x="1994.2" y="75.8" type="line"/>
			<point x="2076.2" y="176.2" type="line"/>
			<point x="1290.4" y="176.2" type="line"/>
			<point x="1290.4" y="0" type="line"/>
			<point x="2041.4" y="0" type="line"/>
			<point x="2095.8" y="-78.2" type="line"/>
			<point x="2230.2" y="-78.2" type="line"/>
			<point x="2311.6" y="452.6" type="line"/>
			<point x="2161.4" y="452.6" type="line"/>
		</contour>
		<contour>
			<point x="968.6" y="0" type="line"/>
			<point x="1441" y="0" type="line"/>
			<point x="1441" y="1414" type="line"/>
			<point x="1159" y="1414" type="line"/>
			<point x="1159" y="157.8" type="line"/>
			<point x="968.6" y="112" type="line"/>
		</contour>
	</outline>
	<anchor name="UCtop" x="1303.8" y="1414"/>
	<anchor name="bottom" x="1267.8" y="0"/>
</glyph>
<glyph name="Ccedilla" format="2">
	<unicode hex="00C7"/>
	<advance width="1569.6"/>
	<outline>
		<contour>
			<point x="960.2" y="160.6" type="curve" smooth="yes"/>
			<point x="608.4" y="160.6"/>
			<point x="393.6" y="348.2"/>
			<point x="404.8" y="740.8" type="curve" smooth="yes"/>
			<point x="414.4" y="1083.4"/>
			<point x="564.2" y="1246.8"/>
			<point x="928.4" y="1246.8" type="curve" smooth="yes"/>
			<point x="1057" y="1246.8"/>
			<point x="1147.8" y="1227.2"/>
			<point x="1265.4" y="1165.2" type="curve"/>
			<point x="1180.6" y="1276.8" type="line"/>
			<point x="1272.2" y="945.2" type="line"/>
			<point x="1435.6" y="945.2" type="line"/>
			<point x="1435.6" y="1489.6" type="line"/>
			<point x="1310.2" y="1489.6" type="line"/>
			<point x="1217" y="1370.4" type="line"/>
			<point x="1296" y="1375.8" type="line"/>
			<point x="1180.6" y="1412"/>
			<point x="1067" y="1436"/>
			<point x="925.8" y="1436" type="curve" smooth="yes"/>
			<point x="403.4" y="1436"/>
			<point x="120" y="1163"/>
			<point x="115.2" y="696.8" type="curve" smooth="yes"/>
			<point x="110.4" y="219.2"/>
			<point x="395.4" y="-22"/>
			<point x="931.8" y="-22" type="curve" smooth="yes"/>
			<point x="1121.6" y="-22"/>
			<point x="1297.4" y="11.6"/>
			<point x="1412.8" y="62.2" type="curve"/>
			<point x="1455.6" y="462.6" type="line"/>
			<point x="1313.8" y="462.6" type="line"/>
			<point x="1161" y="99.6" type="line"/>
			<point x="1320" y="228.4" type="line"/>
			<point x="1210.8" y="185"/>
			<point x="1078" y="160.6"/>
		</contour>
		<contour>
			<point x="783" y="-465" type="curve" smooth="yes"/>
			<point x="952.2" y="-465"/>
			<point x="1063.4" y="-407"/>
			<point x="1063.4" y="-278.2" type="curve" smooth="yes"/>
			<point x="1063.4" y="-192.6"/>
			<point x="1022.6" y="-129.2"/>
			<point x="799.6" y="-89.8" type="curve"/>
			<point x="808.8" y="-174.8" type="line"/>
			<point x="976.6" y="28.2" type="line"/>
			<point x="858.2" y="28.2" type="line"/>
			<point x="687" y="-188.8" type="line"/>
			<point x="687" y="-215.4" type="line"/>
			<point x="877.8" y="-245.2"/>
			<point x="905.8" y="-267.2"/>
			<point x="905.8" y="-311.8" type="curve" smooth="yes"/>
			<point x="905.8" y="-357.2"/>
			<point x="878.2" y="-379.2"/>
			<point x="809.6" y="-379.2" type="curve" smooth="yes"/>
			<point x="747.2" y="-379.2"/>
			<point x="691.8" y="-314.4"/>
			<point x="674" y="-314.4" type="curve" smooth="yes"/>
			<point x="648.6" y="-314.4"/>
			<point x="616.6" y="-337.8"/>
			<point x="616.6" y="-379.4" type="curve" smooth="yes"/>
			<point x="616.6" y="-434.6"/>
			<point x="652" y="-465"/>
		</contour>
	</outline>
</glyph>
<glyph name="multiply" format="2">
	<unicode hex="00D7"/>
	<advance width="1140"/>
	<outline>
		<contour>
			<point x="166.2" y="242.2" type="line"/>
			<point x="294.6" y="113.8" type="line"/>
			<point x="973.8" y="793" type="line"/>
			<point x="845.4" y="921.4" type="line"/>
		</contour>
		<contour>
			<point x="166.2" y="793" type="line"/>
			<point x="845.4" y="113.8" type="line"/>
			<point x="973.8" y="242.2" type="line"/>
			<point x="294.6" y="921.4" type="line"/>
		</contour>
	</outline>
</glyph>
<glyph name="Oslash" format="2">
	<unicode hex="00D8"/>
	<advance width="1753"/>
	<outline>
		<contour>
			<point x="436.2" y="327.2" type="line"/>
			<point x="365.4" y="260.2" type="line"/>
			<point x="126.8" y="0" type="line"/>
			<point x="331.4" y="0" type="line"/>
			<point x="477.2" y="159.4" type="line"/>
			<point x="539.4" y="223.4" type="line"/>
			<point x="1316.8" y="1086.8" type="line"/>
			<point x="1387.6" y="1153.8" type="line"/>
			<point x="1626.2" y="1414" type="line"/>
			<point x="1421.6" y="1414" type="line"/>
			<point x="1275.8" y="1254.6" type="line"/>
			<point x="1213.6" y="1190.6" type="line"/>
		</contour>
		<contour>
			<point x="881.8" y="1436" type="curve" smooth="yes"/>
			<point x="419.6" y="1436"/>
			<point x="132.8" y="1143.4"/>
			<point x="132.8" y="705.2" type="curve" smooth="yes"/>
			<point x="132.8" y="270"/>
			<point x="411.8" y="-21.8"/>
			<point x="871.2" y="-21.8" type="curve" smooth="yes"/>
			<point x="1333.4" y="-21.8"/>
			<point x="1620.2" y="270.8"/>
			<point x="1620.2" y="709" type="curve" smooth="yes"/>
			<point x="1620.2" y="1144.2"/>
			<point x="1341.2" y="1436"/>
		</contour>
		<contour>
			<point x="883.4" y="172.6" type="curve" smooth="yes"/>
			<point x="573.8" y="172.6"/>
			<point x="421.8" y="377.8"/>
			<point x="421.8" y="745.8" type="curve" smooth="yes"/>
			<point x="421.8" y="1063.4"/>
			<point x="573.8" y="1241.6"/>
			<point x="869.6" y="1241.6" type="curve" smooth="yes"/>
			<point x="1179.2" y="1241.6"/>
			<point x="1331.2" y="1036.4"/>
			<point x="1331.2" y="668.4" type="curve" smooth="yes"/>
			<point x="1331.2" y="350.8"/>
			<point x="1179.2" y="172.6"/>
		</contour>
	</outline>
	<anchor name="UCtop" x="876.4" y="1414"/>
	<anchor name="bottom" x="876.4" y="0"/>
</glyph>
<glyph name="Thorn" format="2">
  <advance width="1491"/>
  <unicode hex="00DE"/>
  <outline>
    <contour>
      <point x="1107.4" y="710.0" type="curve" smooth="yes"/>
      <point x="1107.4" y="530.0"/>
      <point x="1012.2" y="456.2"/>
      <point x="841.0" y="456.2" type="curve" smooth="yes"/>
      <point x="470.0" y="456.2" type="line"/>
      <point x="431.0" y="275.40000000000003" type="line"/>
      <point x="873.0" y="275.40000000000003" type="line" smooth="yes"/>
      <point x="1246.2" y="275.40000000000003"/>
      <point x="1390.0" y="456.4"/>
      <point x="1390.0" y="713.2" type="curve" smooth="yes"/>
      <point x="1390.0" y="976.6"/>
      <point x="1243.8" y="1143.2"/>
      <point x="838.6" y="1143.2" type="curve" smooth="yes"/>
      <point x="437.59999999999997" y="1143.2" type="line"/>
      <point x="470.0" y="959.6" type="line"/>
      <point x="775.4" y="959.6" type="line" smooth="yes"/>
      <point x="1035.4" y="959.6"/>
      <point x="1107.4" y="878.0"/>
    </contour>
    <contour>
      <point x="769.5999999999999" y="112.0" type="line"/>
      <point x="579.1999999999999" y="157.8" type="line"/>
      <point x="579.1999999999999" y="1256.1999999999998" type="line"/>
      <point x="769.5999999999999" y="1302.0" type="line"/>
      <point x="769.5999999999999" y="1414.0" type="line"/>
      <point x="106.8" y="1414.0" type="line"/>
      <point x="106.8" y="1302.0" type="line"/>
      <point x="297.2" y="1256.1999999999998" type="line"/>
      <point x="297.2" y="157.8" type="line"/>
      <point x="106.8" y="112.0" type="line"/>
      <point x="106.8" y="0.0" type="line"/>
      <point x="769.5999999999999" y="0.0" type="line"/>
    </contour>
  </outline>
</glyph>
<glyph name="germandbls" format="2">
	<unicode hex="00DF"/>
	<advance width="1578"/>
	<outline>
		<contour>
			<point x="262.2" y="1073.4" type="curve" smooth="yes"/>
			<point x="262.2" y="139.2" type="line"/>
			<point x="104.2" y="100.6" type="line"/>
			<point x="104.2" y="0" type="line"/>
			<point x="663.8" y="0" type="line"/>
			<point x="663.8" y="100.6" type="line"/>
			<point x="515.8" y="139.2" type="line"/>
			<point x="515.8" y="1108.2" type="line" smooth="yes"/>
			<point x="515.8" y="1277.8"/>
			<point x="600.6" y="1334.6"/>
			<point x="827.4" y="1334.6" type="curve" smooth="yes"/>
			<point x="1004.2" y="1334.6"/>
			<point x="1078.2" y="1267.8"/>
			<point x="1078.2" y="1164.2" type="curve" smooth="yes"/>
			<point x="1078.2" y="1016.6"/>
			<point x="815" y="993.2"/>
			<point x="815" y="746.6" type="curve" smooth="yes"/>
			<point x="815" y="401"/>
			<point x="1267.6" y="551"/>
			<point x="1267.6" y="280.6" type="curve" smooth="yes"/>
			<point x="1267.6" y="182.6"/>
			<point x="1209" y="126.2"/>
			<point x="1046.8" y="126.2" type="curve" smooth="yes"/>
			<point x="978" y="126.2"/>
			<point x="896.6" y="133.8"/>
			<point x="837.6" y="155.2" type="curve"/>
			<point x="975.8" y="44.6" type="line"/>
			<point x="863.2" y="324.8" type="line"/>
			<point x="722.8" y="324.8" type="line"/>
			<point x="763.2" y="28.8" type="line"/>
			<point x="836" y="-1.6"/>
			<point x="959.6" y="-18.8"/>
			<point x="1054.6" y="-18.8" type="curve" smooth="yes"/>
			<point x="1356.4" y="-18.8"/>
			<point x="1498.4" y="105.4"/>
			<point x="1498.4" y="334.4" type="curve" smooth="yes"/>
			<point x="1498.4" y="730.4"/>
			<point x="1030.6" y="627.4"/>
			<point x="1030.6" y="815.4" type="curve" smooth="yes"/>
			<point x="1030.6" y="971.2"/>
			<point x="1335.8" y="978.2"/>
			<point x="1335.8" y="1213.2" type="curve" smooth="yes"/>
			<point x="1335.8" y="1387"/>
			<point x="1218.4" y="1486"/>
			<point x="850" y="1486" type="curve" smooth="yes"/>
			<point x="476.6" y="1486"/>
			<point x="262.2" y="1348.6"/>
		</contour>
		<contour>
			<point x="278.6" y="1053.8" type="line"/>
			<point x="61.8" y="972.4" type="line"/>
			<point x="61.8" y="903.4" type="line"/>
			<point x="262.2" y="828.8" type="line"/>
		</contour>
	</outline>
</glyph>
<glyph name="ae" format="2">
  <advance width="1842"/>
  <unicode hex="00E6"/>
  <anchor x="915.6" y="1028.0" name="top"/>
  <anchor x="915.5999999999999" y="0.0" name="bottom"/>
  <outline>
    <contour>
      <point x="548.6" y="904.4" type="curve" smooth="yes"/>
      <point x="709.6" y="904.4"/>
      <point x="762.5999999999999" y="839.8000000000001"/>
      <point x="762.5999999999999" y="693.2" type="curve" smooth="yes"/>
      <point x="762.5999999999999" y="356.0" type="line" smooth="yes"/>
      <point x="762.5999999999999" y="233.79999999999998"/>
      <point x="667.6" y="165.8"/>
      <point x="542.4" y="165.8" type="curve" smooth="yes"/>
      <point x="425.59999999999997" y="165.8"/>
      <point x="374.8" y="210.6"/>
      <point x="374.8" y="304.79999999999995" type="curve" smooth="yes"/>
      <point x="374.8" y="417.6"/>
      <point x="430.4" y="470.0"/>
      <point x="839.0" y="521.0" type="curve"/>
      <point x="876.6" y="657.2" type="line"/>
      <point x="225.20000000000002" y="574.4"/>
      <point x="108.4" y="463.20000000000005"/>
      <point x="108.4" y="258.2" type="curve" smooth="yes"/>
      <point x="108.4" y="77.0"/>
      <point x="224.0" y="-22.0"/>
      <point x="434.0" y="-22.0" type="curve" smooth="yes"/>
      <point x="632.4" y="-22.0"/>
      <point x="788.8000000000001" y="82.4"/>
      <point x="805.0" y="321.2" type="curve"/>
      <point x="768.0" y="310.8" type="line"/>
      <point x="834.2" y="93.0"/>
      <point x="1023.2425263157895" y="-22.0"/>
      <point x="1296.1999999999998" y="-22.0" type="curve" smooth="yes"/>
      <point x="1418.0" y="-22.0"/>
      <point x="1577.2" y="33.4"/>
      <point x="1730.0" y="132.8" type="curve"/>
      <point x="1730.0" y="245.79999999999998" type="line"/>
      <point x="1634.3999999999999" y="212.20000000000002"/>
      <point x="1524.2" y="179.20000000000002"/>
      <point x="1390.2" y="179.20000000000002" type="curve" smooth="yes"/>
      <point x="1126.0" y="179.20000000000002"/>
      <point x="1011.0" y="285.4"/>
      <point x="1011.0" y="564.8000000000001" type="curve" smooth="yes"/>
      <point x="1011.0" y="800.6"/>
      <point x="1102.8" y="893.0"/>
      <point x="1269.2" y="893.0" type="curve" smooth="yes"/>
      <point x="1410.0" y="893.0"/>
      <point x="1490.0" y="819.4"/>
      <point x="1492.3999999999999" y="593.0" type="curve"/>
      <point x="1575.6000000000001" y="625.4" type="line"/>
      <point x="959.0" y="625.4" type="line"/>
      <point x="963.8" y="484.59999999999997" type="line"/>
      <point x="1743.8" y="484.59999999999997" type="line"/>
      <point x="1737.6" y="859.0"/>
      <point x="1610.4" y="1050.0"/>
      <point x="1278.6" y="1050.0" type="curve" smooth="yes"/>
      <point x="1086.0840579710145" y="1050.0"/>
      <point x="945.8930786213289" y="958.7253412225464"/>
      <point x="862.1999999999999" y="814.8000000000001" type="curve"/>
      <point x="1006.8000000000001" y="814.8000000000001" type="line"/>
      <point x="974.9610445095072" y="952.3317089663793"/>
      <point x="865.6078431372549" y="1050.0"/>
      <point x="630.2" y="1050.0" type="curve" smooth="yes"/>
      <point x="318.8" y="1050.0"/>
      <point x="108.2" y="891.4"/>
      <point x="108.2" y="794.4000000000001" type="curve" smooth="yes"/>
      <point x="108.2" y="747.6"/>
      <point x="151.79999999999998" y="711.4"/>
      <point x="238.39999999999998" y="711.4" type="curve" smooth="yes"/>
      <point x="304.40000000000003" y="711.4"/>
      <point x="343.0" y="720.1999999999999"/>
      <point x="366.0" y="775.0" type="curve" smooth="yes"/>
      <point x="389.0" y="829.4"/>
      <point x="404.79999999999995" y="879.1999999999999"/>
      <point x="424.40000000000003" y="962.1999999999999" type="curve"/>
      <point x="352.4" y="886.2" type="line"/>
      <point x="405.0" y="897.4"/>
      <point x="464.8" y="904.4"/>
    </contour>
  </outline>
</glyph>
<glyph name="ccedilla" format="2">
	<unicode hex="00E7"/>
	<advance width="1124.4"/>
	<outline>
		<contour>
			<point x="705.8" y="1050" type="curve" smooth="yes"/>
			<point x="332" y="1050"/>
			<point x="96.6" y="846"/>
			<point x="96.6" y="499.2" type="curve" smooth="yes"/>
			<point x="96.6" y="160.4"/>
			<point x="298.4" y="-22"/>
			<point x="609.6" y="-22" type="curve" smooth="yes"/>
			<point x="727.4" y="-22"/>
			<point x="872" y="30"/>
			<point x="1027" y="132.8" type="curve"/>
			<point x="1027" y="250" type="line"/>
			<point x="909.8" y="205.4"/>
			<point x="801.8" y="182"/>
			<point x="692.8" y="182" type="curve" smooth="yes"/>
			<point x="454.8" y="182"/>
			<point x="339.4" y="301.2"/>
			<point x="339.4" y="566.8" type="curve" smooth="yes"/>
			<point x="339.4" y="797.2"/>
			<point x="457.2" y="901.2"/>
			<point x="627.6" y="901.2" type="curve" smooth="yes"/>
			<point x="693.4" y="901.2"/>
			<point x="879.6" y="714.4"/>
			<point x="911.6" y="714.4" type="curve" smooth="yes"/>
			<point x="989.4" y="714.4"/>
			<point x="1054.2" y="781.2"/>
			<point x="1054.2" y="865" type="curve" smooth="yes"/>
			<point x="1054.2" y="952.6"/>
			<point x="973.2" y="1050"/>
		</contour>
		<contour>
			<point x="505" y="-465" type="curve" smooth="yes"/>
			<point x="674.2" y="-465"/>
			<point x="785.4" y="-407"/>
			<point x="785.4" y="-278.2" type="curve" smooth="yes"/>
			<point x="785.4" y="-192.6"/>
			<point x="744.6" y="-129.2"/>
			<point x="521.6" y="-89.8" type="curve"/>
			<point x="530.8" y="-174.8" type="line"/>
			<point x="698.6" y="28.2" type="line"/>
			<point x="580.2" y="28.2" type="line"/>
			<point x="409" y="-188.8" type="line"/>
			<point x="409" y="-215.4" type="line"/>
			<point x="599.8" y="-245.2"/>
			<point x="627.8" y="-267.2"/>
			<point x="627.8" y="-311.8" type="curve" smooth="yes"/>
			<point x="627.8" y="-357.2"/>
			<point x="600.2" y="-379.2"/>
			<point x="531.6" y="-379.2" type="curve" smooth="yes"/>
			<point x="469.2" y="-379.2"/>
			<point x="413.8" y="-314.4"/>
			<point x="396" y="-314.4" type="curve" smooth="yes"/>
			<point x="370.6" y="-314.4"/>
			<point x="338.6" y="-337.8"/>
			<point x="338.6" y="-379.4" type="curve" smooth="yes"/>
			<point x="338.6" y="-434.6"/>
			<point x="374" y="-465"/>
		</contour>
	</outline>
</glyph>
<glyph name="eth" format="2">
  <advance width="1309"/>
  <unicode hex="00F0"/>
  <outline>
    <contour>
      <point x="632.8" y="-22.0" type="curve" smooth="yes"/>
      <point x="977.5999999999999" y="-22.0"/>
      <point x="1191.8" y="160.20000000000002"/>
      <point x="1191.8" y="559.8" type="curve" smooth="yes"/>
      <point x="1191.8" y="1034.0"/>
      <point x="1019.8" y="1295.6"/>
      <point x="321.8" y="1486.0" type="curve"/>
      <point x="271.8" y="1351.0" type="line"/>
      <point x="731.4" y="1207.8"/>
      <point x="935.1999999999999" y="1025.0"/>
      <point x="939.1999999999999" y="696.5999999999999" type="curve"/>
      <point x="955.4" y="692.6" type="line"/>
      <point x="918.8000000000001" y="877.6"/>
      <point x="797.8000000000001" y="1003.6"/>
      <point x="588.8" y="1003.6" type="curve" smooth="yes"/>
      <point x="297.79999999999995" y="1003.6"/>
      <point x="97.0" y="812.0"/>
      <point x="97.0" y="493.6" type="curve" smooth="yes"/>
      <point x="97.0" y="177.79999999999998"/>
      <point x="296.8" y="-22.0"/>
    </contour>
    <contour>
      <point x="634.1999999999999" y="149.0" type="curve" smooth="yes"/>
      <point x="439.40000000000003" y="149.0"/>
      <point x="353.4" y="268.12519083969465"/>
      <point x="353.4" y="516.8000000000001" type="curve" smooth="yes"/>
      <point x="353.4" y="742.8022988505747"/>
      <point x="454.2" y="841.8000000000001"/>
      <point x="654.6" y="841.8000000000001" type="curve" smooth="yes"/>
      <point x="849.4" y="841.8000000000001"/>
      <point x="935.4" y="722.0802030456853"/>
      <point x="935.4" y="473.2" type="curve" smooth="yes"/>
      <point x="935.4" y="247.20403458213258"/>
      <point x="834.6" y="149.0"/>
    </contour>
    <contour>
      <point x="416.40000000000003" y="1029.0" type="line"/>
      <point x="980.8" y="1391.2" type="line"/>
      <point x="916.0" y="1486.0" type="line"/>
      <point x="351.59999999999997" y="1123.8000000000002" type="line"/>
    </contour>
  </outline>
</glyph>
<glyph name="divide" format="2">
	<unicode hex="00F7"/>
	<advance width="1140"/>
	<outline>
		<contour>
			<point x="570.4" y="289.8" type="curve" smooth="yes"/>
			<point x="479.2" y="289.8"/>
			<point x="421.8" y="239"/>
			<point x="421.8" y="148.8" type="curve" smooth="yes"/>
			<point x="421.8" y="58.6"/>
			<point x="479.2" y="6.8"/>
			<point x="570.4" y="6.8" type="curve" smooth="yes"/>
			<point x="660.8" y="6.8"/>
			<point x="718.2" y="58.6"/>
			<point x="718.2" y="148.8" type="curve" smooth="yes"/>
			<point x="718.2" y="239"/>
			<point x="660.8" y="289.8"/>
		</contour>
		<contour>
			<point x="570.4" y="1028.4" type="curve" smooth="yes"/>
			<point x="479.2" y="1028.4"/>
			<point x="421.8" y="977.6"/>
			<point x="421.8" y="887.4" type="curve" smooth="yes"/>
			<point x="421.8" y="797.2"/>
			<point x="479.2" y="746.2"/>
			<point x="570.4" y="746.2" type="curve" smooth="yes"/>
			<point x="660.8" y="746.2"/>
			<point x="718.2" y="797.2"/>
			<point x="718.2" y="887.4" type="curve" smooth="yes"/>
			<point x="718.2" y="977.6"/>
			<point x="660.8" y="1028.4"/>
		</contour>
		<contour>
			<point x="131.2" y="608" type="line"/>
			<point x="131.2" y="427.2" type="line"/>
			<point x="1008.8" y="427.2" type="line"/>
			<point x="1008.8" y="608" type="line"/>
		</contour>
	</outline>
</glyph>
<glyph name="oslash" format="2">
	<unicode hex="00F8"/>
	<advance width="1328.6"/>
	<outline>
		<contour>
			<point x="89" y="0" type="line"/>
			<point x="268" y="0" type="line"/>
			<point x="380.2" y="118.2" type="line"/>
			<point x="411" y="151.8" type="line"/>
			<point x="1005.8" y="789.4" type="line"/>
			<point x="1040.2" y="816.8" type="line"/>
			<point x="1240" y="1028" type="line"/>
			<point x="1061" y="1028" type="line"/>
			<point x="948.8" y="909.8" type="line"/>
			<point x="918" y="876.2" type="line"/>
			<point x="323.2" y="238.6" type="line"/>
			<point x="288.8" y="211.2" type="line"/>
		</contour>
		<contour>
			<point x="654.4" y="152" type="curve" smooth="yes"/>
			<point x="459.6" y="152"/>
			<point x="373.6" y="277"/>
			<point x="373.6" y="536.8" type="curve" smooth="yes"/>
			<point x="373.6" y="772.8"/>
			<point x="474.4" y="876"/>
			<point x="674.8" y="876" type="curve" smooth="yes"/>
			<point x="869.6" y="876"/>
			<point x="955.6" y="751"/>
			<point x="955.6" y="491.2" type="curve" smooth="yes"/>
			<point x="955.6" y="255.2"/>
			<point x="854.8" y="152"/>
		</contour>
		<contour>
			<point x="653" y="-22" type="curve" smooth="yes"/>
			<point x="1000.6" y="-22"/>
			<point x="1212" y="185"/>
			<point x="1212" y="515.4" type="curve" smooth="yes"/>
			<point x="1212" y="843.2"/>
			<point x="1012.2" y="1050"/>
			<point x="676.2" y="1050" type="curve" smooth="yes"/>
			<point x="328.6" y="1050"/>
			<point x="117.2" y="843"/>
			<point x="117.2" y="512.6" type="curve" smooth="yes"/>
			<point x="117.2" y="184.8"/>
			<point x="317" y="-22"/>
		</contour>
	</outline>
	<anchor name="top" x="664.8" y="1028"/>
	<anchor name="bottom" x="664.8" y="0"/>
</glyph>
<glyph name="thorn" format="2">
  <advance width="1339.8"/>
  <unicode hex="00FE"/>
  <outline>
    <contour>
      <point x="173.4" y="1233.0" type="curve"/>
      <point x="173.4" y="-303.8" type="line"/>
      <point x="11.4" y="-342.4" type="line"/>
      <point x="11.4" y="-443.0" type="line"/>
      <point x="607.4" y="-443.0" type="line"/>
      <point x="607.4" y="-342.4" type="line"/>
      <point x="426.2" y="-305.4" type="line"/>
      <point x="426.2" y="273.2" type="line"/>
      <point x="409.6" y="273.2" type="line"/>
      <point x="417.59999999999997" y="115.2"/>
      <point x="552.2" y="-22.0"/>
      <point x="746.8" y="-22.0" type="curve" smooth="yes"/>
      <point x="1023.4" y="-22.0"/>
      <point x="1241.2" y="191.6"/>
      <point x="1241.2" y="554.0" type="curve" smooth="yes"/>
      <point x="1241.2" y="861.2"/>
      <point x="1076.0" y="1050.0"/>
      <point x="768.4" y="1050.0" type="curve" smooth="yes"/>
      <point x="680.6" y="1050.0"/>
      <point x="580.8000000000001" y="1018.6"/>
      <point x="357.0" y="888.1999999999999" type="curve"/>
      <point x="357.0" y="789.0" type="line"/>
      <point x="453.8" y="829.2"/>
      <point x="560.5999999999999" y="852.2"/>
      <point x="662.8" y="852.2" type="curve" smooth="yes"/>
      <point x="863.6" y="852.2"/>
      <point x="976.8" y="745.2"/>
      <point x="976.8" y="505.6" type="curve" smooth="yes"/>
      <point x="976.8" y="271.2"/>
      <point x="867.2" y="144.0"/>
      <point x="681.6" y="144.0" type="curve" smooth="yes"/>
      <point x="535.0" y="144.0"/>
      <point x="427.0" y="217.0"/>
      <point x="427.0" y="377.2" type="curve" smooth="yes"/>
      <point x="427.0" y="1261.2" type="line"/>
      <point x="448.2" y="1486.0" type="line"/>
      <point x="390.20000000000005" y="1486.0" type="line"/>
      <point x="-37.8" y="1410.4" type="line"/>
      <point x="-37.8" y="1320.8" type="line"/>
      <point x="40.2" y="1287.6326086956522"/>
      <point x="147.4" y="1243.7891304347827"/>
    </contour>
  </outline>
</glyph>
<glyph name="Aogonek" format="2">
	<unicode hex="0104"/>
	<advance width="1711.4"/>
	<outline>
		<contour>
			<point x="443.6" y="448.8" type="line"/>
			<point x="1169.2" y="448.8" type="line"/>
			<point x="1169.2" y="626.8" type="line"/>
			<point x="443.6" y="626.8" type="line"/>
		</contour>
		<contour>
			<point x="1518.2" y="158.6" type="line"/>
			<point x="1009.8" y="1430" type="line"/>
			<point x="671.6" y="1430" type="line"/>
			<point x="189.6" y="154.6" type="line"/>
			<point x="21.6" y="112" type="line"/>
			<point x="21.6" y="0" type="line"/>
			<point x="579.8" y="0" type="line"/>
			<point x="579.8" y="112" type="line"/>
			<point x="399.6" y="155.8" type="line"/>
			<point x="807.6" y="1309.6" type="line"/>
			<point x="761.4" y="1309.6" type="line"/>
			<point x="1209.4" y="154.6" type="line"/>
			<point x="1028.6" y="112" type="line"/>
			<point x="1028.6" y="0" type="line"/>
			<point x="1704" y="0" type="line"/>
			<point x="1704" y="112" type="line"/>
		</contour>
		<contour>
			<point x="1388.8" y="-76.8" type="curve" smooth="yes"/>
			<point x="1461.6" y="55.4" type="line"/>
			<point x="1374.2" y="55.4" type="line"/>
			<point x="1276" y="-68.4" type="line" smooth="yes"/>
			<point x="1178.4" y="-190.6"/>
			<point x="1163" y="-244.4"/>
			<point x="1163" y="-309.4" type="curve" smooth="yes"/>
			<point x="1163" y="-403"/>
			<point x="1213.6" y="-465"/>
			<point x="1339" y="-465" type="curve" smooth="yes"/>
			<point x="1411.4" y="-465"/>
			<point x="1454.2" y="-447.8"/>
			<point x="1532.6" y="-388.6" type="curve"/>
			<point x="1532.6" y="-310.6" type="line"/>
			<point x="1480.2" y="-336.6"/>
			<point x="1454.8" y="-341.4"/>
			<point x="1416" y="-341.4" type="curve" smooth="yes"/>
			<point x="1362.2" y="-341.4"/>
			<point x="1329.4" y="-311.6"/>
			<point x="1329.4" y="-256.8" type="curve" smooth="yes"/>
			<point x="1329.4" y="-210.2"/>
			<point x="1340" y="-169.8"/>
		</contour>
	</outline>
</glyph>
<glyph name="aogonek" format="2">
  <advance width="1232.8"/>
  <unicode hex="0105"/>
  <outline>
    <contour>
      <point x="1217.3999999999999" y="69.4" type="line"/>
      <point x="1217.3999999999999" y="169.6" type="line"/>
      <point x="1180.6" y="162.2"/>
      <point x="1148.4" y="157.8"/>
      <point x="1120.8" y="157.8" type="curve" smooth="yes"/>
      <point x="1051.6" y="157.8"/>
      <point x="1015.0" y="185.60000000000002"/>
      <point x="1015.0" y="261.0" type="curve" smooth="yes"/>
      <point x="1015.0" y="727.0" type="line" smooth="yes"/>
      <point x="1015.0" y="926.6"/>
      <point x="914.4" y="1050.0"/>
      <point x="630.2" y="1050.0" type="curve" smooth="yes"/>
      <point x="318.8" y="1050.0"/>
      <point x="108.2" y="891.4"/>
      <point x="108.2" y="794.4000000000001" type="curve" smooth="yes"/>
      <point x="108.2" y="747.6"/>
      <point x="151.8" y="711.4"/>
      <point x="238.4" y="711.4" type="curve" smooth="yes"/>
      <point x="304.4" y="711.4"/>
      <point x="343.0" y="720.1999999999999"/>
      <point x="366.0" y="775.0" type="curve" smooth="yes"/>
      <point x="389.0" y="829.4"/>
      <point x="404.8" y="879.1999999999999"/>
      <point x="424.4" y="962.1999999999999" type="curve"/>
      <point x="352.40000000000003" y="886.2" type="line"/>
      <point x="405.0" y="897.4"/>
      <point x="464.8" y="904.4"/>
      <point x="548.6" y="904.4" type="curve" smooth="yes"/>
      <point x="709.6" y="904.4"/>
      <point x="762.6" y="839.8000000000001"/>
      <point x="762.6" y="693.2" type="curve" smooth="yes"/>
      <point x="762.6" y="327.2" type="line" smooth="yes"/>
      <point x="762.6" y="233.8"/>
      <point x="667.6" y="165.8"/>
      <point x="542.4" y="165.8" type="curve" smooth="yes"/>
      <point x="425.6" y="165.8"/>
      <point x="374.8" y="210.6"/>
      <point x="374.8" y="304.79999999999995" type="curve" smooth="yes"/>
      <point x="374.8" y="417.6"/>
      <point x="430.40000000000003" y="470.0"/>
      <point x="839.0" y="521.0" type="curve"/>
      <point x="876.6" y="657.1999999999999" type="line"/>
      <point x="225.2" y="574.4000000000001"/>
      <point x="108.4" y="463.2"/>
      <point x="108.4" y="258.2" type="curve" smooth="yes"/>
      <point x="108.4" y="77.0"/>
      <point x="224.0" y="-22.0"/>
      <point x="434.0" y="-22.0" type="curve" smooth="yes"/>
      <point x="627.5999999999999" y="-22.0"/>
      <point x="741.8" y="82.8"/>
      <point x="774.8" y="278.4" type="curve"/>
      <point x="765.4" y="275.2" type="line"/>
      <point x="774.0" y="70.0"/>
      <point x="849.4000000000001" y="-18.0"/>
      <point x="986.0" y="-18.0" type="curve" smooth="yes"/>
      <point x="1019.6" y="-18.0"/>
      <point x="1054.0" y="-12.2"/>
      <point x="1087.0" y="-2.0" type="curve"/>
      <point x="1077.0" y="11.6" type="line"/>
      <point x="1000.6" y="-70.0" type="line" smooth="yes"/>
      <point x="881.4" y="-191.0"/>
      <point x="856.4" y="-244.4"/>
      <point x="856.4" y="-309.4" type="curve" smooth="yes"/>
      <point x="856.4" y="-403.0"/>
      <point x="907.0" y="-465.0"/>
      <point x="1032.4" y="-465.0" type="curve" smooth="yes"/>
      <point x="1104.8" y="-465.0"/>
      <point x="1147.6" y="-447.8"/>
      <point x="1226.0" y="-388.6" type="curve"/>
      <point x="1226.0" y="-310.59999999999997" type="line"/>
      <point x="1173.6" y="-336.59999999999997"/>
      <point x="1148.2" y="-341.40000000000003"/>
      <point x="1109.3999999999999" y="-341.40000000000003" type="curve" smooth="yes"/>
      <point x="1055.6" y="-341.40000000000003"/>
      <point x="1022.8" y="-311.6"/>
      <point x="1022.8" y="-256.8" type="curve" smooth="yes"/>
      <point x="1022.8" y="-211.2"/>
      <point x="1040.6000000000001" y="-172.0"/>
      <point x="1105.2" y="-83.0" type="curve" smooth="yes"/>
    </contour>
  </outline>
</glyph>
<glyph name="Dcroat" format="2">
	<unicode hex="0110"/>
	<advance width="1717.4"/>
	<outline>
		<contour>
			<point x="110.8" y="637.2" type="line"/>
			<point x="885.6" y="637.2" type="line"/>
			<point x="885.6" y="785.6" type="line"/>
			<point x="110.8" y="785.6" type="line"/>
		</contour>
		<contour>
			<point x="1310.6" y="723.4" type="curve" smooth="yes"/>
			<point x="1310.6" y="341"/>
			<point x="1149.8" y="183.6"/>
			<point x="835.6" y="183.6" type="curve" smooth="yes"/>
			<point x="437.8" y="183.6" type="line"/>
			<point x="427" y="0" type="line"/>
			<point x="843" y="0" type="line" smooth="yes"/>
			<point x="1302" y="0"/>
			<point x="1601" y="257"/>
			<point x="1601" y="736" type="curve" smooth="yes"/>
			<point x="1601" y="1177"/>
			<point x="1347" y="1414"/>
			<point x="852" y="1414" type="curve" smooth="yes"/>
			<point x="427" y="1414" type="line"/>
			<point x="437.8" y="1230.4" type="line"/>
			<point x="784.6" y="1230.4" type="line" smooth="yes"/>
			<point x="1153.4" y="1230.4"/>
			<point x="1310.6" y="1069.6"/>
		</contour>
		<contour>
			<point x="110.8" y="0" type="line"/>
			<point x="583.2" y="0" type="line"/>
			<point x="583.2" y="1414" type="line"/>
			<point x="110.8" y="1414" type="line"/>
			<point x="110.8" y="1302" type="line"/>
			<point x="301.2" y="1256.2" type="line"/>
			<point x="301.2" y="157.8" type="line"/>
			<point x="110.8" y="112" type="line"/>
		</contour>
	</outline>
</glyph>
<glyph name="dcroat" format="2">
	<unicode hex="0111"/>
	<advance width="1387.6"/>
	<outline>
		<contour>
			<point x="912.2" y="665.2" type="curve" smooth="yes"/>
			<point x="912.2" y="198.6" type="line"/>
			<point x="993.2" y="-22" type="line"/>
			<point x="1036.2" y="-22" type="line"/>
			<point x="1346.6" y="104.6" type="line"/>
			<point x="1346.6" y="156.2" type="line"/>
			<point x="1304.6" y="179.2173913043"/>
			<point x="1189.8" y="241.4472049689"/>
			<point x="1165.8" y="254.6" type="curve"/>
			<point x="1165.8" y="1261.2" type="line"/>
			<point x="1187" y="1486" type="line"/>
			<point x="1129" y="1486" type="line"/>
			<point x="755.4" y="1424" type="line"/>
			<point x="755.4" y="1334.4" type="line"/>
			<point x="797.4" y="1321.6"/>
			<point x="893.6" y="1296"/>
			<point x="912.2" y="1288" type="curve"/>
			<point x="912.2" y="904.4" type="line"/>
			<point x="1064.4" y="942.8" type="line"/>
			<point x="930.8" y="1022.6"/>
			<point x="831.4" y="1050"/>
			<point x="683" y="1050" type="curve" smooth="yes"/>
			<point x="349" y="1050"/>
			<point x="98" y="828.2"/>
			<point x="98" y="474" type="curve" smooth="yes"/>
			<point x="98" y="166.6"/>
			<point x="252" y="-22"/>
			<point x="555.6" y="-22" type="curve" smooth="yes"/>
			<point x="635.4" y="-22"/>
			<point x="704.8" y="-1"/>
			<point x="996.6" y="211.8" type="curve"/>
			<point x="996.6" y="253.6" type="line"/>
			<point x="889.4" y="202.8"/>
			<point x="783.4" y="175.8"/>
			<point x="676.4" y="175.8" type="curve" smooth="yes"/>
			<point x="467.6" y="175.8"/>
			<point x="362.4" y="278.8"/>
			<point x="362.4" y="516.2" type="curve" smooth="yes"/>
			<point x="362.4" y="760.4"/>
			<point x="473.2" y="890"/>
			<point x="677.6" y="890" type="curve" smooth="yes"/>
			<point x="851.8" y="890"/>
			<point x="912.2" y="810.2"/>
		</contour>
		<contour>
			<point x="603.2" y="1116.4" type="line"/>
			<point x="1342" y="1116.4" type="line"/>
			<point x="1342" y="1238.4" type="line"/>
			<point x="603.2" y="1238.4" type="line"/>
		</contour>
	</outline>
</glyph>
<glyph name="Eogonek" format="2">
	<unicode hex="0118"/>
	<advance width="1536.2"/>
	<outline>
		<contour>
			<point x="1074" y="990" type="line"/>
			<point x="932.4" y="990" type="line"/>
			<point x="915.4" y="821.2" type="line"/>
			<point x="428.6" y="821.2" type="line"/>
			<point x="428.6" y="652.8" type="line"/>
			<point x="915.4" y="652.8" type="line"/>
			<point x="932.4" y="480" type="line"/>
			<point x="1074" y="480" type="line"/>
			<point x="1074" y="735" type="line"/>
		</contour>
		<contour>
			<point x="1395.8" y="1023.2" type="line"/>
			<point x="1395.8" y="1489.6" type="line"/>
			<point x="1278.6" y="1489.6" type="line"/>
			<point x="1190.8" y="1414" type="line"/>
			<point x="428.6" y="1414" type="line"/>
			<point x="428.6" y="1237.8" type="line"/>
			<point x="1241.6" y="1237.8" type="line"/>
			<point x="1147.8" y="1339.2" type="line"/>
			<point x="1243" y="1023.2" type="line"/>
		</contour>
		<contour>
			<point x="1132.4" y="75.8" type="line"/>
			<point x="1214.4" y="176.2" type="line"/>
			<point x="428.6" y="176.2" type="line"/>
			<point x="428.6" y="0" type="line"/>
			<point x="1179.6" y="0" type="line"/>
			<point x="1234" y="-78.2" type="line"/>
			<point x="1368.4" y="-78.2" type="line"/>
			<point x="1449.8" y="452.6" type="line"/>
			<point x="1299.6" y="452.6" type="line"/>
		</contour>
		<contour>
			<point x="106.8" y="0" type="line"/>
			<point x="579.2" y="0" type="line"/>
			<point x="579.2" y="1414" type="line"/>
			<point x="106.8" y="1414" type="line"/>
			<point x="106.8" y="1302" type="line"/>
			<point x="297.2" y="1256.2" type="line"/>
			<point x="297.2" y="157.8" type="line"/>
			<point x="106.8" y="112" type="line"/>
		</contour>
		<contour>
			<point x="1150.2" y="-76.4" type="curve" smooth="yes"/>
			<point x="1234.4" y="55.4" type="line"/>
			<point x="1147" y="55.4" type="line"/>
			<point x="1035" y="-68" type="line" smooth="yes"/>
			<point x="925.8" y="-187.6"/>
			<point x="906.8" y="-244.4"/>
			<point x="906.8" y="-309.4" type="curve" smooth="yes"/>
			<point x="906.8" y="-403"/>
			<point x="957.4" y="-465"/>
			<point x="1082.8" y="-465" type="curve" smooth="yes"/>
			<point x="1155.2" y="-465"/>
			<point x="1198" y="-447.8"/>
			<point x="1276.4" y="-388.6" type="curve"/>
			<point x="1276.4" y="-310.6" type="line"/>
			<point x="1224" y="-336.6"/>
			<point x="1198.6" y="-341.4"/>
			<point x="1159.8" y="-341.4" type="curve" smooth="yes"/>
			<point x="1104.2" y="-341.4"/>
			<point x="1073.2" y="-311"/>
			<point x="1073.2" y="-254.4" type="curve" smooth="yes"/>
			<point x="1073.2" y="-208.4"/>
			<point x="1090.4" y="-167.2"/>
		</contour>
	</outline>
</glyph>
<glyph name="eogonek" format="2">
	<unicode hex="0119"/>
	<advance width="1173.6"/>
	<outline>
		<contour>
			<point x="1059.6" y="132.8" type="line"/>
			<point x="1059.6" y="245.8" type="line"/>
			<point x="964" y="212.2"/>
			<point x="853.8" y="179.2"/>
			<point x="719.8" y="179.2" type="curve" smooth="yes"/>
			<point x="455.6" y="179.2"/>
			<point x="340.6" y="285.4"/>
			<point x="340.6" y="564.8" type="curve" smooth="yes"/>
			<point x="340.6" y="800.6"/>
			<point x="432.4" y="893"/>
			<point x="598.8" y="893" type="curve" smooth="yes"/>
			<point x="739.6" y="893"/>
			<point x="819.6" y="819.4"/>
			<point x="822" y="593" type="curve"/>
			<point x="885.2" y="625.4" type="line"/>
			<point x="288.6" y="625.4" type="line"/>
			<point x="293.4" y="484.6" type="line"/>
			<point x="1073.4" y="484.6" type="line"/>
			<point x="1067.2" y="859"/>
			<point x="940" y="1050"/>
			<point x="608.2" y="1050" type="curve" smooth="yes"/>
			<point x="294.2" y="1050"/>
			<point x="97.8" y="836"/>
			<point x="97.8" y="499.2" type="curve" smooth="yes"/>
			<point x="97.8" y="160.4"/>
			<point x="299.2" y="-22"/>
			<point x="625.8" y="-22" type="curve" smooth="yes"/>
			<point x="713.6" y="-22"/>
			<point x="820.6" y="7"/>
			<point x="932.6" y="61.2" type="curve"/>
			<point x="920.6" y="75.2" type="line"/>
			<point x="845.2" y="-11.8" type="line" smooth="yes"/>
			<point x="723.8" y="-149.4"/>
			<point x="692.2" y="-221.8"/>
			<point x="692.2" y="-299" type="curve" smooth="yes"/>
			<point x="692.2" y="-403"/>
			<point x="751.6" y="-465"/>
			<point x="882.6" y="-465" type="curve" smooth="yes"/>
			<point x="958.2" y="-465"/>
			<point x="989.8" y="-447.8"/>
			<point x="1068.2" y="-388.6" type="curve"/>
			<point x="1068.2" y="-310.6" type="line"/>
			<point x="1015.8" y="-336.6"/>
			<point x="990.4" y="-341.4"/>
			<point x="951.6" y="-341.4" type="curve" smooth="yes"/>
			<point x="896.6" y="-341.4"/>
			<point x="856.2" y="-318"/>
			<point x="856.2" y="-253.2" type="curve" smooth="yes"/>
			<point x="856.2" y="-201.4"/>
			<point x="877.8" y="-135.8"/>
			<point x="947.2" y="-34" type="curve" smooth="yes"/>
		</contour>
	</outline>
</glyph>
<glyph name="Hbar" format="2">
	<unicode hex="0126"/>
	<advance width="1858.8"/>
	<outline>
		<contour>
			<point x="582.4" y="157.8" type="line"/>
			<point x="582.4" y="1256.2" type="line"/>
			<point x="772.8" y="1302" type="line"/>
			<point x="772.8" y="1414" type="line"/>
			<point x="110" y="1414" type="line"/>
			<point x="110" y="1302" type="line"/>
			<point x="300.4" y="1256.2" type="line"/>
			<point x="300.4" y="157.8" type="line"/>
			<point x="110" y="112" type="line"/>
			<point x="110" y="0" type="line"/>
			<point x="772.8" y="0" type="line"/>
			<point x="772.8" y="112" type="line"/>
		</contour>
		<contour>
			<point x="1558.4" y="157.8" type="line"/>
			<point x="1558.4" y="1256.2" type="line"/>
			<point x="1748.8" y="1302" type="line"/>
			<point x="1748.8" y="1414" type="line"/>
			<point x="1086" y="1414" type="line"/>
			<point x="1086" y="1302" type="line"/>
			<point x="1276.4" y="1256.2" type="line"/>
			<point x="1276.4" y="157.8" type="line"/>
			<point x="1086" y="112" type="line"/>
			<point x="1086" y="0" type="line"/>
			<point x="1748.8" y="0" type="line"/>
			<point x="1748.8" y="112" type="line"/>
		</contour>
		<contour>
			<point x="110" y="989.8" type="line"/>
			<point x="1748.8" y="989.8" type="line"/>
			<point x="1748.8" y="1138.2" type="line"/>
			<point x="110" y="1138.2" type="line"/>
		</contour>
		<contour>
			<point x="427" y="628.8" type="line"/>
			<point x="1433" y="628.8" type="line"/>
			<point x="1433" y="812.4" type="line"/>
			<point x="427" y="812.4" type="line"/>
		</contour>
	</outline>
</glyph>
<glyph name="hbar" format="2">
	<unicode hex="0127"/>
	<advance width="1405.2"/>
	<outline>
		<contour>
			<point x="804.4" y="100.6" type="line"/>
			<point x="804.4" y="0" type="line"/>
			<point x="1354.4" y="0" type="line"/>
			<point x="1354.4" y="100.6" type="line"/>
			<point x="1195.4" y="139.2" type="line"/>
			<point x="1195.4" y="725.4" type="line" smooth="yes"/>
			<point x="1195.4" y="938"/>
			<point x="1090.6" y="1050"/>
			<point x="859.4" y="1050" type="curve" smooth="yes"/>
			<point x="737.8" y="1050"/>
			<point x="708.4" y="1038.2"/>
			<point x="446" y="837" type="curve"/>
			<point x="462.8" y="784" type="line"/>
			<point x="542" y="809.6"/>
			<point x="640" y="826.8"/>
			<point x="726.6" y="826.8" type="curve" smooth="yes"/>
			<point x="883.8" y="826.8"/>
			<point x="941.8" y="775"/>
			<point x="941.8" y="650.2" type="curve" smooth="yes"/>
			<point x="941.8" y="136.4" type="line"/>
		</contour>
		<contour>
			<point x="612.4" y="0" type="line"/>
			<point x="612.4" y="100.6" type="line"/>
			<point x="475" y="136.4" type="line"/>
			<point x="475" y="1261.2" type="line"/>
			<point x="496.2" y="1486" type="line"/>
			<point x="438.2" y="1486" type="line"/>
			<point x="64.6" y="1424" type="line"/>
			<point x="64.6" y="1346.8" type="line"/>
			<point x="106.4" y="1321.8"/>
			<point x="202.4" y="1285.4"/>
			<point x="221.4" y="1261" type="curve"/>
			<point x="221.4" y="139.2" type="line"/>
			<point x="63.4" y="100.6" type="line"/>
			<point x="63.4" y="0" type="line"/>
		</contour>
		<contour>
			<point x="45.2" y="1116.4" type="line"/>
			<point x="784" y="1116.4" type="line"/>
			<point x="784" y="1238.4" type="line"/>
			<point x="45.2" y="1238.4" type="line"/>
		</contour>
	</outline>
</glyph>
<glyph name="Iogonek" format="2">
	<unicode hex="012E"/>
	<advance width="876.4"/>
	<outline>
		<contour>
			<point x="769.6" y="112" type="line"/>
			<point x="579.2" y="157.8" type="line"/>
			<point x="579.2" y="1256.2" type="line"/>
			<point x="769.6" y="1302" type="line"/>
			<point x="769.6" y="1414" type="line"/>
			<point x="106.8" y="1414" type="line"/>
			<point x="106.8" y="1302" type="line"/>
			<point x="297.2" y="1256.2" type="line"/>
			<point x="297.2" y="157.8" type="line"/>
			<point x="106.8" y="112" type="line"/>
			<point x="106.8" y="0" type="line"/>
			<point x="769.6" y="0" type="line"/>
		</contour>
		<contour>
			<point x="451.2" y="-71.6" type="curve" smooth="yes"/>
			<point x="514.6" y="55.4" type="line"/>
			<point x="426.4" y="55.4" type="line"/>
			<point x="335.4" y="-66.4" type="line" smooth="yes"/>
			<point x="244.4" y="-188"/>
			<point x="229.2" y="-244.4"/>
			<point x="229.2" y="-309.4" type="curve" smooth="yes"/>
			<point x="229.2" y="-403"/>
			<point x="279.8" y="-465"/>
			<point x="405.2" y="-465" type="curve" smooth="yes"/>
			<point x="477.6" y="-465"/>
			<point x="520.4" y="-447.8"/>
			<point x="598.8" y="-388.6" type="curve"/>
			<point x="598.8" y="-310.6" type="line"/>
			<point x="546.4" y="-336.6"/>
			<point x="521" y="-341.4"/>
			<point x="482.2" y="-341.4" type="curve" smooth="yes"/>
			<point x="428.4" y="-341.4"/>
			<point x="395.6" y="-311.6"/>
			<point x="395.6" y="-256.8" type="curve" smooth="yes"/>
			<point x="395.6" y="-210.2"/>
			<point x="405" y="-163.2"/>
		</contour>
	</outline>
</glyph>
<glyph name="iogonek" format="2">
	<unicode hex="012F"/>
	<advance width="727"/>
	<outline>
		<contour>
			<point x="363.8" y="1202.4" type="curve" smooth="yes"/>
			<point x="478.8" y="1202.4"/>
			<point x="547" y="1249"/>
			<point x="547" y="1344.8" type="curve" smooth="yes"/>
			<point x="547" y="1440.4"/>
			<point x="478.8" y="1486"/>
			<point x="363.8" y="1486" type="curve" smooth="yes"/>
			<point x="248.8" y="1486"/>
			<point x="180.6" y="1440.4"/>
			<point x="180.6" y="1344.8" type="curve" smooth="yes"/>
			<point x="180.6" y="1249"/>
			<point x="248.8" y="1202.4"/>
		</contour>
		<contour>
			<point x="524" y="1050" type="line"/>
			<point x="449.2" y="1050" type="line"/>
			<point x="78.4" y="944" type="line"/>
			<point x="78.4" y="874.4" type="line"/>
			<point x="139.4" y="837.7916840066"/>
			<point x="232" y="784.2029992107"/>
			<point x="254" y="771" type="curve"/>
			<point x="254" y="139.2" type="line"/>
			<point x="96" y="100.6" type="line"/>
			<point x="96" y="0" type="line"/>
			<point x="658.4" y="0" type="line"/>
			<point x="658.4" y="100.6" type="line"/>
			<point x="507.6" y="139.2" type="line"/>
			<point x="507.6" y="796.8" type="line"/>
		</contour>
		<contour>
			<point x="398" y="-76.8" type="curve" smooth="yes"/>
			<point x="468.8" y="55.4" type="line"/>
			<point x="381.4" y="55.4" type="line"/>
			<point x="285" y="-68.6" type="line" smooth="yes"/>
			<point x="191.2" y="-189.2"/>
			<point x="173.4" y="-244.4"/>
			<point x="173.4" y="-309.4" type="curve" smooth="yes"/>
			<point x="173.4" y="-403"/>
			<point x="224" y="-465"/>
			<point x="349.4" y="-465" type="curve" smooth="yes"/>
			<point x="421.8" y="-465"/>
			<point x="464.6" y="-447.8"/>
			<point x="543" y="-388.6" type="curve"/>
			<point x="543" y="-310.6" type="line"/>
			<point x="490.6" y="-336.6"/>
			<point x="465.2" y="-341.4"/>
			<point x="426.4" y="-341.4" type="curve" smooth="yes"/>
			<point x="370.6" y="-341.4"/>
			<point x="339.8" y="-311.2"/>
			<point x="339.8" y="-254.6" type="curve" smooth="yes"/>
			<point x="339.8" y="-209"/>
			<point x="349.2" y="-169"/>
		</contour>
	</outline>
</glyph>
<glyph name="dotlessi" format="2">
  <advance width="727"/>
  <unicode hex="0131"/>
  <anchor x="342.8" y="1028.0" name="top"/>
  <anchor x="380.79999999999995" y="0.0" name="bottom"/>
  <anchor x="534.4000000000001" y="0.0" name="right"/>
  <outline>
    <contour>
      <point x="524.0" y="1050.0" type="line"/>
      <point x="449.2" y="1050.0" type="line"/>
      <point x="78.39999999999999" y="944.0" type="line"/>
      <point x="78.39999999999999" y="874.4000000000001" type="line"/>
      <point x="139.39999999999998" y="837.791684006601"/>
      <point x="232.0" y="784.202999210734"/>
      <point x="254.0" y="771.0" type="curve"/>
      <point x="254.0" y="139.20000000000002" type="line"/>
      <point x="96.0" y="100.6" type="line"/>
      <point x="96.0" y="0.0" type="line"/>
      <point x="658.4" y="0.0" type="line"/>
      <point x="658.4" y="100.6" type="line"/>
      <point x="507.6" y="139.20000000000002" type="line"/>
      <point x="507.6" y="796.8" type="line"/>
    </contour>
  </outline>
</glyph>
<glyph name="kgreenlandic" format="2">
	<unicode hex="0138"/>
	<advance width="1414"/>
	<outline>
		<contour>
			<point x="664.2" y="456.6" type="line"/>
			<point x="974.2" y="122.8" type="line"/>
			<point x="975" y="97.2" type="line"/>
			<point x="975" y="0" type="line"/>
			<point x="1393.8" y="0" type="line"/>
			<point x="1393.8" y="97.2" type="line"/>
			<point x="1264.8" y="145.4" type="line"/>
			<point x="817.6" y="639" type="line"/>
			<point x="755.4" y="512.8" type="line"/>
			<point x="1179" y="898.6" type="line"/>
			<point x="1325.6" y="933.4" type="line"/>
			<point x="1325.6" y="1028" type="line"/>
			<point x="798.4" y="1028" type="line"/>
			<point x="798.4" y="933.4" type="line"/>
			<point x="949.6" y="896.6" type="line"/>
			<point x="688.4" y="620.6" type="line"/>
			<point x="433.8" y="620.6" type="line"/>
			<point x="433.8" y="456.6" type="line"/>
		</contour>
		<contour>
			<point x="522.4" y="1050" type="line"/>
			<point x="447.6" y="1050" type="line"/>
			<point x="76.8" y="944" type="line"/>
			<point x="76.8" y="874.4" type="line"/>
			<point x="137.8" y="837.7916840066"/>
			<point x="230.4" y="784.2029992107"/>
			<point x="252.4" y="771" type="curve"/>
			<point x="252.4" y="139.2" type="line"/>
			<point x="94.4" y="100.6" type="line"/>
			<point x="94.4" y="0" type="line"/>
			<point x="656.8" y="0" type="line"/>
			<point x="656.8" y="100.6" type="line"/>
			<point x="506" y="139.2" type="line"/>
			<point x="506" y="796.8" type="line"/>
		</contour>
	</outline>
</glyph>
<glyph name="Lslash" format="2">
  <advance width="1459.8000000000002"/>
  <unicode hex="0141"/>
  <outline>
    <contour>
      <point x="408.4" y="588.4" type="line"/>
      <point x="522.6" y="622.8" type="line"/>
      <point x="943.2" y="844.8000000000001" type="line"/>
      <point x="943.2" y="1002.6" type="line"/>
      <point x="522.6" y="780.6" type="line"/>
      <point x="408.4" y="746.1999999999999" type="line"/>
      <point x="133.2" y="601.4000000000001" type="line"/>
      <point x="133.2" y="443.59999999999997" type="line"/>
    </contour>
    <contour>
      <point x="1315.8" y="-78.19999999999999" type="line"/>
      <point x="1405.0" y="514.2" type="line"/>
      <point x="1254.8000000000002" y="514.2" type="line"/>
      <point x="1071.8" y="87.19999999999999" type="line"/>
      <point x="1164.3999999999999" y="183.60000000000002" type="line"/>
      <point x="457.59999999999997" y="183.60000000000002" type="line"/>
      <point x="455.0" y="0.0" type="line"/>
      <point x="1127.0" y="0.0" type="line"/>
      <point x="1181.4" y="-78.19999999999999" type="line"/>
    </contour>
    <contour>
      <point x="605.5999999999999" y="1256.1999999999998" type="line"/>
      <point x="796.0" y="1302.0" type="line"/>
      <point x="796.0" y="1414.0" type="line"/>
      <point x="133.2" y="1414.0" type="line"/>
      <point x="133.2" y="1302.0" type="line"/>
      <point x="323.6" y="1256.1999999999998" type="line"/>
      <point x="323.6" y="157.8" type="line"/>
      <point x="133.2" y="112.0" type="line"/>
      <point x="133.2" y="0.0" type="line"/>
      <point x="605.5999999999999" y="0.0" type="line"/>
    </contour>
  </outline>
</glyph>
<glyph name="lslash" format="2">
	<unicode hex="0142"/>
	<advance width="803.6"/>
	<outline>
		<contour>
			<point x="350" y="613.6" type="line"/>
			<point x="453" y="650" type="line"/>
			<point x="731.8" y="848.4" type="line"/>
			<point x="731.8" y="997.6" type="line"/>
			<point x="453" y="799.2" type="line"/>
			<point x="350" y="762.8" type="line"/>
			<point x="92.6" y="579.6" type="line"/>
			<point x="92.6" y="430.4" type="line"/>
		</contour>
		<contour>
			<point x="531.4" y="139.2" type="line"/>
			<point x="531.4" y="1261.2" type="line"/>
			<point x="552.6" y="1486" type="line"/>
			<point x="494.6" y="1486" type="line"/>
			<point x="66.6" y="1410.4" type="line"/>
			<point x="66.6" y="1320.8" type="line"/>
			<point x="144.6" y="1287.7060031911"/>
			<point x="251.8" y="1244.0313322696"/>
			<point x="277.8" y="1233" type="curve"/>
			<point x="277.8" y="139.2" type="line"/>
			<point x="119.8" y="100.6" type="line"/>
			<point x="119.8" y="0" type="line"/>
			<point x="682.2" y="0" type="line"/>
			<point x="682.2" y="100.6" type="line"/>
		</contour>
	</outline>
</glyph>
<glyph name="Eng" format="2">
	<unicode hex="014A"/>
	<advance width="1781.8"/>
	<outline>
		<contour>
			<point x="1361.2" y="386" type="line"/>
			<point x="673.8" y="1414" type="line"/>
			<point x="108.8" y="1414" type="line"/>
			<point x="108.8" y="1302" type="line"/>
			<point x="296.8" y="1252.6" type="line"/>
			<point x="296.8" y="157.4" type="line"/>
			<point x="112.8" y="112" type="line"/>
			<point x="112.8" y="0" type="line"/>
			<point x="688" y="0" type="line"/>
			<point x="688" y="112" type="line"/>
			<point x="489.6" y="157.4" type="line"/>
			<point x="489.6" y="1298" type="line"/>
			<point x="429.6" y="1290.4" type="line"/>
			<point x="1354" y="-83.2" type="line"/>
		</contour>
		<contour>
			<point x="1508.8" y="-79" type="curve" smooth="yes"/>
			<point x="1508.8" y="1256.6" type="line"/>
			<point x="1692.8" y="1302" type="line"/>
			<point x="1692.8" y="1414" type="line"/>
			<point x="1117.6" y="1414" type="line"/>
			<point x="1117.6" y="1302" type="line"/>
			<point x="1316" y="1256.6" type="line"/>
			<point x="1316" y="-78" type="line" smooth="yes"/>
			<point x="1316" y="-231.6"/>
			<point x="1257.4" y="-278.8"/>
			<point x="1125.8" y="-278.8" type="curve" smooth="yes"/>
			<point x="1039.4" y="-278.8"/>
			<point x="954.2" y="-190.8"/>
			<point x="924.2" y="-190.8" type="curve" smooth="yes"/>
			<point x="869.2" y="-190.8"/>
			<point x="827.4" y="-245.2"/>
			<point x="827.4" y="-307.8" type="curve" smooth="yes"/>
			<point x="827.4" y="-396.6"/>
			<point x="896.4" y="-465"/>
			<point x="1103.2" y="-465" type="curve" smooth="yes"/>
			<point x="1372.6" y="-465"/>
			<point x="1508.8" y="-347.8"/>
		</contour>
	</outline>
</glyph>
<glyph name="eng" format="2">
	<unicode hex="014B"/>
	<advance width="1385.2"/>
	<outline>
		<contour>
			<point x="505.4" y="828.8" type="line"/>
			<point x="435.8" y="1054" type="line"/>
			<point x="387" y="1054" type="line"/>
			<point x="76.2" y="928" type="line"/>
			<point x="76.2" y="874.4" type="line"/>
			<point x="167.2" y="811.7433952788"/>
			<point x="229.8" y="770.1477505919"/>
			<point x="251.8" y="755" type="curve"/>
			<point x="251.8" y="139.2" type="line"/>
			<point x="93.8" y="100.6" type="line"/>
			<point x="93.8" y="0" type="line"/>
			<point x="642.6" y="0" type="line"/>
			<point x="642.6" y="100.6" type="line"/>
			<point x="505.4" y="136.4" type="line"/>
		</contour>
		<contour>
			<point x="972.2" y="8.4" type="line" smooth="yes"/>
			<point x="972.2" y="-104.4"/>
			<point x="963.6" y="-120"/>
			<point x="731.2" y="-356.4" type="curve"/>
			<point x="818.4" y="-465" type="line"/>
			<point x="1179" y="-223.2"/>
			<point x="1225.8" y="-156.8"/>
			<point x="1225.8" y="50.8" type="curve" smooth="yes"/>
			<point x="1225.8" y="725.4" type="line" smooth="yes"/>
			<point x="1225.8" y="938"/>
			<point x="1121" y="1050"/>
			<point x="889.8" y="1050" type="curve" smooth="yes"/>
			<point x="768.2" y="1050"/>
			<point x="738.8" y="1038.2"/>
			<point x="476.4" y="837" type="curve"/>
			<point x="493.2" y="784" type="line"/>
			<point x="572.4" y="809.6"/>
			<point x="670.4" y="826.8"/>
			<point x="757" y="826.8" type="curve" smooth="yes"/>
			<point x="914.2" y="826.8"/>
			<point x="972.2" y="775"/>
			<point x="972.2" y="650.2" type="curve" smooth="yes"/>
		</contour>
	</outline>
</glyph>
<glyph name="OE" format="2">
	<unicode hex="0152"/>
	<advance width="2383.2"/>
	<outline>
		<contour>
			<point x="1921" y="990" type="line"/>
			<point x="1779.4" y="990" type="line"/>
			<point x="1762.4" y="821.2" type="line"/>
			<point x="1275.6" y="821.2" type="line"/>
			<point x="1275.6" y="652.8" type="line"/>
			<point x="1762.4" y="652.8" type="line"/>
			<point x="1779.4" y="480" type="line"/>
			<point x="1921" y="480" type="line"/>
			<point x="1921" y="735" type="line"/>
		</contour>
		<contour>
			<point x="1144.2" y="1414" type="line"/>
			<point x="1144.2" y="0" type="line"/>
			<point x="1426.2" y="0" type="line"/>
			<point x="1426.2" y="1414" type="line"/>
		</contour>
		<contour>
			<point x="865.4" y="0" type="curve" smooth="yes"/>
			<point x="2026.6" y="0" type="line"/>
			<point x="2081" y="-78.2" type="line"/>
			<point x="2215.4" y="-78.2" type="line"/>
			<point x="2296.8" y="452.6" type="line"/>
			<point x="2146.6" y="452.6" type="line"/>
			<point x="1979.4" y="75.8" type="line"/>
			<point x="2061.4" y="176.2" type="line"/>
			<point x="937.4" y="176.2" type="line" smooth="yes"/>
			<point x="565" y="176.4"/>
			<point x="406.8" y="339"/>
			<point x="406.8" y="690.2" type="curve" smooth="yes"/>
			<point x="406.8" y="1078.2"/>
			<point x="568.6" y="1237.8"/>
			<point x="885.8" y="1237.8" type="curve" smooth="yes"/>
			<point x="2088.6" y="1237.8" type="line"/>
			<point x="1994.8" y="1339.2" type="line"/>
			<point x="2090" y="1023.2" type="line"/>
			<point x="2242.8" y="1023.2" type="line"/>
			<point x="2242.8" y="1489.6" type="line"/>
			<point x="2125.6" y="1489.6" type="line"/>
			<point x="2037.8" y="1414" type="line"/>
			<point x="874.4" y="1414" type="line" smooth="yes"/>
			<point x="415.4" y="1414"/>
			<point x="116.4" y="1157"/>
			<point x="116.4" y="678" type="curve" smooth="yes"/>
			<point x="116.4" y="237"/>
			<point x="370.4" y="-0.2"/>
		</contour>
	</outline>
</glyph>
<glyph name="oe" format="2">
	<unicode hex="0153"/>
	<advance width="2016.6"/>
	<outline>
		<contour>
			<point x="634" y="152" type="curve" smooth="yes"/>
			<point x="439.2" y="152"/>
			<point x="353.2" y="277"/>
			<point x="353.2" y="536.8" type="curve" smooth="yes"/>
			<point x="353.2" y="772.8"/>
			<point x="454" y="876"/>
			<point x="654.4" y="876" type="curve" smooth="yes"/>
			<point x="849.2" y="876"/>
			<point x="935.2" y="751"/>
			<point x="935.2" y="491.2" type="curve" smooth="yes"/>
			<point x="935.2" y="255.2"/>
			<point x="834.4" y="152"/>
		</contour>
		<contour>
			<point x="1132.2" y="271.2" type="curve"/>
			<point x="994.4" y="271.2" type="line"/>
			<point x="1074.2" y="97.4"/>
			<point x="1225.4" y="-22"/>
			<point x="1470.8" y="-22" type="curve" smooth="yes"/>
			<point x="1592.6" y="-22"/>
			<point x="1751.8" y="33.4"/>
			<point x="1904.6" y="132.8" type="curve"/>
			<point x="1904.6" y="245.8" type="line"/>
			<point x="1809" y="212.2"/>
			<point x="1698.8" y="179.2"/>
			<point x="1564.8" y="179.2" type="curve" smooth="yes"/>
			<point x="1300.6" y="179.2"/>
			<point x="1185.6" y="285.4"/>
			<point x="1185.6" y="564.8" type="curve" smooth="yes"/>
			<point x="1185.6" y="800.6"/>
			<point x="1277.4" y="893"/>
			<point x="1443.8" y="893" type="curve" smooth="yes"/>
			<point x="1584.6" y="893"/>
			<point x="1664.6" y="819.4"/>
			<point x="1667" y="593" type="curve"/>
			<point x="1750.2" y="625.4" type="line"/>
			<point x="1133.6" y="625.4" type="line"/>
			<point x="1138.4" y="484.6" type="line"/>
			<point x="1918.4" y="484.6" type="line"/>
			<point x="1912.2" y="859"/>
			<point x="1785" y="1050"/>
			<point x="1453.2" y="1050" type="curve" smooth="yes"/>
			<point x="1237.6" y="1050"/>
			<point x="1085" y="936.4"/>
			<point x="1002" y="769.6" type="curve"/>
			<point x="1127.6" y="769.6" type="line"/>
			<point x="1043.4" y="936"/>
			<point x="890" y="1050"/>
			<point x="655.8" y="1050" type="curve" smooth="yes"/>
			<point x="308.2" y="1050"/>
			<point x="96.8" y="843"/>
			<point x="96.8" y="512.6" type="curve" smooth="yes"/>
			<point x="96.8" y="184.8"/>
			<point x="296.6" y="-22"/>
			<point x="632.6" y="-22" type="curve" smooth="yes"/>
			<point x="884.8" y="-22"/>
			<point x="1044.8" y="103.6"/>
		</contour>
	</outline>
	<anchor name="top" x="1007.6" y="1028"/>
	<anchor name="bottom" x="1007.6" y="0"/>
</glyph>
